G75*
%MOIN*%
%OFA0B0*%
%FSLAX25Y25*%
%IPPOS*%
%LPD*%
%AMOC8*
5,1,8,0,0,1.08239X$1,22.5*
%
%ADD10C,0.00000*%
%ADD11C,0.00300*%
D10*
X0024138Y0017248D02*
X0205240Y0017248D01*
X0205430Y0017250D01*
X0205620Y0017257D01*
X0205810Y0017269D01*
X0206000Y0017285D01*
X0206189Y0017305D01*
X0206378Y0017331D01*
X0206566Y0017360D01*
X0206753Y0017395D01*
X0206939Y0017434D01*
X0207124Y0017477D01*
X0207309Y0017525D01*
X0207492Y0017577D01*
X0207673Y0017633D01*
X0207853Y0017694D01*
X0208032Y0017760D01*
X0208209Y0017829D01*
X0208385Y0017903D01*
X0208558Y0017981D01*
X0208730Y0018064D01*
X0208899Y0018150D01*
X0209067Y0018240D01*
X0209232Y0018335D01*
X0209395Y0018433D01*
X0209555Y0018536D01*
X0209713Y0018642D01*
X0209868Y0018752D01*
X0210021Y0018865D01*
X0210171Y0018983D01*
X0210317Y0019104D01*
X0210461Y0019228D01*
X0210602Y0019356D01*
X0210740Y0019487D01*
X0210875Y0019622D01*
X0211006Y0019760D01*
X0211134Y0019901D01*
X0211258Y0020045D01*
X0211379Y0020191D01*
X0211497Y0020341D01*
X0211610Y0020494D01*
X0211720Y0020649D01*
X0211826Y0020807D01*
X0211929Y0020967D01*
X0212027Y0021130D01*
X0212122Y0021295D01*
X0212212Y0021463D01*
X0212298Y0021632D01*
X0212381Y0021804D01*
X0212459Y0021977D01*
X0212533Y0022153D01*
X0212602Y0022330D01*
X0212668Y0022509D01*
X0212729Y0022689D01*
X0212785Y0022870D01*
X0212837Y0023053D01*
X0212885Y0023238D01*
X0212928Y0023423D01*
X0212967Y0023609D01*
X0213002Y0023796D01*
X0213031Y0023984D01*
X0213057Y0024173D01*
X0213077Y0024362D01*
X0213093Y0024552D01*
X0213105Y0024742D01*
X0213112Y0024932D01*
X0213114Y0025122D01*
X0213114Y0127484D01*
X0213112Y0127674D01*
X0213105Y0127864D01*
X0213093Y0128054D01*
X0213077Y0128244D01*
X0213057Y0128433D01*
X0213031Y0128622D01*
X0213002Y0128810D01*
X0212967Y0128997D01*
X0212928Y0129183D01*
X0212885Y0129368D01*
X0212837Y0129553D01*
X0212785Y0129736D01*
X0212729Y0129917D01*
X0212668Y0130097D01*
X0212602Y0130276D01*
X0212533Y0130453D01*
X0212459Y0130629D01*
X0212381Y0130802D01*
X0212298Y0130974D01*
X0212212Y0131143D01*
X0212122Y0131311D01*
X0212027Y0131476D01*
X0211929Y0131639D01*
X0211826Y0131799D01*
X0211720Y0131957D01*
X0211610Y0132112D01*
X0211497Y0132265D01*
X0211379Y0132415D01*
X0211258Y0132561D01*
X0211134Y0132705D01*
X0211006Y0132846D01*
X0210875Y0132984D01*
X0210740Y0133119D01*
X0210602Y0133250D01*
X0210461Y0133378D01*
X0210317Y0133502D01*
X0210171Y0133623D01*
X0210021Y0133741D01*
X0209868Y0133854D01*
X0209713Y0133964D01*
X0209555Y0134070D01*
X0209395Y0134173D01*
X0209232Y0134271D01*
X0209067Y0134366D01*
X0208899Y0134456D01*
X0208730Y0134542D01*
X0208558Y0134625D01*
X0208385Y0134703D01*
X0208209Y0134777D01*
X0208032Y0134846D01*
X0207853Y0134912D01*
X0207673Y0134973D01*
X0207492Y0135029D01*
X0207309Y0135081D01*
X0207124Y0135129D01*
X0206939Y0135172D01*
X0206753Y0135211D01*
X0206566Y0135246D01*
X0206378Y0135275D01*
X0206189Y0135301D01*
X0206000Y0135321D01*
X0205810Y0135337D01*
X0205620Y0135349D01*
X0205430Y0135356D01*
X0205240Y0135358D01*
X0024138Y0135358D01*
X0023948Y0135356D01*
X0023758Y0135349D01*
X0023568Y0135337D01*
X0023378Y0135321D01*
X0023189Y0135301D01*
X0023000Y0135275D01*
X0022812Y0135246D01*
X0022625Y0135211D01*
X0022439Y0135172D01*
X0022254Y0135129D01*
X0022069Y0135081D01*
X0021886Y0135029D01*
X0021705Y0134973D01*
X0021525Y0134912D01*
X0021346Y0134846D01*
X0021169Y0134777D01*
X0020993Y0134703D01*
X0020820Y0134625D01*
X0020648Y0134542D01*
X0020479Y0134456D01*
X0020311Y0134366D01*
X0020146Y0134271D01*
X0019983Y0134173D01*
X0019823Y0134070D01*
X0019665Y0133964D01*
X0019510Y0133854D01*
X0019357Y0133741D01*
X0019207Y0133623D01*
X0019061Y0133502D01*
X0018917Y0133378D01*
X0018776Y0133250D01*
X0018638Y0133119D01*
X0018503Y0132984D01*
X0018372Y0132846D01*
X0018244Y0132705D01*
X0018120Y0132561D01*
X0017999Y0132415D01*
X0017881Y0132265D01*
X0017768Y0132112D01*
X0017658Y0131957D01*
X0017552Y0131799D01*
X0017449Y0131639D01*
X0017351Y0131476D01*
X0017256Y0131311D01*
X0017166Y0131143D01*
X0017080Y0130974D01*
X0016997Y0130802D01*
X0016919Y0130629D01*
X0016845Y0130453D01*
X0016776Y0130276D01*
X0016710Y0130097D01*
X0016649Y0129917D01*
X0016593Y0129736D01*
X0016541Y0129553D01*
X0016493Y0129368D01*
X0016450Y0129183D01*
X0016411Y0128997D01*
X0016376Y0128810D01*
X0016347Y0128622D01*
X0016321Y0128433D01*
X0016301Y0128244D01*
X0016285Y0128054D01*
X0016273Y0127864D01*
X0016266Y0127674D01*
X0016264Y0127484D01*
X0016264Y0025122D01*
X0016266Y0024932D01*
X0016273Y0024742D01*
X0016285Y0024552D01*
X0016301Y0024362D01*
X0016321Y0024173D01*
X0016347Y0023984D01*
X0016376Y0023796D01*
X0016411Y0023609D01*
X0016450Y0023423D01*
X0016493Y0023238D01*
X0016541Y0023053D01*
X0016593Y0022870D01*
X0016649Y0022689D01*
X0016710Y0022509D01*
X0016776Y0022330D01*
X0016845Y0022153D01*
X0016919Y0021977D01*
X0016997Y0021804D01*
X0017080Y0021632D01*
X0017166Y0021463D01*
X0017256Y0021295D01*
X0017351Y0021130D01*
X0017449Y0020967D01*
X0017552Y0020807D01*
X0017658Y0020649D01*
X0017768Y0020494D01*
X0017881Y0020341D01*
X0017999Y0020191D01*
X0018120Y0020045D01*
X0018244Y0019901D01*
X0018372Y0019760D01*
X0018503Y0019622D01*
X0018638Y0019487D01*
X0018776Y0019356D01*
X0018917Y0019228D01*
X0019061Y0019104D01*
X0019207Y0018983D01*
X0019357Y0018865D01*
X0019510Y0018752D01*
X0019665Y0018642D01*
X0019823Y0018536D01*
X0019983Y0018433D01*
X0020146Y0018335D01*
X0020311Y0018240D01*
X0020479Y0018150D01*
X0020648Y0018064D01*
X0020820Y0017981D01*
X0020993Y0017903D01*
X0021169Y0017829D01*
X0021346Y0017760D01*
X0021525Y0017694D01*
X0021705Y0017633D01*
X0021886Y0017577D01*
X0022069Y0017525D01*
X0022254Y0017477D01*
X0022439Y0017434D01*
X0022625Y0017395D01*
X0022812Y0017360D01*
X0023000Y0017331D01*
X0023189Y0017305D01*
X0023378Y0017285D01*
X0023568Y0017269D01*
X0023758Y0017257D01*
X0023948Y0017250D01*
X0024138Y0017248D01*
D11*
X0032089Y0020172D02*
X0032894Y0020494D01*
X0032931Y0020511D01*
X0032965Y0020531D01*
X0032998Y0020554D01*
X0033028Y0020580D01*
X0033056Y0020609D01*
X0033080Y0020640D01*
X0033102Y0020674D01*
X0033120Y0020710D01*
X0033135Y0020747D01*
X0033146Y0020785D01*
X0033153Y0020825D01*
X0033157Y0020865D01*
X0033156Y0020904D01*
X0033152Y0020944D01*
X0033144Y0020983D01*
X0033133Y0021022D01*
X0033118Y0021059D01*
X0033099Y0021094D01*
X0033077Y0021128D01*
X0033052Y0021159D01*
X0033024Y0021187D01*
X0032994Y0021213D01*
X0032961Y0021236D01*
X0032926Y0021256D01*
X0032890Y0021272D01*
X0032852Y0021285D01*
X0032813Y0021293D01*
X0032773Y0021299D01*
X0032733Y0021300D01*
X0033136Y0019528D02*
X0033041Y0019496D01*
X0032945Y0019467D01*
X0032847Y0019442D01*
X0032749Y0019421D01*
X0032650Y0019403D01*
X0032551Y0019388D01*
X0032451Y0019378D01*
X0032350Y0019371D01*
X0032250Y0019367D01*
X0032250Y0019366D02*
X0032210Y0019367D01*
X0032170Y0019373D01*
X0032131Y0019381D01*
X0032093Y0019394D01*
X0032057Y0019410D01*
X0032022Y0019430D01*
X0031989Y0019453D01*
X0031959Y0019479D01*
X0031931Y0019507D01*
X0031906Y0019538D01*
X0031884Y0019572D01*
X0031865Y0019607D01*
X0031850Y0019644D01*
X0031839Y0019683D01*
X0031831Y0019722D01*
X0031827Y0019762D01*
X0031826Y0019801D01*
X0031830Y0019841D01*
X0031837Y0019881D01*
X0031848Y0019919D01*
X0031863Y0019956D01*
X0031881Y0019992D01*
X0031903Y0020026D01*
X0031927Y0020057D01*
X0031955Y0020086D01*
X0031985Y0020112D01*
X0032018Y0020135D01*
X0032052Y0020155D01*
X0032089Y0020172D01*
X0032008Y0021139D02*
X0032084Y0021171D01*
X0032162Y0021200D01*
X0032241Y0021225D01*
X0032322Y0021247D01*
X0032403Y0021265D01*
X0032485Y0021279D01*
X0032567Y0021290D01*
X0032650Y0021297D01*
X0032733Y0021300D01*
X0034071Y0021300D02*
X0034071Y0020978D01*
X0034071Y0021300D02*
X0035038Y0021300D01*
X0035038Y0019367D01*
X0036359Y0019367D02*
X0037165Y0019367D01*
X0037207Y0019369D01*
X0037249Y0019374D01*
X0037290Y0019383D01*
X0037330Y0019396D01*
X0037369Y0019412D01*
X0037407Y0019432D01*
X0037442Y0019454D01*
X0037475Y0019480D01*
X0037507Y0019508D01*
X0037535Y0019540D01*
X0037561Y0019573D01*
X0037583Y0019609D01*
X0037603Y0019646D01*
X0037619Y0019685D01*
X0037632Y0019725D01*
X0037641Y0019766D01*
X0037646Y0019808D01*
X0037648Y0019850D01*
X0037648Y0020655D01*
X0037648Y0020333D02*
X0036359Y0020333D01*
X0036359Y0020655D01*
X0036360Y0020655D02*
X0036362Y0020704D01*
X0036368Y0020753D01*
X0036377Y0020802D01*
X0036390Y0020849D01*
X0036407Y0020896D01*
X0036427Y0020941D01*
X0036450Y0020984D01*
X0036477Y0021026D01*
X0036507Y0021065D01*
X0036540Y0021102D01*
X0036576Y0021136D01*
X0036614Y0021167D01*
X0036654Y0021196D01*
X0036696Y0021221D01*
X0036741Y0021243D01*
X0036786Y0021261D01*
X0036833Y0021276D01*
X0036881Y0021287D01*
X0036930Y0021295D01*
X0036979Y0021299D01*
X0037029Y0021299D01*
X0037078Y0021295D01*
X0037127Y0021287D01*
X0037175Y0021276D01*
X0037222Y0021261D01*
X0037267Y0021243D01*
X0037312Y0021221D01*
X0037354Y0021196D01*
X0037394Y0021167D01*
X0037432Y0021136D01*
X0037468Y0021102D01*
X0037501Y0021065D01*
X0037531Y0021026D01*
X0037558Y0020984D01*
X0037581Y0020941D01*
X0037601Y0020896D01*
X0037618Y0020849D01*
X0037631Y0020802D01*
X0037640Y0020753D01*
X0037646Y0020704D01*
X0037648Y0020655D01*
X0038967Y0021300D02*
X0039773Y0021300D01*
X0039815Y0021298D01*
X0039857Y0021293D01*
X0039898Y0021284D01*
X0039938Y0021271D01*
X0039977Y0021255D01*
X0040015Y0021235D01*
X0040050Y0021213D01*
X0040083Y0021187D01*
X0040115Y0021159D01*
X0040143Y0021127D01*
X0040169Y0021094D01*
X0040191Y0021059D01*
X0040211Y0021021D01*
X0040227Y0020982D01*
X0040240Y0020942D01*
X0040249Y0020901D01*
X0040254Y0020859D01*
X0040256Y0020817D01*
X0040256Y0019850D01*
X0040254Y0019808D01*
X0040249Y0019766D01*
X0040240Y0019725D01*
X0040227Y0019685D01*
X0040211Y0019646D01*
X0040191Y0019609D01*
X0040169Y0019573D01*
X0040143Y0019540D01*
X0040115Y0019508D01*
X0040083Y0019480D01*
X0040050Y0019454D01*
X0040015Y0019432D01*
X0039977Y0019412D01*
X0039938Y0019396D01*
X0039898Y0019383D01*
X0039857Y0019374D01*
X0039815Y0019369D01*
X0039773Y0019367D01*
X0038967Y0019367D01*
X0038967Y0022267D01*
X0041743Y0022267D02*
X0041743Y0019850D01*
X0041741Y0019808D01*
X0041736Y0019766D01*
X0041727Y0019725D01*
X0041714Y0019685D01*
X0041698Y0019646D01*
X0041678Y0019609D01*
X0041656Y0019573D01*
X0041630Y0019540D01*
X0041602Y0019508D01*
X0041570Y0019480D01*
X0041537Y0019454D01*
X0041502Y0019432D01*
X0041464Y0019412D01*
X0041425Y0019396D01*
X0041385Y0019383D01*
X0041344Y0019374D01*
X0041302Y0019369D01*
X0041260Y0019367D01*
X0043079Y0019367D02*
X0043079Y0021300D01*
X0044368Y0021300D02*
X0044368Y0019850D01*
X0044366Y0019808D01*
X0044361Y0019766D01*
X0044352Y0019725D01*
X0044339Y0019685D01*
X0044323Y0019646D01*
X0044303Y0019609D01*
X0044281Y0019573D01*
X0044255Y0019540D01*
X0044227Y0019508D01*
X0044195Y0019480D01*
X0044162Y0019454D01*
X0044127Y0019432D01*
X0044089Y0019412D01*
X0044050Y0019396D01*
X0044010Y0019383D01*
X0043969Y0019374D01*
X0043927Y0019369D01*
X0043885Y0019367D01*
X0043079Y0019367D01*
X0045829Y0019367D02*
X0045829Y0022267D01*
X0046796Y0020655D01*
X0047762Y0022267D01*
X0047762Y0019367D01*
X0050759Y0019367D02*
X0050759Y0020817D01*
X0050761Y0020859D01*
X0050766Y0020901D01*
X0050775Y0020942D01*
X0050788Y0020982D01*
X0050804Y0021021D01*
X0050824Y0021059D01*
X0050846Y0021094D01*
X0050872Y0021127D01*
X0050900Y0021159D01*
X0050932Y0021187D01*
X0050965Y0021213D01*
X0051001Y0021235D01*
X0051038Y0021255D01*
X0051077Y0021271D01*
X0051117Y0021284D01*
X0051158Y0021293D01*
X0051200Y0021298D01*
X0051242Y0021300D01*
X0052048Y0021300D01*
X0052048Y0019367D01*
X0053463Y0019367D02*
X0053463Y0020817D01*
X0053463Y0020494D02*
X0054188Y0020494D01*
X0053464Y0020817D02*
X0053466Y0020859D01*
X0053471Y0020901D01*
X0053480Y0020942D01*
X0053493Y0020982D01*
X0053509Y0021021D01*
X0053529Y0021059D01*
X0053551Y0021094D01*
X0053577Y0021127D01*
X0053605Y0021159D01*
X0053637Y0021187D01*
X0053670Y0021213D01*
X0053706Y0021235D01*
X0053743Y0021255D01*
X0053782Y0021271D01*
X0053822Y0021284D01*
X0053863Y0021293D01*
X0053905Y0021298D01*
X0053947Y0021300D01*
X0054591Y0021300D01*
X0054188Y0020494D02*
X0054235Y0020492D01*
X0054281Y0020486D01*
X0054326Y0020477D01*
X0054371Y0020463D01*
X0054415Y0020446D01*
X0054456Y0020426D01*
X0054496Y0020402D01*
X0054534Y0020375D01*
X0054570Y0020345D01*
X0054603Y0020312D01*
X0054633Y0020276D01*
X0054660Y0020238D01*
X0054684Y0020198D01*
X0054704Y0020157D01*
X0054721Y0020113D01*
X0054735Y0020068D01*
X0054744Y0020023D01*
X0054750Y0019977D01*
X0054752Y0019930D01*
X0054750Y0019883D01*
X0054744Y0019837D01*
X0054735Y0019792D01*
X0054721Y0019747D01*
X0054704Y0019703D01*
X0054684Y0019662D01*
X0054660Y0019622D01*
X0054633Y0019584D01*
X0054603Y0019548D01*
X0054570Y0019515D01*
X0054534Y0019485D01*
X0054496Y0019458D01*
X0054456Y0019434D01*
X0054415Y0019414D01*
X0054371Y0019397D01*
X0054326Y0019383D01*
X0054281Y0019374D01*
X0054235Y0019368D01*
X0054188Y0019366D01*
X0054188Y0019367D02*
X0053463Y0019367D01*
X0056780Y0019367D02*
X0055813Y0022267D01*
X0057746Y0022267D02*
X0056780Y0019367D01*
X0060359Y0019367D02*
X0061165Y0019367D01*
X0061207Y0019369D01*
X0061249Y0019374D01*
X0061290Y0019383D01*
X0061330Y0019396D01*
X0061369Y0019412D01*
X0061407Y0019432D01*
X0061442Y0019454D01*
X0061475Y0019480D01*
X0061507Y0019508D01*
X0061535Y0019540D01*
X0061561Y0019573D01*
X0061583Y0019609D01*
X0061603Y0019646D01*
X0061619Y0019685D01*
X0061632Y0019725D01*
X0061641Y0019766D01*
X0061646Y0019808D01*
X0061648Y0019850D01*
X0061648Y0020655D01*
X0061648Y0020333D02*
X0060359Y0020333D01*
X0060359Y0020655D01*
X0060360Y0020655D02*
X0060362Y0020704D01*
X0060368Y0020753D01*
X0060377Y0020802D01*
X0060390Y0020849D01*
X0060407Y0020896D01*
X0060427Y0020941D01*
X0060450Y0020984D01*
X0060477Y0021026D01*
X0060507Y0021065D01*
X0060540Y0021102D01*
X0060576Y0021136D01*
X0060614Y0021167D01*
X0060654Y0021196D01*
X0060696Y0021221D01*
X0060741Y0021243D01*
X0060786Y0021261D01*
X0060833Y0021276D01*
X0060881Y0021287D01*
X0060930Y0021295D01*
X0060979Y0021299D01*
X0061029Y0021299D01*
X0061078Y0021295D01*
X0061127Y0021287D01*
X0061175Y0021276D01*
X0061222Y0021261D01*
X0061267Y0021243D01*
X0061312Y0021221D01*
X0061354Y0021196D01*
X0061394Y0021167D01*
X0061432Y0021136D01*
X0061468Y0021102D01*
X0061501Y0021065D01*
X0061531Y0021026D01*
X0061558Y0020984D01*
X0061581Y0020941D01*
X0061601Y0020896D01*
X0061618Y0020849D01*
X0061631Y0020802D01*
X0061640Y0020753D01*
X0061646Y0020704D01*
X0061648Y0020655D01*
X0062951Y0020817D02*
X0062951Y0019367D01*
X0064240Y0019367D02*
X0064240Y0021300D01*
X0063434Y0021300D01*
X0063392Y0021298D01*
X0063350Y0021293D01*
X0063309Y0021284D01*
X0063269Y0021271D01*
X0063230Y0021255D01*
X0063193Y0021235D01*
X0063157Y0021213D01*
X0063124Y0021187D01*
X0063092Y0021159D01*
X0063064Y0021127D01*
X0063038Y0021094D01*
X0063016Y0021059D01*
X0062996Y0021021D01*
X0062980Y0020982D01*
X0062967Y0020942D01*
X0062958Y0020901D01*
X0062953Y0020859D01*
X0062951Y0020817D01*
X0065271Y0020978D02*
X0065271Y0021300D01*
X0066238Y0021300D01*
X0066238Y0019367D01*
X0067671Y0019367D02*
X0067671Y0020817D01*
X0067671Y0020494D02*
X0068396Y0020494D01*
X0067672Y0020817D02*
X0067674Y0020859D01*
X0067679Y0020901D01*
X0067688Y0020942D01*
X0067701Y0020982D01*
X0067717Y0021021D01*
X0067737Y0021059D01*
X0067759Y0021094D01*
X0067785Y0021127D01*
X0067813Y0021159D01*
X0067845Y0021187D01*
X0067878Y0021213D01*
X0067914Y0021235D01*
X0067951Y0021255D01*
X0067990Y0021271D01*
X0068030Y0021284D01*
X0068071Y0021293D01*
X0068113Y0021298D01*
X0068155Y0021300D01*
X0068799Y0021300D01*
X0068396Y0020494D02*
X0068443Y0020492D01*
X0068489Y0020486D01*
X0068534Y0020477D01*
X0068579Y0020463D01*
X0068623Y0020446D01*
X0068664Y0020426D01*
X0068704Y0020402D01*
X0068742Y0020375D01*
X0068778Y0020345D01*
X0068811Y0020312D01*
X0068841Y0020276D01*
X0068868Y0020238D01*
X0068892Y0020198D01*
X0068912Y0020157D01*
X0068929Y0020113D01*
X0068943Y0020068D01*
X0068952Y0020023D01*
X0068958Y0019977D01*
X0068960Y0019930D01*
X0068958Y0019883D01*
X0068952Y0019837D01*
X0068943Y0019792D01*
X0068929Y0019747D01*
X0068912Y0019703D01*
X0068892Y0019662D01*
X0068868Y0019622D01*
X0068841Y0019584D01*
X0068811Y0019548D01*
X0068778Y0019515D01*
X0068742Y0019485D01*
X0068704Y0019458D01*
X0068664Y0019434D01*
X0068623Y0019414D01*
X0068579Y0019397D01*
X0068534Y0019383D01*
X0068489Y0019374D01*
X0068443Y0019368D01*
X0068396Y0019366D01*
X0068396Y0019367D02*
X0067671Y0019367D01*
X0070265Y0020011D02*
X0070265Y0022267D01*
X0070266Y0020011D02*
X0070268Y0019963D01*
X0070273Y0019915D01*
X0070282Y0019868D01*
X0070295Y0019821D01*
X0070311Y0019776D01*
X0070330Y0019732D01*
X0070352Y0019689D01*
X0070378Y0019648D01*
X0070407Y0019609D01*
X0070438Y0019573D01*
X0070472Y0019539D01*
X0070508Y0019508D01*
X0070547Y0019479D01*
X0070588Y0019453D01*
X0070631Y0019431D01*
X0070675Y0019412D01*
X0070720Y0019396D01*
X0070767Y0019383D01*
X0070814Y0019374D01*
X0070862Y0019369D01*
X0070910Y0019367D01*
X0071232Y0019367D01*
M02*
