G75*
%MOIN*%
%OFA0B0*%
%FSLAX25Y25*%
%IPPOS*%
%LPD*%
%AMOC8*
5,1,8,0,0,1.08239X$1,22.5*
%
%ADD10C,0.00000*%
%ADD11C,0.04000*%
%ADD12C,0.06600*%
%ADD13C,0.01000*%
%ADD14C,0.02578*%
D10*
X0024138Y0017248D02*
X0205240Y0017248D01*
X0205430Y0017250D01*
X0205620Y0017257D01*
X0205810Y0017269D01*
X0206000Y0017285D01*
X0206189Y0017305D01*
X0206378Y0017331D01*
X0206566Y0017360D01*
X0206753Y0017395D01*
X0206939Y0017434D01*
X0207124Y0017477D01*
X0207309Y0017525D01*
X0207492Y0017577D01*
X0207673Y0017633D01*
X0207853Y0017694D01*
X0208032Y0017760D01*
X0208209Y0017829D01*
X0208385Y0017903D01*
X0208558Y0017981D01*
X0208730Y0018064D01*
X0208899Y0018150D01*
X0209067Y0018240D01*
X0209232Y0018335D01*
X0209395Y0018433D01*
X0209555Y0018536D01*
X0209713Y0018642D01*
X0209868Y0018752D01*
X0210021Y0018865D01*
X0210171Y0018983D01*
X0210317Y0019104D01*
X0210461Y0019228D01*
X0210602Y0019356D01*
X0210740Y0019487D01*
X0210875Y0019622D01*
X0211006Y0019760D01*
X0211134Y0019901D01*
X0211258Y0020045D01*
X0211379Y0020191D01*
X0211497Y0020341D01*
X0211610Y0020494D01*
X0211720Y0020649D01*
X0211826Y0020807D01*
X0211929Y0020967D01*
X0212027Y0021130D01*
X0212122Y0021295D01*
X0212212Y0021463D01*
X0212298Y0021632D01*
X0212381Y0021804D01*
X0212459Y0021977D01*
X0212533Y0022153D01*
X0212602Y0022330D01*
X0212668Y0022509D01*
X0212729Y0022689D01*
X0212785Y0022870D01*
X0212837Y0023053D01*
X0212885Y0023238D01*
X0212928Y0023423D01*
X0212967Y0023609D01*
X0213002Y0023796D01*
X0213031Y0023984D01*
X0213057Y0024173D01*
X0213077Y0024362D01*
X0213093Y0024552D01*
X0213105Y0024742D01*
X0213112Y0024932D01*
X0213114Y0025122D01*
X0213114Y0127484D01*
X0213112Y0127674D01*
X0213105Y0127864D01*
X0213093Y0128054D01*
X0213077Y0128244D01*
X0213057Y0128433D01*
X0213031Y0128622D01*
X0213002Y0128810D01*
X0212967Y0128997D01*
X0212928Y0129183D01*
X0212885Y0129368D01*
X0212837Y0129553D01*
X0212785Y0129736D01*
X0212729Y0129917D01*
X0212668Y0130097D01*
X0212602Y0130276D01*
X0212533Y0130453D01*
X0212459Y0130629D01*
X0212381Y0130802D01*
X0212298Y0130974D01*
X0212212Y0131143D01*
X0212122Y0131311D01*
X0212027Y0131476D01*
X0211929Y0131639D01*
X0211826Y0131799D01*
X0211720Y0131957D01*
X0211610Y0132112D01*
X0211497Y0132265D01*
X0211379Y0132415D01*
X0211258Y0132561D01*
X0211134Y0132705D01*
X0211006Y0132846D01*
X0210875Y0132984D01*
X0210740Y0133119D01*
X0210602Y0133250D01*
X0210461Y0133378D01*
X0210317Y0133502D01*
X0210171Y0133623D01*
X0210021Y0133741D01*
X0209868Y0133854D01*
X0209713Y0133964D01*
X0209555Y0134070D01*
X0209395Y0134173D01*
X0209232Y0134271D01*
X0209067Y0134366D01*
X0208899Y0134456D01*
X0208730Y0134542D01*
X0208558Y0134625D01*
X0208385Y0134703D01*
X0208209Y0134777D01*
X0208032Y0134846D01*
X0207853Y0134912D01*
X0207673Y0134973D01*
X0207492Y0135029D01*
X0207309Y0135081D01*
X0207124Y0135129D01*
X0206939Y0135172D01*
X0206753Y0135211D01*
X0206566Y0135246D01*
X0206378Y0135275D01*
X0206189Y0135301D01*
X0206000Y0135321D01*
X0205810Y0135337D01*
X0205620Y0135349D01*
X0205430Y0135356D01*
X0205240Y0135358D01*
X0024138Y0135358D01*
X0023948Y0135356D01*
X0023758Y0135349D01*
X0023568Y0135337D01*
X0023378Y0135321D01*
X0023189Y0135301D01*
X0023000Y0135275D01*
X0022812Y0135246D01*
X0022625Y0135211D01*
X0022439Y0135172D01*
X0022254Y0135129D01*
X0022069Y0135081D01*
X0021886Y0135029D01*
X0021705Y0134973D01*
X0021525Y0134912D01*
X0021346Y0134846D01*
X0021169Y0134777D01*
X0020993Y0134703D01*
X0020820Y0134625D01*
X0020648Y0134542D01*
X0020479Y0134456D01*
X0020311Y0134366D01*
X0020146Y0134271D01*
X0019983Y0134173D01*
X0019823Y0134070D01*
X0019665Y0133964D01*
X0019510Y0133854D01*
X0019357Y0133741D01*
X0019207Y0133623D01*
X0019061Y0133502D01*
X0018917Y0133378D01*
X0018776Y0133250D01*
X0018638Y0133119D01*
X0018503Y0132984D01*
X0018372Y0132846D01*
X0018244Y0132705D01*
X0018120Y0132561D01*
X0017999Y0132415D01*
X0017881Y0132265D01*
X0017768Y0132112D01*
X0017658Y0131957D01*
X0017552Y0131799D01*
X0017449Y0131639D01*
X0017351Y0131476D01*
X0017256Y0131311D01*
X0017166Y0131143D01*
X0017080Y0130974D01*
X0016997Y0130802D01*
X0016919Y0130629D01*
X0016845Y0130453D01*
X0016776Y0130276D01*
X0016710Y0130097D01*
X0016649Y0129917D01*
X0016593Y0129736D01*
X0016541Y0129553D01*
X0016493Y0129368D01*
X0016450Y0129183D01*
X0016411Y0128997D01*
X0016376Y0128810D01*
X0016347Y0128622D01*
X0016321Y0128433D01*
X0016301Y0128244D01*
X0016285Y0128054D01*
X0016273Y0127864D01*
X0016266Y0127674D01*
X0016264Y0127484D01*
X0016264Y0025122D01*
X0016266Y0024932D01*
X0016273Y0024742D01*
X0016285Y0024552D01*
X0016301Y0024362D01*
X0016321Y0024173D01*
X0016347Y0023984D01*
X0016376Y0023796D01*
X0016411Y0023609D01*
X0016450Y0023423D01*
X0016493Y0023238D01*
X0016541Y0023053D01*
X0016593Y0022870D01*
X0016649Y0022689D01*
X0016710Y0022509D01*
X0016776Y0022330D01*
X0016845Y0022153D01*
X0016919Y0021977D01*
X0016997Y0021804D01*
X0017080Y0021632D01*
X0017166Y0021463D01*
X0017256Y0021295D01*
X0017351Y0021130D01*
X0017449Y0020967D01*
X0017552Y0020807D01*
X0017658Y0020649D01*
X0017768Y0020494D01*
X0017881Y0020341D01*
X0017999Y0020191D01*
X0018120Y0020045D01*
X0018244Y0019901D01*
X0018372Y0019760D01*
X0018503Y0019622D01*
X0018638Y0019487D01*
X0018776Y0019356D01*
X0018917Y0019228D01*
X0019061Y0019104D01*
X0019207Y0018983D01*
X0019357Y0018865D01*
X0019510Y0018752D01*
X0019665Y0018642D01*
X0019823Y0018536D01*
X0019983Y0018433D01*
X0020146Y0018335D01*
X0020311Y0018240D01*
X0020479Y0018150D01*
X0020648Y0018064D01*
X0020820Y0017981D01*
X0020993Y0017903D01*
X0021169Y0017829D01*
X0021346Y0017760D01*
X0021525Y0017694D01*
X0021705Y0017633D01*
X0021886Y0017577D01*
X0022069Y0017525D01*
X0022254Y0017477D01*
X0022439Y0017434D01*
X0022625Y0017395D01*
X0022812Y0017360D01*
X0023000Y0017331D01*
X0023189Y0017305D01*
X0023378Y0017285D01*
X0023568Y0017269D01*
X0023758Y0017257D01*
X0023948Y0017250D01*
X0024138Y0017248D01*
D11*
X0198685Y0049492D03*
X0203685Y0049492D03*
X0203685Y0054492D03*
X0198685Y0054492D03*
X0198685Y0059492D03*
X0203685Y0059492D03*
X0203685Y0064492D03*
X0198685Y0064492D03*
X0198685Y0069492D03*
X0203685Y0069492D03*
D12*
X0195634Y0027091D03*
X0185634Y0027091D03*
X0175634Y0027091D03*
X0165634Y0027091D03*
X0026106Y0035870D03*
X0026106Y0045870D03*
X0025122Y0099846D03*
X0025122Y0109846D03*
X0054689Y0127484D03*
X0064689Y0127484D03*
X0074689Y0127484D03*
X0084689Y0127484D03*
X0094689Y0127484D03*
X0104689Y0127484D03*
X0114689Y0127484D03*
X0124689Y0127484D03*
X0134689Y0127484D03*
X0144689Y0127484D03*
X0154689Y0127484D03*
X0164689Y0127484D03*
X0174689Y0127484D03*
D13*
X0170588Y0129081D02*
X0168790Y0129081D01*
X0169089Y0128359D02*
X0168419Y0129977D01*
X0167181Y0131214D01*
X0165564Y0131884D01*
X0163814Y0131884D01*
X0162197Y0131214D01*
X0160959Y0129977D01*
X0160289Y0128359D01*
X0160289Y0126609D01*
X0160959Y0124992D01*
X0162197Y0123754D01*
X0163814Y0123084D01*
X0165564Y0123084D01*
X0166249Y0123368D01*
X0165922Y0123041D01*
X0158797Y0123041D01*
X0157632Y0124205D01*
X0158419Y0124992D01*
X0159089Y0126609D01*
X0159089Y0128359D01*
X0158419Y0129977D01*
X0157181Y0131214D01*
X0155564Y0131884D01*
X0153814Y0131884D01*
X0152197Y0131214D01*
X0150959Y0129977D01*
X0150289Y0128359D01*
X0150289Y0126609D01*
X0150959Y0124992D01*
X0152197Y0123754D01*
X0153814Y0123084D01*
X0154228Y0123084D01*
X0157471Y0119841D01*
X0165922Y0119841D01*
X0166711Y0119052D01*
X0168690Y0119052D01*
X0170090Y0120451D01*
X0170090Y0122430D01*
X0168690Y0123830D01*
X0167257Y0123830D01*
X0168419Y0124992D01*
X0169089Y0126609D01*
X0169089Y0128359D01*
X0169089Y0128083D02*
X0170289Y0128083D01*
X0170289Y0128359D02*
X0170289Y0126609D01*
X0170959Y0124992D01*
X0172197Y0123754D01*
X0173814Y0123084D01*
X0175564Y0123084D01*
X0177181Y0123754D01*
X0178419Y0124992D01*
X0179089Y0126609D01*
X0179089Y0128359D01*
X0178419Y0129977D01*
X0177181Y0131214D01*
X0175564Y0131884D01*
X0173814Y0131884D01*
X0172197Y0131214D01*
X0170959Y0129977D01*
X0170289Y0128359D01*
X0170289Y0127084D02*
X0169089Y0127084D01*
X0168872Y0126086D02*
X0170506Y0126086D01*
X0170919Y0125087D02*
X0168459Y0125087D01*
X0167516Y0124089D02*
X0171862Y0124089D01*
X0173799Y0123090D02*
X0169430Y0123090D01*
X0170090Y0122092D02*
X0211614Y0122092D01*
X0211614Y0123090D02*
X0175579Y0123090D01*
X0177516Y0124089D02*
X0211614Y0124089D01*
X0211614Y0125087D02*
X0178459Y0125087D01*
X0178872Y0126086D02*
X0211614Y0126086D01*
X0211614Y0127084D02*
X0179089Y0127084D01*
X0179089Y0128083D02*
X0211567Y0128083D01*
X0211536Y0128481D02*
X0211614Y0127484D01*
X0211614Y0025122D01*
X0211536Y0024125D01*
X0210919Y0022228D01*
X0209747Y0020615D01*
X0208134Y0019443D01*
X0206237Y0018826D01*
X0205240Y0018748D01*
X0024138Y0018748D01*
X0023141Y0018826D01*
X0021244Y0019443D01*
X0019631Y0020615D01*
X0018458Y0022228D01*
X0017842Y0024125D01*
X0017764Y0025122D01*
X0017764Y0025743D01*
X0017764Y0127484D01*
X0017842Y0128481D01*
X0018458Y0130378D01*
X0019631Y0131991D01*
X0021244Y0133164D01*
X0023141Y0133780D01*
X0024138Y0133858D01*
X0205240Y0133858D01*
X0206237Y0133780D01*
X0208134Y0133164D01*
X0209747Y0131991D01*
X0210919Y0130378D01*
X0211536Y0128481D01*
X0211341Y0129081D02*
X0178790Y0129081D01*
X0178316Y0130080D02*
X0211016Y0130080D01*
X0210411Y0131078D02*
X0177317Y0131078D01*
X0172061Y0131078D02*
X0167317Y0131078D01*
X0168316Y0130080D02*
X0171062Y0130080D01*
X0165972Y0123090D02*
X0165579Y0123090D01*
X0163799Y0123090D02*
X0158747Y0123090D01*
X0157749Y0124089D02*
X0161862Y0124089D01*
X0160919Y0125087D02*
X0158459Y0125087D01*
X0158872Y0126086D02*
X0160506Y0126086D01*
X0160289Y0127084D02*
X0159089Y0127084D01*
X0159089Y0128083D02*
X0160289Y0128083D01*
X0160588Y0129081D02*
X0158790Y0129081D01*
X0158316Y0130080D02*
X0161062Y0130080D01*
X0162061Y0131078D02*
X0157317Y0131078D01*
X0154689Y0127484D02*
X0154689Y0124886D01*
X0158134Y0121441D01*
X0167701Y0121441D01*
X0170090Y0121093D02*
X0211614Y0121093D01*
X0211614Y0120095D02*
X0169733Y0120095D01*
X0168735Y0119096D02*
X0211614Y0119096D01*
X0211614Y0118098D02*
X0098204Y0118098D01*
X0098204Y0119096D02*
X0166667Y0119096D01*
X0157217Y0120095D02*
X0102672Y0120095D01*
X0102556Y0119979D02*
X0105352Y0122774D01*
X0105731Y0123153D01*
X0107181Y0123754D01*
X0108419Y0124992D01*
X0109089Y0126609D01*
X0109089Y0128359D01*
X0108419Y0129977D01*
X0107181Y0131214D01*
X0105564Y0131884D01*
X0103814Y0131884D01*
X0102197Y0131214D01*
X0100959Y0129977D01*
X0100289Y0128359D01*
X0100289Y0126609D01*
X0100959Y0124992D01*
X0102001Y0123949D01*
X0101231Y0123179D01*
X0097294Y0123179D01*
X0096604Y0122489D01*
X0096604Y0123515D01*
X0097181Y0123754D01*
X0098419Y0124992D01*
X0099089Y0126609D01*
X0099089Y0128359D01*
X0098419Y0129977D01*
X0097181Y0131214D01*
X0095564Y0131884D01*
X0093814Y0131884D01*
X0092197Y0131214D01*
X0090959Y0129977D01*
X0090289Y0128359D01*
X0090289Y0126609D01*
X0090959Y0124992D01*
X0092197Y0123754D01*
X0093404Y0123254D01*
X0093404Y0114499D01*
X0092615Y0113710D01*
X0092615Y0111731D01*
X0093168Y0111178D01*
X0093162Y0111172D01*
X0092046Y0111172D01*
X0090646Y0109773D01*
X0090646Y0107794D01*
X0092046Y0106394D01*
X0094025Y0106394D01*
X0095424Y0107794D01*
X0095424Y0108531D01*
X0096739Y0108531D01*
X0099193Y0110985D01*
X0099193Y0114456D01*
X0098204Y0115445D01*
X0098204Y0119563D01*
X0098619Y0119979D01*
X0102556Y0119979D01*
X0103671Y0121093D02*
X0156219Y0121093D01*
X0155220Y0122092D02*
X0104669Y0122092D01*
X0105668Y0123090D02*
X0113799Y0123090D01*
X0113814Y0123084D02*
X0115564Y0123084D01*
X0117181Y0123754D01*
X0118419Y0124992D01*
X0119089Y0126609D01*
X0119089Y0128359D01*
X0118419Y0129977D01*
X0117181Y0131214D01*
X0115564Y0131884D01*
X0113814Y0131884D01*
X0112197Y0131214D01*
X0110959Y0129977D01*
X0110289Y0128359D01*
X0110289Y0126609D01*
X0110959Y0124992D01*
X0112197Y0123754D01*
X0113814Y0123084D01*
X0115579Y0123090D02*
X0123799Y0123090D01*
X0123814Y0123084D02*
X0125564Y0123084D01*
X0127181Y0123754D01*
X0128419Y0124992D01*
X0129089Y0126609D01*
X0129089Y0128359D01*
X0128419Y0129977D01*
X0127181Y0131214D01*
X0125564Y0131884D01*
X0123814Y0131884D01*
X0122197Y0131214D01*
X0120959Y0129977D01*
X0120289Y0128359D01*
X0120289Y0126609D01*
X0120959Y0124992D01*
X0122197Y0123754D01*
X0123814Y0123084D01*
X0125579Y0123090D02*
X0133799Y0123090D01*
X0133814Y0123084D02*
X0135564Y0123084D01*
X0137181Y0123754D01*
X0138419Y0124992D01*
X0139089Y0126609D01*
X0139089Y0128359D01*
X0138419Y0129977D01*
X0137181Y0131214D01*
X0135564Y0131884D01*
X0133814Y0131884D01*
X0132197Y0131214D01*
X0130959Y0129977D01*
X0130289Y0128359D01*
X0130289Y0126609D01*
X0130959Y0124992D01*
X0132197Y0123754D01*
X0133814Y0123084D01*
X0135579Y0123090D02*
X0143799Y0123090D01*
X0143814Y0123084D02*
X0145564Y0123084D01*
X0147181Y0123754D01*
X0148419Y0124992D01*
X0149089Y0126609D01*
X0149089Y0128359D01*
X0148419Y0129977D01*
X0147181Y0131214D01*
X0145564Y0131884D01*
X0143814Y0131884D01*
X0142197Y0131214D01*
X0140959Y0129977D01*
X0140289Y0128359D01*
X0140289Y0126609D01*
X0140959Y0124992D01*
X0142197Y0123754D01*
X0143814Y0123084D01*
X0145579Y0123090D02*
X0153799Y0123090D01*
X0151862Y0124089D02*
X0147516Y0124089D01*
X0148459Y0125087D02*
X0150919Y0125087D01*
X0150506Y0126086D02*
X0148872Y0126086D01*
X0149089Y0127084D02*
X0150289Y0127084D01*
X0150289Y0128083D02*
X0149089Y0128083D01*
X0148790Y0129081D02*
X0150588Y0129081D01*
X0151062Y0130080D02*
X0148316Y0130080D01*
X0147317Y0131078D02*
X0152061Y0131078D01*
X0142061Y0131078D02*
X0137317Y0131078D01*
X0138316Y0130080D02*
X0141062Y0130080D01*
X0140588Y0129081D02*
X0138790Y0129081D01*
X0139089Y0128083D02*
X0140289Y0128083D01*
X0140289Y0127084D02*
X0139089Y0127084D01*
X0138872Y0126086D02*
X0140506Y0126086D01*
X0140919Y0125087D02*
X0138459Y0125087D01*
X0137516Y0124089D02*
X0141862Y0124089D01*
X0131862Y0124089D02*
X0127516Y0124089D01*
X0128459Y0125087D02*
X0130919Y0125087D01*
X0130506Y0126086D02*
X0128872Y0126086D01*
X0129089Y0127084D02*
X0130289Y0127084D01*
X0130289Y0128083D02*
X0129089Y0128083D01*
X0128790Y0129081D02*
X0130588Y0129081D01*
X0131062Y0130080D02*
X0128316Y0130080D01*
X0127317Y0131078D02*
X0132061Y0131078D01*
X0122061Y0131078D02*
X0117317Y0131078D01*
X0118316Y0130080D02*
X0121062Y0130080D01*
X0120588Y0129081D02*
X0118790Y0129081D01*
X0119089Y0128083D02*
X0120289Y0128083D01*
X0120289Y0127084D02*
X0119089Y0127084D01*
X0118872Y0126086D02*
X0120506Y0126086D01*
X0120919Y0125087D02*
X0118459Y0125087D01*
X0117516Y0124089D02*
X0121862Y0124089D01*
X0111862Y0124089D02*
X0107516Y0124089D01*
X0108459Y0125087D02*
X0110919Y0125087D01*
X0110506Y0126086D02*
X0108872Y0126086D01*
X0109089Y0127084D02*
X0110289Y0127084D01*
X0110289Y0128083D02*
X0109089Y0128083D01*
X0108790Y0129081D02*
X0110588Y0129081D01*
X0111062Y0130080D02*
X0108316Y0130080D01*
X0107317Y0131078D02*
X0112061Y0131078D01*
X0104689Y0127484D02*
X0104689Y0124374D01*
X0101894Y0121579D01*
X0097957Y0121579D01*
X0096604Y0120226D01*
X0096604Y0114782D01*
X0097593Y0113793D01*
X0097593Y0111648D01*
X0096076Y0110131D01*
X0094383Y0110131D01*
X0093035Y0108783D01*
X0091326Y0107114D02*
X0028612Y0107114D01*
X0028852Y0107354D02*
X0029522Y0108971D01*
X0029522Y0110722D01*
X0028852Y0112339D01*
X0027614Y0113577D01*
X0025997Y0114246D01*
X0024247Y0114246D01*
X0022630Y0113577D01*
X0021392Y0112339D01*
X0020722Y0110722D01*
X0020722Y0108971D01*
X0021392Y0107354D01*
X0022630Y0106116D01*
X0024247Y0105446D01*
X0025997Y0105446D01*
X0027614Y0106116D01*
X0028852Y0107354D01*
X0029166Y0108113D02*
X0090646Y0108113D01*
X0090646Y0109111D02*
X0029522Y0109111D01*
X0029522Y0110110D02*
X0090983Y0110110D01*
X0091982Y0111108D02*
X0029362Y0111108D01*
X0028948Y0112107D02*
X0092615Y0112107D01*
X0092615Y0113105D02*
X0028086Y0113105D01*
X0026342Y0114104D02*
X0093009Y0114104D01*
X0093404Y0115102D02*
X0017764Y0115102D01*
X0017764Y0114104D02*
X0023902Y0114104D01*
X0022158Y0113105D02*
X0017764Y0113105D01*
X0017764Y0112107D02*
X0021296Y0112107D01*
X0020882Y0111108D02*
X0017764Y0111108D01*
X0017764Y0110110D02*
X0020722Y0110110D01*
X0020722Y0109111D02*
X0017764Y0109111D01*
X0017764Y0108113D02*
X0021078Y0108113D01*
X0021632Y0107114D02*
X0017764Y0107114D01*
X0017764Y0106116D02*
X0022632Y0106116D01*
X0023279Y0104295D02*
X0023998Y0104528D01*
X0024638Y0104630D01*
X0024638Y0100331D01*
X0025606Y0100331D01*
X0025606Y0104630D01*
X0026246Y0104528D01*
X0026965Y0104295D01*
X0027638Y0103952D01*
X0028249Y0103508D01*
X0028783Y0102973D01*
X0029227Y0102362D01*
X0029570Y0101689D01*
X0029804Y0100970D01*
X0029905Y0100331D01*
X0025606Y0100331D01*
X0025606Y0099362D01*
X0025606Y0095063D01*
X0026246Y0095165D01*
X0026965Y0095398D01*
X0027638Y0095741D01*
X0028249Y0096185D01*
X0028783Y0096719D01*
X0029227Y0097331D01*
X0029570Y0098004D01*
X0029804Y0098722D01*
X0029905Y0099362D01*
X0025606Y0099362D01*
X0024638Y0099362D01*
X0024638Y0095063D01*
X0023998Y0095165D01*
X0023279Y0095398D01*
X0022606Y0095741D01*
X0021995Y0096185D01*
X0021461Y0096719D01*
X0021017Y0097331D01*
X0020674Y0098004D01*
X0020440Y0098722D01*
X0020339Y0099362D01*
X0024638Y0099362D01*
X0024638Y0100331D01*
X0020339Y0100331D01*
X0020440Y0100970D01*
X0020674Y0101689D01*
X0021017Y0102362D01*
X0021461Y0102973D01*
X0021995Y0103508D01*
X0022606Y0103952D01*
X0023279Y0104295D01*
X0022934Y0104119D02*
X0017764Y0104119D01*
X0017764Y0105117D02*
X0211614Y0105117D01*
X0211614Y0104119D02*
X0183066Y0104119D01*
X0183686Y0103499D02*
X0182286Y0104898D01*
X0178982Y0104898D01*
X0178193Y0104109D01*
X0136986Y0104109D01*
X0136048Y0103172D01*
X0134548Y0101672D01*
X0122047Y0101672D01*
X0121110Y0100735D01*
X0119979Y0099604D01*
X0119979Y0097767D01*
X0119190Y0096978D01*
X0119190Y0094999D01*
X0119979Y0094210D01*
X0119979Y0074145D01*
X0119190Y0073356D01*
X0119190Y0071377D01*
X0119742Y0070824D01*
X0118579Y0069661D01*
X0085208Y0069661D01*
X0084598Y0070271D01*
X0084598Y0071387D01*
X0083198Y0072787D01*
X0081219Y0072787D01*
X0079820Y0071387D01*
X0079820Y0070271D01*
X0079204Y0069656D01*
X0079204Y0063824D01*
X0080141Y0062887D01*
X0080141Y0062887D01*
X0081167Y0061861D01*
X0082104Y0060924D01*
X0088436Y0060924D01*
X0091435Y0057924D01*
X0091435Y0040680D01*
X0090646Y0039891D01*
X0090646Y0037912D01*
X0092046Y0036513D01*
X0094025Y0036513D01*
X0095424Y0037912D01*
X0095424Y0039891D01*
X0094635Y0040680D01*
X0094635Y0059249D01*
X0093698Y0060187D01*
X0089761Y0064124D01*
X0085219Y0064124D01*
X0085582Y0064487D01*
X0085582Y0064861D01*
X0127427Y0064861D01*
X0127064Y0064497D01*
X0127064Y0062518D01*
X0127853Y0061729D01*
X0127853Y0036270D01*
X0130806Y0033318D01*
X0131743Y0032380D01*
X0173081Y0032380D01*
X0174034Y0031428D01*
X0174034Y0031190D01*
X0173141Y0030821D01*
X0171904Y0029583D01*
X0171234Y0027966D01*
X0171234Y0026215D01*
X0171904Y0024598D01*
X0173141Y0023360D01*
X0174759Y0022691D01*
X0176509Y0022691D01*
X0178126Y0023360D01*
X0179364Y0024598D01*
X0180034Y0026215D01*
X0180034Y0027966D01*
X0179364Y0029583D01*
X0178126Y0030821D01*
X0177234Y0031190D01*
X0177234Y0032753D01*
X0176297Y0033691D01*
X0175344Y0034643D01*
X0175344Y0034643D01*
X0174407Y0035580D01*
X0133068Y0035580D01*
X0131053Y0037596D01*
X0131053Y0061729D01*
X0131842Y0062518D01*
X0131842Y0064497D01*
X0131478Y0064861D01*
X0133333Y0064861D01*
X0132969Y0064497D01*
X0132969Y0062518D01*
X0133758Y0061729D01*
X0133758Y0052491D01*
X0132969Y0051702D01*
X0132969Y0049723D01*
X0134369Y0048324D01*
X0136348Y0048324D01*
X0137747Y0049723D01*
X0137747Y0051702D01*
X0136958Y0052491D01*
X0136958Y0061729D01*
X0137747Y0062518D01*
X0137747Y0064497D01*
X0137384Y0064861D01*
X0163580Y0064861D01*
X0164517Y0065798D01*
X0164886Y0066166D01*
X0164886Y0053371D01*
X0170365Y0047892D01*
X0195992Y0047892D01*
X0196057Y0047736D01*
X0196929Y0046864D01*
X0198068Y0046392D01*
X0199302Y0046392D01*
X0200441Y0046864D01*
X0201185Y0047608D01*
X0201929Y0046864D01*
X0203068Y0046392D01*
X0204302Y0046392D01*
X0205441Y0046864D01*
X0206313Y0047736D01*
X0206785Y0048875D01*
X0206785Y0050109D01*
X0206313Y0051248D01*
X0205839Y0051722D01*
X0205916Y0051773D01*
X0206404Y0052261D01*
X0206787Y0052834D01*
X0207051Y0053471D01*
X0207185Y0054147D01*
X0207185Y0054492D01*
X0203685Y0054492D01*
X0203685Y0054492D01*
X0207185Y0054492D01*
X0207185Y0054837D01*
X0207051Y0055513D01*
X0206787Y0056150D01*
X0206404Y0056723D01*
X0206135Y0056992D01*
X0206404Y0057261D01*
X0206787Y0057834D01*
X0207051Y0058471D01*
X0207185Y0059147D01*
X0207185Y0059492D01*
X0203685Y0059492D01*
X0203685Y0059492D01*
X0203685Y0057992D01*
X0203685Y0054492D01*
X0203685Y0054492D01*
X0203685Y0059492D01*
X0203685Y0059492D01*
X0207185Y0059492D01*
X0207185Y0059837D01*
X0207051Y0060513D01*
X0206787Y0061150D01*
X0206404Y0061723D01*
X0205916Y0062211D01*
X0205839Y0062262D01*
X0206313Y0062736D01*
X0206785Y0063875D01*
X0206785Y0065109D01*
X0206313Y0066248D01*
X0205839Y0066722D01*
X0205916Y0066773D01*
X0206404Y0067261D01*
X0206787Y0067834D01*
X0207051Y0068471D01*
X0207185Y0069147D01*
X0207185Y0069492D01*
X0203685Y0069492D01*
X0203685Y0069492D01*
X0207185Y0069492D01*
X0207185Y0069837D01*
X0207051Y0070513D01*
X0206787Y0071150D01*
X0206404Y0071723D01*
X0205916Y0072211D01*
X0205343Y0072594D01*
X0204706Y0072858D01*
X0204030Y0072992D01*
X0203685Y0072992D01*
X0203340Y0072992D01*
X0202664Y0072858D01*
X0202027Y0072594D01*
X0201454Y0072211D01*
X0200966Y0071723D01*
X0200915Y0071646D01*
X0200441Y0072120D01*
X0199302Y0072592D01*
X0198068Y0072592D01*
X0196929Y0072120D01*
X0196057Y0071248D01*
X0195585Y0070109D01*
X0195585Y0068875D01*
X0196057Y0067736D01*
X0196801Y0066992D01*
X0196057Y0066248D01*
X0195585Y0065109D01*
X0195585Y0063875D01*
X0196057Y0062736D01*
X0196801Y0061992D01*
X0196057Y0061248D01*
X0195585Y0060109D01*
X0195585Y0058875D01*
X0196057Y0057736D01*
X0196801Y0056992D01*
X0196057Y0056248D01*
X0195585Y0055109D01*
X0195585Y0053875D01*
X0195650Y0053719D01*
X0194622Y0052692D01*
X0179086Y0052692D01*
X0179086Y0054671D01*
X0177686Y0056070D01*
X0175707Y0056070D01*
X0174308Y0054671D01*
X0174308Y0054292D01*
X0173016Y0054292D01*
X0171286Y0056022D01*
X0171286Y0078159D01*
X0172275Y0079148D01*
X0172275Y0085545D01*
X0171338Y0086482D01*
X0170675Y0087145D01*
X0170675Y0088819D01*
X0169738Y0089756D01*
X0169075Y0090419D01*
X0169075Y0092093D01*
X0168138Y0093031D01*
X0167275Y0093893D01*
X0167275Y0095009D01*
X0165875Y0096409D01*
X0163896Y0096409D01*
X0162497Y0095009D01*
X0162497Y0093030D01*
X0163476Y0092051D01*
X0162497Y0091072D01*
X0162497Y0089093D01*
X0163476Y0088114D01*
X0162497Y0087135D01*
X0162497Y0085156D01*
X0163476Y0084177D01*
X0162497Y0083198D01*
X0162497Y0081219D01*
X0163286Y0080430D01*
X0163286Y0069092D01*
X0162255Y0068061D01*
X0143290Y0068061D01*
X0143653Y0068424D01*
X0143653Y0070403D01*
X0142864Y0071192D01*
X0142864Y0093599D01*
X0143238Y0093599D01*
X0144637Y0094999D01*
X0144637Y0096978D01*
X0143238Y0098377D01*
X0141258Y0098377D01*
X0139859Y0096978D01*
X0139859Y0095862D01*
X0139664Y0095667D01*
X0139664Y0071192D01*
X0138875Y0070403D01*
X0138875Y0068424D01*
X0139238Y0068061D01*
X0121504Y0068061D01*
X0123179Y0069735D01*
X0123179Y0070588D01*
X0123968Y0071377D01*
X0123968Y0073356D01*
X0123179Y0074145D01*
X0123179Y0094210D01*
X0123968Y0094999D01*
X0123968Y0096978D01*
X0123179Y0097767D01*
X0123179Y0098278D01*
X0123373Y0098472D01*
X0133758Y0098472D01*
X0133758Y0083987D01*
X0132969Y0083198D01*
X0132969Y0081219D01*
X0134369Y0079820D01*
X0136348Y0079820D01*
X0137747Y0081219D01*
X0137747Y0083198D01*
X0136958Y0083987D01*
X0136958Y0097294D01*
X0138974Y0099309D01*
X0178855Y0099309D01*
X0179644Y0098520D01*
X0179919Y0098520D01*
X0175050Y0093651D01*
X0174113Y0092714D01*
X0174113Y0085956D01*
X0173324Y0085167D01*
X0173324Y0083188D01*
X0174723Y0081788D01*
X0176702Y0081788D01*
X0178102Y0083188D01*
X0178102Y0085167D01*
X0177313Y0085956D01*
X0177313Y0091388D01*
X0184623Y0098699D01*
X0184623Y0102562D01*
X0183686Y0103499D01*
X0184065Y0103120D02*
X0211614Y0103120D01*
X0211614Y0102121D02*
X0184623Y0102121D01*
X0184623Y0101123D02*
X0211614Y0101123D01*
X0211614Y0100124D02*
X0184623Y0100124D01*
X0184623Y0099126D02*
X0211614Y0099126D01*
X0211614Y0098127D02*
X0184052Y0098127D01*
X0183053Y0097129D02*
X0211614Y0097129D01*
X0211614Y0096130D02*
X0182055Y0096130D01*
X0181056Y0095132D02*
X0211614Y0095132D01*
X0211614Y0094133D02*
X0180058Y0094133D01*
X0179059Y0093135D02*
X0211614Y0093135D01*
X0211614Y0092136D02*
X0178061Y0092136D01*
X0177313Y0091138D02*
X0211614Y0091138D01*
X0211614Y0090139D02*
X0177313Y0090139D01*
X0177313Y0089141D02*
X0211614Y0089141D01*
X0211614Y0088142D02*
X0177313Y0088142D01*
X0177313Y0087144D02*
X0211614Y0087144D01*
X0211614Y0086145D02*
X0177313Y0086145D01*
X0178102Y0085147D02*
X0211614Y0085147D01*
X0211614Y0084148D02*
X0178102Y0084148D01*
X0178064Y0083150D02*
X0211614Y0083150D01*
X0211614Y0082151D02*
X0177065Y0082151D01*
X0175713Y0084177D02*
X0175713Y0092051D01*
X0183023Y0099361D01*
X0183023Y0101899D01*
X0181623Y0103298D01*
X0179644Y0103298D01*
X0178855Y0102509D01*
X0137648Y0102509D01*
X0135211Y0100072D01*
X0122710Y0100072D01*
X0121579Y0098941D01*
X0121579Y0095988D01*
X0121579Y0072366D01*
X0121579Y0070398D01*
X0119242Y0068061D01*
X0084546Y0068061D01*
X0082209Y0070398D01*
X0080804Y0068993D01*
X0080804Y0064487D01*
X0082767Y0062524D01*
X0089098Y0062524D01*
X0093035Y0058587D01*
X0093035Y0038902D01*
X0091340Y0037218D02*
X0030715Y0037218D01*
X0030788Y0036994D02*
X0030555Y0037713D01*
X0030212Y0038386D01*
X0029768Y0038997D01*
X0029233Y0039531D01*
X0028622Y0039975D01*
X0027949Y0040318D01*
X0027230Y0040552D01*
X0026591Y0040653D01*
X0026591Y0036354D01*
X0030889Y0036354D01*
X0030788Y0036994D01*
X0030298Y0038217D02*
X0090646Y0038217D01*
X0090646Y0039215D02*
X0029549Y0039215D01*
X0028154Y0040214D02*
X0090969Y0040214D01*
X0091435Y0041212D02*
X0017764Y0041212D01*
X0017764Y0040214D02*
X0024058Y0040214D01*
X0024264Y0040318D02*
X0023591Y0039975D01*
X0022979Y0039531D01*
X0022445Y0038997D01*
X0022001Y0038386D01*
X0021658Y0037713D01*
X0021424Y0036994D01*
X0021323Y0036354D01*
X0025622Y0036354D01*
X0025622Y0035386D01*
X0021323Y0035386D01*
X0021424Y0034746D01*
X0021658Y0034028D01*
X0022001Y0033354D01*
X0022445Y0032743D01*
X0022979Y0032209D01*
X0023591Y0031765D01*
X0024264Y0031422D01*
X0024982Y0031188D01*
X0025622Y0031087D01*
X0025622Y0035386D01*
X0026591Y0035386D01*
X0026591Y0036354D01*
X0025622Y0036354D01*
X0025622Y0040653D01*
X0024982Y0040552D01*
X0024264Y0040318D01*
X0025622Y0040214D02*
X0026591Y0040214D01*
X0026591Y0039215D02*
X0025622Y0039215D01*
X0025622Y0038217D02*
X0026591Y0038217D01*
X0026591Y0037218D02*
X0025622Y0037218D01*
X0025622Y0036220D02*
X0017764Y0036220D01*
X0017764Y0037218D02*
X0021497Y0037218D01*
X0021915Y0038217D02*
X0017764Y0038217D01*
X0017764Y0039215D02*
X0022663Y0039215D01*
X0023614Y0042140D02*
X0025231Y0041470D01*
X0026982Y0041470D01*
X0028599Y0042140D01*
X0029836Y0043378D01*
X0030506Y0044995D01*
X0030506Y0046745D01*
X0029836Y0048362D01*
X0028599Y0049600D01*
X0026982Y0050270D01*
X0025231Y0050270D01*
X0023614Y0049600D01*
X0022376Y0048362D01*
X0021706Y0046745D01*
X0021706Y0044995D01*
X0022376Y0043378D01*
X0023614Y0042140D01*
X0023543Y0042211D02*
X0017764Y0042211D01*
X0017764Y0043209D02*
X0022545Y0043209D01*
X0022032Y0044208D02*
X0017764Y0044208D01*
X0017764Y0045206D02*
X0021706Y0045206D01*
X0021706Y0046205D02*
X0017764Y0046205D01*
X0017764Y0047203D02*
X0021896Y0047203D01*
X0022310Y0048202D02*
X0017764Y0048202D01*
X0017764Y0049200D02*
X0023214Y0049200D01*
X0025059Y0050199D02*
X0017764Y0050199D01*
X0017764Y0051197D02*
X0091435Y0051197D01*
X0091435Y0050199D02*
X0027153Y0050199D01*
X0028999Y0049200D02*
X0091435Y0049200D01*
X0091435Y0048202D02*
X0029903Y0048202D01*
X0030317Y0047203D02*
X0091435Y0047203D01*
X0091435Y0046205D02*
X0030506Y0046205D01*
X0030506Y0045206D02*
X0091435Y0045206D01*
X0091435Y0044208D02*
X0030180Y0044208D01*
X0029668Y0043209D02*
X0091435Y0043209D01*
X0091435Y0042211D02*
X0028670Y0042211D01*
X0026591Y0036220D02*
X0127903Y0036220D01*
X0127853Y0037218D02*
X0094731Y0037218D01*
X0095424Y0038217D02*
X0127853Y0038217D01*
X0127853Y0039215D02*
X0095424Y0039215D01*
X0095102Y0040214D02*
X0127853Y0040214D01*
X0127853Y0041212D02*
X0094635Y0041212D01*
X0094635Y0042211D02*
X0127853Y0042211D01*
X0127853Y0043209D02*
X0094635Y0043209D01*
X0094635Y0044208D02*
X0127853Y0044208D01*
X0127853Y0045206D02*
X0094635Y0045206D01*
X0094635Y0046205D02*
X0127853Y0046205D01*
X0127853Y0047203D02*
X0094635Y0047203D01*
X0094635Y0048202D02*
X0127853Y0048202D01*
X0127853Y0049200D02*
X0094635Y0049200D01*
X0094635Y0050199D02*
X0127853Y0050199D01*
X0127853Y0051197D02*
X0094635Y0051197D01*
X0094635Y0052196D02*
X0127853Y0052196D01*
X0127853Y0053194D02*
X0094635Y0053194D01*
X0094635Y0054193D02*
X0127853Y0054193D01*
X0127853Y0055191D02*
X0094635Y0055191D01*
X0094635Y0056190D02*
X0127853Y0056190D01*
X0127853Y0057188D02*
X0094635Y0057188D01*
X0094635Y0058187D02*
X0127853Y0058187D01*
X0127853Y0059186D02*
X0094635Y0059186D01*
X0093701Y0060184D02*
X0127853Y0060184D01*
X0127853Y0061183D02*
X0092702Y0061183D01*
X0091704Y0062181D02*
X0127401Y0062181D01*
X0127064Y0063180D02*
X0090705Y0063180D01*
X0089175Y0060184D02*
X0017764Y0060184D01*
X0017764Y0059186D02*
X0090174Y0059186D01*
X0091172Y0058187D02*
X0017764Y0058187D01*
X0017764Y0057188D02*
X0091435Y0057188D01*
X0091435Y0056190D02*
X0017764Y0056190D01*
X0017764Y0055191D02*
X0091435Y0055191D01*
X0091435Y0054193D02*
X0017764Y0054193D01*
X0017764Y0053194D02*
X0091435Y0053194D01*
X0091435Y0052196D02*
X0017764Y0052196D01*
X0017764Y0061183D02*
X0081845Y0061183D01*
X0080847Y0062181D02*
X0017764Y0062181D01*
X0017764Y0063180D02*
X0079848Y0063180D01*
X0079204Y0064178D02*
X0017764Y0064178D01*
X0017764Y0065177D02*
X0079204Y0065177D01*
X0079204Y0066175D02*
X0017764Y0066175D01*
X0017764Y0067174D02*
X0079204Y0067174D01*
X0079204Y0068172D02*
X0017764Y0068172D01*
X0017764Y0069171D02*
X0079204Y0069171D01*
X0079717Y0070169D02*
X0017764Y0070169D01*
X0017764Y0071168D02*
X0079820Y0071168D01*
X0080599Y0072166D02*
X0017764Y0072166D01*
X0017764Y0073165D02*
X0119190Y0073165D01*
X0119190Y0072166D02*
X0083819Y0072166D01*
X0084598Y0071168D02*
X0119399Y0071168D01*
X0119088Y0070169D02*
X0084700Y0070169D01*
X0084177Y0066461D02*
X0083193Y0065476D01*
X0084177Y0066461D02*
X0162917Y0066461D01*
X0164886Y0068429D01*
X0164886Y0082209D01*
X0162497Y0082151D02*
X0142864Y0082151D01*
X0142864Y0081153D02*
X0162563Y0081153D01*
X0163286Y0080154D02*
X0142864Y0080154D01*
X0142864Y0079156D02*
X0163286Y0079156D01*
X0163286Y0078157D02*
X0142864Y0078157D01*
X0142864Y0077159D02*
X0163286Y0077159D01*
X0163286Y0076160D02*
X0142864Y0076160D01*
X0142864Y0075162D02*
X0163286Y0075162D01*
X0163286Y0074163D02*
X0142864Y0074163D01*
X0142864Y0073165D02*
X0163286Y0073165D01*
X0163286Y0072166D02*
X0142864Y0072166D01*
X0142888Y0071168D02*
X0163286Y0071168D01*
X0163286Y0070169D02*
X0143653Y0070169D01*
X0143653Y0069171D02*
X0163286Y0069171D01*
X0162366Y0068172D02*
X0143401Y0068172D01*
X0141264Y0069413D02*
X0141264Y0095004D01*
X0142248Y0095988D01*
X0139859Y0096130D02*
X0136958Y0096130D01*
X0136958Y0095132D02*
X0139664Y0095132D01*
X0139664Y0094133D02*
X0136958Y0094133D01*
X0136958Y0093135D02*
X0139664Y0093135D01*
X0139664Y0092136D02*
X0136958Y0092136D01*
X0136958Y0091138D02*
X0139664Y0091138D01*
X0139664Y0090139D02*
X0136958Y0090139D01*
X0136958Y0089141D02*
X0139664Y0089141D01*
X0139664Y0088142D02*
X0136958Y0088142D01*
X0136958Y0087144D02*
X0139664Y0087144D01*
X0139664Y0086145D02*
X0136958Y0086145D01*
X0136958Y0085147D02*
X0139664Y0085147D01*
X0139664Y0084148D02*
X0136958Y0084148D01*
X0137747Y0083150D02*
X0139664Y0083150D01*
X0139664Y0082151D02*
X0137747Y0082151D01*
X0137681Y0081153D02*
X0139664Y0081153D01*
X0139664Y0080154D02*
X0136682Y0080154D01*
X0135358Y0082209D02*
X0135358Y0097957D01*
X0138311Y0100909D01*
X0180634Y0100909D01*
X0179039Y0099126D02*
X0138790Y0099126D01*
X0137792Y0098127D02*
X0141009Y0098127D01*
X0140010Y0097129D02*
X0136958Y0097129D01*
X0133758Y0097129D02*
X0123816Y0097129D01*
X0123968Y0096130D02*
X0133758Y0096130D01*
X0133758Y0095132D02*
X0123968Y0095132D01*
X0123179Y0094133D02*
X0133758Y0094133D01*
X0133758Y0093135D02*
X0123179Y0093135D01*
X0123179Y0092136D02*
X0133758Y0092136D01*
X0133758Y0091138D02*
X0123179Y0091138D01*
X0123179Y0090139D02*
X0133758Y0090139D01*
X0133758Y0089141D02*
X0123179Y0089141D01*
X0123179Y0088142D02*
X0133758Y0088142D01*
X0133758Y0087144D02*
X0123179Y0087144D01*
X0123179Y0086145D02*
X0133758Y0086145D01*
X0133758Y0085147D02*
X0123179Y0085147D01*
X0123179Y0084148D02*
X0133758Y0084148D01*
X0132969Y0083150D02*
X0123179Y0083150D01*
X0123179Y0082151D02*
X0132969Y0082151D01*
X0133036Y0081153D02*
X0123179Y0081153D01*
X0123179Y0080154D02*
X0134034Y0080154D01*
X0139664Y0079156D02*
X0123179Y0079156D01*
X0123179Y0078157D02*
X0139664Y0078157D01*
X0139664Y0077159D02*
X0123179Y0077159D01*
X0123179Y0076160D02*
X0139664Y0076160D01*
X0139664Y0075162D02*
X0123179Y0075162D01*
X0123179Y0074163D02*
X0139664Y0074163D01*
X0139664Y0073165D02*
X0123968Y0073165D01*
X0123968Y0072166D02*
X0139664Y0072166D01*
X0139640Y0071168D02*
X0123759Y0071168D01*
X0123179Y0070169D02*
X0138875Y0070169D01*
X0138875Y0069171D02*
X0122614Y0069171D01*
X0121616Y0068172D02*
X0139127Y0068172D01*
X0137747Y0064178D02*
X0164886Y0064178D01*
X0164886Y0063180D02*
X0137747Y0063180D01*
X0137410Y0062181D02*
X0164886Y0062181D01*
X0164886Y0061183D02*
X0136958Y0061183D01*
X0136958Y0060184D02*
X0164886Y0060184D01*
X0164886Y0059186D02*
X0136958Y0059186D01*
X0136958Y0058187D02*
X0164886Y0058187D01*
X0164886Y0057188D02*
X0136958Y0057188D01*
X0136958Y0056190D02*
X0164886Y0056190D01*
X0164886Y0055191D02*
X0136958Y0055191D01*
X0136958Y0054193D02*
X0164886Y0054193D01*
X0165063Y0053194D02*
X0136958Y0053194D01*
X0137253Y0052196D02*
X0166061Y0052196D01*
X0167060Y0051197D02*
X0137747Y0051197D01*
X0137747Y0050199D02*
X0168058Y0050199D01*
X0169057Y0049200D02*
X0137225Y0049200D01*
X0135358Y0050713D02*
X0135358Y0063508D01*
X0132969Y0063180D02*
X0131842Y0063180D01*
X0131842Y0064178D02*
X0132969Y0064178D01*
X0133307Y0062181D02*
X0131504Y0062181D01*
X0131053Y0061183D02*
X0133758Y0061183D01*
X0133758Y0060184D02*
X0131053Y0060184D01*
X0131053Y0059186D02*
X0133758Y0059186D01*
X0133758Y0058187D02*
X0131053Y0058187D01*
X0131053Y0057188D02*
X0133758Y0057188D01*
X0133758Y0056190D02*
X0131053Y0056190D01*
X0131053Y0055191D02*
X0133758Y0055191D01*
X0133758Y0054193D02*
X0131053Y0054193D01*
X0131053Y0053194D02*
X0133758Y0053194D01*
X0133463Y0052196D02*
X0131053Y0052196D01*
X0131053Y0051197D02*
X0132969Y0051197D01*
X0132969Y0050199D02*
X0131053Y0050199D01*
X0131053Y0049200D02*
X0133492Y0049200D01*
X0131053Y0048202D02*
X0170055Y0048202D01*
X0171028Y0049492D02*
X0166486Y0054034D01*
X0166486Y0080147D01*
X0167475Y0081136D01*
X0167475Y0083557D01*
X0164886Y0086146D01*
X0162497Y0086145D02*
X0142864Y0086145D01*
X0142864Y0085147D02*
X0162506Y0085147D01*
X0163447Y0084148D02*
X0142864Y0084148D01*
X0142864Y0083150D02*
X0162497Y0083150D01*
X0162505Y0087144D02*
X0142864Y0087144D01*
X0142864Y0088142D02*
X0163448Y0088142D01*
X0162497Y0089141D02*
X0142864Y0089141D01*
X0142864Y0090139D02*
X0162497Y0090139D01*
X0162563Y0091138D02*
X0142864Y0091138D01*
X0142864Y0092136D02*
X0163391Y0092136D01*
X0162497Y0093135D02*
X0142864Y0093135D01*
X0143772Y0094133D02*
X0162497Y0094133D01*
X0162620Y0095132D02*
X0144637Y0095132D01*
X0144637Y0096130D02*
X0163618Y0096130D01*
X0164886Y0094020D02*
X0167475Y0091431D01*
X0167475Y0089756D01*
X0169075Y0088156D01*
X0169075Y0086482D01*
X0170675Y0084882D01*
X0170675Y0079811D01*
X0169686Y0078822D01*
X0169686Y0055359D01*
X0172353Y0052692D01*
X0175724Y0052692D01*
X0176697Y0053665D01*
X0176697Y0053681D01*
X0178565Y0055191D02*
X0195619Y0055191D01*
X0195585Y0054193D02*
X0179086Y0054193D01*
X0179086Y0053194D02*
X0195125Y0053194D01*
X0195285Y0051092D02*
X0171690Y0051092D01*
X0168086Y0054697D01*
X0168086Y0079485D01*
X0169075Y0080474D01*
X0169075Y0084219D01*
X0167475Y0085819D01*
X0167475Y0087494D01*
X0164886Y0090083D01*
X0169075Y0091138D02*
X0174113Y0091138D01*
X0174113Y0092136D02*
X0169032Y0092136D01*
X0168033Y0093135D02*
X0174534Y0093135D01*
X0175532Y0094133D02*
X0167275Y0094133D01*
X0167152Y0095132D02*
X0176531Y0095132D01*
X0177529Y0096130D02*
X0166154Y0096130D01*
X0169355Y0090139D02*
X0174113Y0090139D01*
X0174113Y0089141D02*
X0170353Y0089141D01*
X0170675Y0088142D02*
X0174113Y0088142D01*
X0174113Y0087144D02*
X0170676Y0087144D01*
X0171674Y0086145D02*
X0174113Y0086145D01*
X0173324Y0085147D02*
X0172275Y0085147D01*
X0172275Y0084148D02*
X0173324Y0084148D01*
X0173361Y0083150D02*
X0172275Y0083150D01*
X0172275Y0082151D02*
X0174360Y0082151D01*
X0172275Y0081153D02*
X0211614Y0081153D01*
X0211614Y0080154D02*
X0172275Y0080154D01*
X0172275Y0079156D02*
X0211614Y0079156D01*
X0211614Y0078157D02*
X0171286Y0078157D01*
X0171286Y0077159D02*
X0211614Y0077159D01*
X0211614Y0076160D02*
X0171286Y0076160D01*
X0171286Y0075162D02*
X0211614Y0075162D01*
X0211614Y0074163D02*
X0171286Y0074163D01*
X0171286Y0073165D02*
X0211614Y0073165D01*
X0211614Y0072166D02*
X0205961Y0072166D01*
X0206775Y0071168D02*
X0211614Y0071168D01*
X0211614Y0070169D02*
X0207119Y0070169D01*
X0207185Y0069171D02*
X0211614Y0069171D01*
X0211614Y0068172D02*
X0206927Y0068172D01*
X0206316Y0067174D02*
X0211614Y0067174D01*
X0211614Y0066175D02*
X0206343Y0066175D01*
X0206757Y0065177D02*
X0211614Y0065177D01*
X0211614Y0064178D02*
X0206785Y0064178D01*
X0206497Y0063180D02*
X0211614Y0063180D01*
X0211614Y0062181D02*
X0205946Y0062181D01*
X0206765Y0061183D02*
X0211614Y0061183D01*
X0211614Y0060184D02*
X0207116Y0060184D01*
X0207185Y0059186D02*
X0211614Y0059186D01*
X0211614Y0058187D02*
X0206933Y0058187D01*
X0206331Y0057188D02*
X0211614Y0057188D01*
X0211614Y0056190D02*
X0206760Y0056190D01*
X0207114Y0055191D02*
X0211614Y0055191D01*
X0211614Y0054193D02*
X0207185Y0054193D01*
X0206936Y0053194D02*
X0211614Y0053194D01*
X0211614Y0052196D02*
X0206339Y0052196D01*
X0206334Y0051197D02*
X0211614Y0051197D01*
X0211614Y0050199D02*
X0206748Y0050199D01*
X0206785Y0049200D02*
X0211614Y0049200D01*
X0211614Y0048202D02*
X0206506Y0048202D01*
X0205780Y0047203D02*
X0211614Y0047203D01*
X0211614Y0046205D02*
X0131053Y0046205D01*
X0131053Y0047203D02*
X0196590Y0047203D01*
X0198685Y0049492D02*
X0171028Y0049492D01*
X0172116Y0055191D02*
X0174829Y0055191D01*
X0171286Y0056190D02*
X0196033Y0056190D01*
X0196605Y0057188D02*
X0171286Y0057188D01*
X0171286Y0058187D02*
X0195870Y0058187D01*
X0195585Y0059186D02*
X0171286Y0059186D01*
X0171286Y0060184D02*
X0195616Y0060184D01*
X0196030Y0061183D02*
X0171286Y0061183D01*
X0171286Y0062181D02*
X0196612Y0062181D01*
X0195873Y0063180D02*
X0171286Y0063180D01*
X0171286Y0064178D02*
X0195585Y0064178D01*
X0195613Y0065177D02*
X0171286Y0065177D01*
X0171286Y0066175D02*
X0196027Y0066175D01*
X0196620Y0067174D02*
X0171286Y0067174D01*
X0171286Y0068172D02*
X0195876Y0068172D01*
X0195585Y0069171D02*
X0171286Y0069171D01*
X0171286Y0070169D02*
X0195610Y0070169D01*
X0196024Y0071168D02*
X0171286Y0071168D01*
X0171286Y0072166D02*
X0197040Y0072166D01*
X0200330Y0072166D02*
X0201409Y0072166D01*
X0203685Y0072166D02*
X0203685Y0072166D01*
X0203685Y0072992D02*
X0203685Y0069492D01*
X0203685Y0069492D01*
X0203685Y0072992D01*
X0203685Y0071168D02*
X0203685Y0071168D01*
X0203685Y0070169D02*
X0203685Y0070169D01*
X0203685Y0059186D02*
X0203685Y0059186D01*
X0203685Y0058187D02*
X0203685Y0058187D01*
X0203685Y0057188D02*
X0203685Y0057188D01*
X0203685Y0056190D02*
X0203685Y0056190D01*
X0203685Y0055191D02*
X0203685Y0055191D01*
X0198685Y0054492D02*
X0195285Y0051092D01*
X0200780Y0047203D02*
X0201590Y0047203D01*
X0211614Y0045206D02*
X0131053Y0045206D01*
X0131053Y0044208D02*
X0211614Y0044208D01*
X0211614Y0043209D02*
X0131053Y0043209D01*
X0131053Y0042211D02*
X0211614Y0042211D01*
X0211614Y0041212D02*
X0131053Y0041212D01*
X0131053Y0040214D02*
X0211614Y0040214D01*
X0211614Y0039215D02*
X0131053Y0039215D01*
X0131053Y0038217D02*
X0211614Y0038217D01*
X0211614Y0037218D02*
X0131430Y0037218D01*
X0132429Y0036220D02*
X0211614Y0036220D01*
X0211614Y0035221D02*
X0174766Y0035221D01*
X0175764Y0034223D02*
X0211614Y0034223D01*
X0211614Y0033224D02*
X0176763Y0033224D01*
X0177234Y0032226D02*
X0211614Y0032226D01*
X0211614Y0031227D02*
X0198088Y0031227D01*
X0198150Y0031196D02*
X0197476Y0031539D01*
X0196758Y0031772D01*
X0196118Y0031874D01*
X0196118Y0027575D01*
X0195150Y0027575D01*
X0195150Y0031874D01*
X0194510Y0031772D01*
X0193791Y0031539D01*
X0193118Y0031196D01*
X0192507Y0030752D01*
X0191973Y0030218D01*
X0191529Y0029606D01*
X0191186Y0028933D01*
X0190952Y0028215D01*
X0190851Y0027575D01*
X0195150Y0027575D01*
X0195150Y0026606D01*
X0196118Y0026606D01*
X0196118Y0022307D01*
X0196758Y0022409D01*
X0197476Y0022642D01*
X0198150Y0022985D01*
X0198761Y0023429D01*
X0199295Y0023964D01*
X0199739Y0024575D01*
X0200082Y0025248D01*
X0200316Y0025967D01*
X0200417Y0026606D01*
X0196118Y0026606D01*
X0196118Y0027575D01*
X0200417Y0027575D01*
X0200316Y0028215D01*
X0200082Y0028933D01*
X0199739Y0029606D01*
X0199295Y0030218D01*
X0198761Y0030752D01*
X0198150Y0031196D01*
X0199284Y0030229D02*
X0211614Y0030229D01*
X0211614Y0029230D02*
X0199931Y0029230D01*
X0200310Y0028232D02*
X0211614Y0028232D01*
X0211614Y0027233D02*
X0196118Y0027233D01*
X0195150Y0027233D02*
X0190034Y0027233D01*
X0190034Y0027966D02*
X0190034Y0026215D01*
X0189364Y0024598D01*
X0188126Y0023360D01*
X0186509Y0022691D01*
X0184759Y0022691D01*
X0183141Y0023360D01*
X0181904Y0024598D01*
X0181234Y0026215D01*
X0181234Y0027966D01*
X0181904Y0029583D01*
X0183141Y0030821D01*
X0184759Y0031491D01*
X0186509Y0031491D01*
X0188126Y0030821D01*
X0189364Y0029583D01*
X0190034Y0027966D01*
X0189924Y0028232D02*
X0190958Y0028232D01*
X0191337Y0029230D02*
X0189510Y0029230D01*
X0188718Y0030229D02*
X0191984Y0030229D01*
X0193180Y0031227D02*
X0187145Y0031227D01*
X0184123Y0031227D02*
X0177234Y0031227D01*
X0178718Y0030229D02*
X0182549Y0030229D01*
X0181758Y0029230D02*
X0179510Y0029230D01*
X0179924Y0028232D02*
X0181344Y0028232D01*
X0181234Y0027233D02*
X0180034Y0027233D01*
X0180034Y0026235D02*
X0181234Y0026235D01*
X0181639Y0025236D02*
X0179628Y0025236D01*
X0179003Y0024238D02*
X0182264Y0024238D01*
X0183434Y0023239D02*
X0177833Y0023239D01*
X0173434Y0023239D02*
X0167833Y0023239D01*
X0168126Y0023360D02*
X0169364Y0024598D01*
X0170034Y0026215D01*
X0170034Y0027966D01*
X0169364Y0029583D01*
X0168126Y0030821D01*
X0166509Y0031491D01*
X0164759Y0031491D01*
X0163141Y0030821D01*
X0161904Y0029583D01*
X0161234Y0027966D01*
X0161234Y0026215D01*
X0161904Y0024598D01*
X0163141Y0023360D01*
X0164759Y0022691D01*
X0166509Y0022691D01*
X0168126Y0023360D01*
X0169003Y0024238D02*
X0172264Y0024238D01*
X0171639Y0025236D02*
X0169628Y0025236D01*
X0170034Y0026235D02*
X0171234Y0026235D01*
X0171234Y0027233D02*
X0170034Y0027233D01*
X0169924Y0028232D02*
X0171344Y0028232D01*
X0171758Y0029230D02*
X0169510Y0029230D01*
X0168718Y0030229D02*
X0172549Y0030229D01*
X0174034Y0031227D02*
X0167145Y0031227D01*
X0164123Y0031227D02*
X0027350Y0031227D01*
X0027230Y0031188D02*
X0027949Y0031422D01*
X0028622Y0031765D01*
X0029233Y0032209D01*
X0029768Y0032743D01*
X0030212Y0033354D01*
X0030555Y0034028D01*
X0030788Y0034746D01*
X0030889Y0035386D01*
X0026591Y0035386D01*
X0026591Y0031087D01*
X0027230Y0031188D01*
X0026591Y0031227D02*
X0025622Y0031227D01*
X0024862Y0031227D02*
X0017764Y0031227D01*
X0017764Y0030229D02*
X0162549Y0030229D01*
X0161758Y0029230D02*
X0017764Y0029230D01*
X0017764Y0028232D02*
X0161344Y0028232D01*
X0161234Y0027233D02*
X0017764Y0027233D01*
X0017764Y0026235D02*
X0161234Y0026235D01*
X0161639Y0025236D02*
X0017764Y0025236D01*
X0017833Y0024238D02*
X0162264Y0024238D01*
X0163434Y0023239D02*
X0018130Y0023239D01*
X0018455Y0022241D02*
X0210923Y0022241D01*
X0211248Y0023239D02*
X0198499Y0023239D01*
X0199494Y0024238D02*
X0211545Y0024238D01*
X0211614Y0025236D02*
X0200076Y0025236D01*
X0200358Y0026235D02*
X0211614Y0026235D01*
X0210203Y0021242D02*
X0019175Y0021242D01*
X0020142Y0020244D02*
X0209236Y0020244D01*
X0207525Y0019245D02*
X0021852Y0019245D01*
X0022962Y0032226D02*
X0017764Y0032226D01*
X0017764Y0033224D02*
X0022095Y0033224D01*
X0021595Y0034223D02*
X0017764Y0034223D01*
X0017764Y0035221D02*
X0021349Y0035221D01*
X0025622Y0035221D02*
X0026591Y0035221D01*
X0026591Y0034223D02*
X0025622Y0034223D01*
X0025622Y0033224D02*
X0026591Y0033224D01*
X0026591Y0032226D02*
X0025622Y0032226D01*
X0029250Y0032226D02*
X0173236Y0032226D01*
X0173744Y0033980D02*
X0175634Y0032091D01*
X0175634Y0027091D01*
X0173744Y0033980D02*
X0132406Y0033980D01*
X0129453Y0036933D01*
X0129453Y0063508D01*
X0127064Y0064178D02*
X0085273Y0064178D01*
X0119979Y0074163D02*
X0017764Y0074163D01*
X0017764Y0075162D02*
X0119979Y0075162D01*
X0119979Y0076160D02*
X0017764Y0076160D01*
X0017764Y0077159D02*
X0119979Y0077159D01*
X0119979Y0078157D02*
X0017764Y0078157D01*
X0017764Y0079156D02*
X0119979Y0079156D01*
X0119979Y0080154D02*
X0017764Y0080154D01*
X0017764Y0081153D02*
X0119979Y0081153D01*
X0119979Y0082151D02*
X0017764Y0082151D01*
X0017764Y0083150D02*
X0119979Y0083150D01*
X0119979Y0084148D02*
X0017764Y0084148D01*
X0017764Y0085147D02*
X0119979Y0085147D01*
X0119979Y0086145D02*
X0017764Y0086145D01*
X0017764Y0087144D02*
X0119979Y0087144D01*
X0119979Y0088142D02*
X0017764Y0088142D01*
X0017764Y0089141D02*
X0119979Y0089141D01*
X0119979Y0090139D02*
X0017764Y0090139D01*
X0017764Y0091138D02*
X0119979Y0091138D01*
X0119979Y0092136D02*
X0017764Y0092136D01*
X0017764Y0093135D02*
X0119979Y0093135D01*
X0119979Y0094133D02*
X0017764Y0094133D01*
X0017764Y0095132D02*
X0024205Y0095132D01*
X0024638Y0095132D02*
X0025606Y0095132D01*
X0026039Y0095132D02*
X0119190Y0095132D01*
X0119190Y0096130D02*
X0028174Y0096130D01*
X0029081Y0097129D02*
X0119341Y0097129D01*
X0119979Y0098127D02*
X0029611Y0098127D01*
X0029868Y0099126D02*
X0119979Y0099126D01*
X0120500Y0100124D02*
X0025606Y0100124D01*
X0024638Y0100124D02*
X0017764Y0100124D01*
X0017764Y0099126D02*
X0020376Y0099126D01*
X0020634Y0098127D02*
X0017764Y0098127D01*
X0017764Y0097129D02*
X0021163Y0097129D01*
X0022070Y0096130D02*
X0017764Y0096130D01*
X0017764Y0101123D02*
X0020490Y0101123D01*
X0020894Y0102121D02*
X0017764Y0102121D01*
X0017764Y0103120D02*
X0021607Y0103120D01*
X0024638Y0103120D02*
X0025606Y0103120D01*
X0025606Y0104119D02*
X0024638Y0104119D01*
X0024638Y0102121D02*
X0025606Y0102121D01*
X0025606Y0101123D02*
X0024638Y0101123D01*
X0024638Y0099126D02*
X0025606Y0099126D01*
X0025606Y0098127D02*
X0024638Y0098127D01*
X0024638Y0097129D02*
X0025606Y0097129D01*
X0025606Y0096130D02*
X0024638Y0096130D01*
X0029754Y0101123D02*
X0121498Y0101123D01*
X0123179Y0098127D02*
X0133758Y0098127D01*
X0134998Y0102121D02*
X0029350Y0102121D01*
X0028637Y0103120D02*
X0135996Y0103120D01*
X0143487Y0098127D02*
X0179526Y0098127D01*
X0178528Y0097129D02*
X0144486Y0097129D01*
X0178202Y0104119D02*
X0027311Y0104119D01*
X0027613Y0106116D02*
X0211614Y0106116D01*
X0211614Y0107114D02*
X0094745Y0107114D01*
X0095424Y0108113D02*
X0211614Y0108113D01*
X0211614Y0109111D02*
X0097319Y0109111D01*
X0098317Y0110110D02*
X0211614Y0110110D01*
X0211614Y0111108D02*
X0099193Y0111108D01*
X0099193Y0112107D02*
X0211614Y0112107D01*
X0211614Y0113105D02*
X0099193Y0113105D01*
X0099193Y0114104D02*
X0211614Y0114104D01*
X0211614Y0115102D02*
X0098546Y0115102D01*
X0098204Y0116101D02*
X0211614Y0116101D01*
X0211614Y0117099D02*
X0098204Y0117099D01*
X0093404Y0117099D02*
X0017764Y0117099D01*
X0017764Y0116101D02*
X0093404Y0116101D01*
X0093404Y0118098D02*
X0017764Y0118098D01*
X0017764Y0119096D02*
X0093404Y0119096D01*
X0093404Y0120095D02*
X0017764Y0120095D01*
X0017764Y0121093D02*
X0093404Y0121093D01*
X0093404Y0122092D02*
X0017764Y0122092D01*
X0017764Y0123090D02*
X0053799Y0123090D01*
X0053814Y0123084D02*
X0055564Y0123084D01*
X0057181Y0123754D01*
X0058419Y0124992D01*
X0059089Y0126609D01*
X0059089Y0128359D01*
X0058419Y0129977D01*
X0057181Y0131214D01*
X0055564Y0131884D01*
X0053814Y0131884D01*
X0052197Y0131214D01*
X0050959Y0129977D01*
X0050289Y0128359D01*
X0050289Y0126609D01*
X0050959Y0124992D01*
X0052197Y0123754D01*
X0053814Y0123084D01*
X0055579Y0123090D02*
X0063799Y0123090D01*
X0063814Y0123084D02*
X0065564Y0123084D01*
X0067181Y0123754D01*
X0068419Y0124992D01*
X0069089Y0126609D01*
X0069089Y0128359D01*
X0068419Y0129977D01*
X0067181Y0131214D01*
X0065564Y0131884D01*
X0063814Y0131884D01*
X0062197Y0131214D01*
X0060959Y0129977D01*
X0060289Y0128359D01*
X0060289Y0126609D01*
X0060959Y0124992D01*
X0062197Y0123754D01*
X0063814Y0123084D01*
X0065579Y0123090D02*
X0072740Y0123090D01*
X0072846Y0123036D02*
X0073565Y0122802D01*
X0074205Y0122701D01*
X0074205Y0127000D01*
X0075173Y0127000D01*
X0075173Y0122701D01*
X0075813Y0122802D01*
X0076532Y0123036D01*
X0077205Y0123379D01*
X0077816Y0123823D01*
X0078350Y0124357D01*
X0078794Y0124969D01*
X0079137Y0125642D01*
X0079371Y0126360D01*
X0079472Y0127000D01*
X0075173Y0127000D01*
X0075173Y0127969D01*
X0074205Y0127969D01*
X0074205Y0132267D01*
X0073565Y0132166D01*
X0072846Y0131933D01*
X0072173Y0131590D01*
X0071562Y0131145D01*
X0071028Y0130611D01*
X0070584Y0130000D01*
X0070241Y0129327D01*
X0070007Y0128608D01*
X0069906Y0127969D01*
X0074205Y0127969D01*
X0074205Y0127000D01*
X0069906Y0127000D01*
X0070007Y0126360D01*
X0070241Y0125642D01*
X0070584Y0124969D01*
X0071028Y0124357D01*
X0071562Y0123823D01*
X0072173Y0123379D01*
X0072846Y0123036D01*
X0074205Y0123090D02*
X0075173Y0123090D01*
X0075173Y0124089D02*
X0074205Y0124089D01*
X0074205Y0125087D02*
X0075173Y0125087D01*
X0075173Y0126086D02*
X0074205Y0126086D01*
X0074205Y0127084D02*
X0069089Y0127084D01*
X0069089Y0128083D02*
X0069924Y0128083D01*
X0070161Y0129081D02*
X0068790Y0129081D01*
X0068316Y0130080D02*
X0070642Y0130080D01*
X0071495Y0131078D02*
X0067317Y0131078D01*
X0073290Y0132077D02*
X0019748Y0132077D01*
X0018967Y0131078D02*
X0052061Y0131078D01*
X0051062Y0130080D02*
X0018362Y0130080D01*
X0018037Y0129081D02*
X0050588Y0129081D01*
X0050289Y0128083D02*
X0017811Y0128083D01*
X0017764Y0127084D02*
X0050289Y0127084D01*
X0050506Y0126086D02*
X0017764Y0126086D01*
X0017764Y0125087D02*
X0050919Y0125087D01*
X0051862Y0124089D02*
X0017764Y0124089D01*
X0021123Y0133075D02*
X0208255Y0133075D01*
X0209630Y0132077D02*
X0076088Y0132077D01*
X0075813Y0132166D02*
X0076532Y0131933D01*
X0077205Y0131590D01*
X0077816Y0131145D01*
X0078350Y0130611D01*
X0078794Y0130000D01*
X0079137Y0129327D01*
X0079371Y0128608D01*
X0079472Y0127969D01*
X0075173Y0127969D01*
X0075173Y0132267D01*
X0075813Y0132166D01*
X0075173Y0132077D02*
X0074205Y0132077D01*
X0074205Y0131078D02*
X0075173Y0131078D01*
X0075173Y0130080D02*
X0074205Y0130080D01*
X0074205Y0129081D02*
X0075173Y0129081D01*
X0075173Y0128083D02*
X0074205Y0128083D01*
X0075173Y0127084D02*
X0080289Y0127084D01*
X0080289Y0126609D02*
X0080959Y0124992D01*
X0082197Y0123754D01*
X0083814Y0123084D01*
X0085564Y0123084D01*
X0087181Y0123754D01*
X0088419Y0124992D01*
X0089089Y0126609D01*
X0089089Y0128359D01*
X0088419Y0129977D01*
X0087181Y0131214D01*
X0085564Y0131884D01*
X0083814Y0131884D01*
X0082197Y0131214D01*
X0080959Y0129977D01*
X0080289Y0128359D01*
X0080289Y0126609D01*
X0080506Y0126086D02*
X0079282Y0126086D01*
X0078855Y0125087D02*
X0080919Y0125087D01*
X0081862Y0124089D02*
X0078082Y0124089D01*
X0076638Y0123090D02*
X0083799Y0123090D01*
X0085579Y0123090D02*
X0093404Y0123090D01*
X0091862Y0124089D02*
X0087516Y0124089D01*
X0088459Y0125087D02*
X0090919Y0125087D01*
X0090506Y0126086D02*
X0088872Y0126086D01*
X0089089Y0127084D02*
X0090289Y0127084D01*
X0090289Y0128083D02*
X0089089Y0128083D01*
X0088790Y0129081D02*
X0090588Y0129081D01*
X0091062Y0130080D02*
X0088316Y0130080D01*
X0087317Y0131078D02*
X0092061Y0131078D01*
X0094689Y0127484D02*
X0095004Y0127169D01*
X0095004Y0112720D01*
X0096604Y0123090D02*
X0097205Y0123090D01*
X0097516Y0124089D02*
X0101862Y0124089D01*
X0100919Y0125087D02*
X0098459Y0125087D01*
X0098872Y0126086D02*
X0100506Y0126086D01*
X0100289Y0127084D02*
X0099089Y0127084D01*
X0099089Y0128083D02*
X0100289Y0128083D01*
X0100588Y0129081D02*
X0098790Y0129081D01*
X0098316Y0130080D02*
X0101062Y0130080D01*
X0102061Y0131078D02*
X0097317Y0131078D01*
X0082061Y0131078D02*
X0077883Y0131078D01*
X0078736Y0130080D02*
X0081062Y0130080D01*
X0080588Y0129081D02*
X0079217Y0129081D01*
X0079454Y0128083D02*
X0080289Y0128083D01*
X0071296Y0124089D02*
X0067516Y0124089D01*
X0068459Y0125087D02*
X0070523Y0125087D01*
X0070096Y0126086D02*
X0068872Y0126086D01*
X0061862Y0124089D02*
X0057516Y0124089D01*
X0058459Y0125087D02*
X0060919Y0125087D01*
X0060506Y0126086D02*
X0058872Y0126086D01*
X0059089Y0127084D02*
X0060289Y0127084D01*
X0060289Y0128083D02*
X0059089Y0128083D01*
X0058790Y0129081D02*
X0060588Y0129081D01*
X0061062Y0130080D02*
X0058316Y0130080D01*
X0057317Y0131078D02*
X0062061Y0131078D01*
X0163896Y0065177D02*
X0164886Y0065177D01*
X0129900Y0034223D02*
X0030618Y0034223D01*
X0030863Y0035221D02*
X0128902Y0035221D01*
X0130899Y0033224D02*
X0030117Y0033224D01*
X0187833Y0023239D02*
X0192769Y0023239D01*
X0192507Y0023429D02*
X0193118Y0022985D01*
X0193791Y0022642D01*
X0194510Y0022409D01*
X0195150Y0022307D01*
X0195150Y0026606D01*
X0190851Y0026606D01*
X0190952Y0025967D01*
X0191186Y0025248D01*
X0191529Y0024575D01*
X0191973Y0023964D01*
X0192507Y0023429D01*
X0191774Y0024238D02*
X0189003Y0024238D01*
X0189628Y0025236D02*
X0191192Y0025236D01*
X0190910Y0026235D02*
X0190034Y0026235D01*
X0195150Y0026235D02*
X0196118Y0026235D01*
X0196118Y0025236D02*
X0195150Y0025236D01*
X0195150Y0024238D02*
X0196118Y0024238D01*
X0196118Y0023239D02*
X0195150Y0023239D01*
X0195150Y0028232D02*
X0196118Y0028232D01*
X0196118Y0029230D02*
X0195150Y0029230D01*
X0195150Y0030229D02*
X0196118Y0030229D01*
X0196118Y0031227D02*
X0195150Y0031227D01*
D14*
X0204256Y0034965D03*
X0176697Y0053681D03*
X0183587Y0063508D03*
X0164886Y0082209D03*
X0164886Y0086146D03*
X0164886Y0090083D03*
X0164886Y0094020D03*
X0153075Y0096972D03*
X0153075Y0105831D03*
X0142248Y0095988D03*
X0147169Y0086146D03*
X0151106Y0086146D03*
X0155043Y0086146D03*
X0155043Y0082209D03*
X0151106Y0082209D03*
X0147169Y0082209D03*
X0147169Y0078272D03*
X0151106Y0078272D03*
X0155043Y0078272D03*
X0141264Y0069413D03*
X0136343Y0069413D03*
X0135358Y0063508D03*
X0129453Y0063508D03*
X0121579Y0063508D03*
X0121579Y0072366D03*
X0135358Y0082209D03*
X0121579Y0095988D03*
X0128469Y0107799D03*
X0129453Y0119610D03*
X0140280Y0118626D03*
X0119610Y0119610D03*
X0110752Y0121579D03*
X0099925Y0124531D03*
X0095004Y0112720D03*
X0093035Y0108783D03*
X0087130Y0092051D03*
X0082209Y0070398D03*
X0083193Y0065476D03*
X0077287Y0053665D03*
X0069413Y0053665D03*
X0061539Y0053665D03*
X0075319Y0041854D03*
X0078272Y0041854D03*
X0079256Y0034965D03*
X0075319Y0034965D03*
X0091067Y0031028D03*
X0093035Y0038902D03*
X0102878Y0031028D03*
X0115673Y0031028D03*
X0122563Y0045791D03*
X0135358Y0050713D03*
X0101894Y0052681D03*
X0087130Y0052681D03*
X0047760Y0028075D03*
X0034965Y0024138D03*
X0033980Y0077287D03*
X0048744Y0087130D03*
X0042839Y0100909D03*
X0138311Y0024138D03*
X0168823Y0040870D03*
X0175713Y0084177D03*
X0180634Y0100909D03*
X0207209Y0083193D03*
X0167701Y0121441D03*
M02*
