%
M48
M72
T01C0.01378
T02C0.02000
T03C0.03937
%
T01
X34965Y24138
X47760Y28075
X75319Y34965
X79256Y34965
X78272Y41854
X75319Y41854
X77287Y53665
X69413Y53665
X61539Y53665
X83193Y65476
X82209Y70398
X87130Y52681
X101894Y52681
X121579Y63508
X129453Y63508
X135358Y63508
X136343Y69413
X141264Y69413
X147169Y78272
X151106Y78272
X155043Y78272
X155043Y82209
X151106Y82209
X147169Y82209
X147169Y86146
X151106Y86146
X155043Y86146
X164886Y86146
X164886Y90083
X164886Y94020
X153075Y96972
X153075Y105831
X142248Y95988
X128469Y107799
X129453Y119610
X140280Y118626
X119610Y119610
X110752Y121579
X99925Y124531
X95004Y112720
X93035Y108783
X87130Y92051
X121579Y95988
X135358Y82209
X121579Y72366
X135358Y50713
X122563Y45791
X115673Y31028
X102878Y31028
X91067Y31028
X93035Y38902
X138311Y24138
X168823Y40870
X176697Y53681
X183587Y63508
X164886Y82209
X175713Y84177
X180634Y100909
X207209Y83193
X167701Y121441
X48744Y87130
X33980Y77287
X42839Y100909
X204256Y34965
T02
X203685Y49492
X198685Y49492
X198685Y54492
X203685Y54492
X203685Y59492
X198685Y59492
X198685Y64492
X203685Y64492
X203685Y69492
X198685Y69492
T03
X195634Y27091
X185634Y27091
X175634Y27091
X165634Y27091
X26106Y35870
X26106Y45870
X25122Y99846
X25122Y109846
X54689Y127484
X64689Y127484
X74689Y127484
X84689Y127484
X94689Y127484
X104689Y127484
X114689Y127484
X124689Y127484
X134689Y127484
X144689Y127484
X154689Y127484
X164689Y127484
X174689Y127484
M30
