G75*
%MOIN*%
%OFA0B0*%
%FSLAX25Y25*%
%IPPOS*%
%LPD*%
%AMOC8*
5,1,8,0,0,1.08239X$1,22.5*
%
%ADD10C,0.00000*%
%ADD11C,0.04400*%
%ADD12C,0.07000*%
D10*
X0024138Y0017248D02*
X0205240Y0017248D01*
X0205430Y0017250D01*
X0205620Y0017257D01*
X0205810Y0017269D01*
X0206000Y0017285D01*
X0206189Y0017305D01*
X0206378Y0017331D01*
X0206566Y0017360D01*
X0206753Y0017395D01*
X0206939Y0017434D01*
X0207124Y0017477D01*
X0207309Y0017525D01*
X0207492Y0017577D01*
X0207673Y0017633D01*
X0207853Y0017694D01*
X0208032Y0017760D01*
X0208209Y0017829D01*
X0208385Y0017903D01*
X0208558Y0017981D01*
X0208730Y0018064D01*
X0208899Y0018150D01*
X0209067Y0018240D01*
X0209232Y0018335D01*
X0209395Y0018433D01*
X0209555Y0018536D01*
X0209713Y0018642D01*
X0209868Y0018752D01*
X0210021Y0018865D01*
X0210171Y0018983D01*
X0210317Y0019104D01*
X0210461Y0019228D01*
X0210602Y0019356D01*
X0210740Y0019487D01*
X0210875Y0019622D01*
X0211006Y0019760D01*
X0211134Y0019901D01*
X0211258Y0020045D01*
X0211379Y0020191D01*
X0211497Y0020341D01*
X0211610Y0020494D01*
X0211720Y0020649D01*
X0211826Y0020807D01*
X0211929Y0020967D01*
X0212027Y0021130D01*
X0212122Y0021295D01*
X0212212Y0021463D01*
X0212298Y0021632D01*
X0212381Y0021804D01*
X0212459Y0021977D01*
X0212533Y0022153D01*
X0212602Y0022330D01*
X0212668Y0022509D01*
X0212729Y0022689D01*
X0212785Y0022870D01*
X0212837Y0023053D01*
X0212885Y0023238D01*
X0212928Y0023423D01*
X0212967Y0023609D01*
X0213002Y0023796D01*
X0213031Y0023984D01*
X0213057Y0024173D01*
X0213077Y0024362D01*
X0213093Y0024552D01*
X0213105Y0024742D01*
X0213112Y0024932D01*
X0213114Y0025122D01*
X0213114Y0127484D01*
X0213112Y0127674D01*
X0213105Y0127864D01*
X0213093Y0128054D01*
X0213077Y0128244D01*
X0213057Y0128433D01*
X0213031Y0128622D01*
X0213002Y0128810D01*
X0212967Y0128997D01*
X0212928Y0129183D01*
X0212885Y0129368D01*
X0212837Y0129553D01*
X0212785Y0129736D01*
X0212729Y0129917D01*
X0212668Y0130097D01*
X0212602Y0130276D01*
X0212533Y0130453D01*
X0212459Y0130629D01*
X0212381Y0130802D01*
X0212298Y0130974D01*
X0212212Y0131143D01*
X0212122Y0131311D01*
X0212027Y0131476D01*
X0211929Y0131639D01*
X0211826Y0131799D01*
X0211720Y0131957D01*
X0211610Y0132112D01*
X0211497Y0132265D01*
X0211379Y0132415D01*
X0211258Y0132561D01*
X0211134Y0132705D01*
X0211006Y0132846D01*
X0210875Y0132984D01*
X0210740Y0133119D01*
X0210602Y0133250D01*
X0210461Y0133378D01*
X0210317Y0133502D01*
X0210171Y0133623D01*
X0210021Y0133741D01*
X0209868Y0133854D01*
X0209713Y0133964D01*
X0209555Y0134070D01*
X0209395Y0134173D01*
X0209232Y0134271D01*
X0209067Y0134366D01*
X0208899Y0134456D01*
X0208730Y0134542D01*
X0208558Y0134625D01*
X0208385Y0134703D01*
X0208209Y0134777D01*
X0208032Y0134846D01*
X0207853Y0134912D01*
X0207673Y0134973D01*
X0207492Y0135029D01*
X0207309Y0135081D01*
X0207124Y0135129D01*
X0206939Y0135172D01*
X0206753Y0135211D01*
X0206566Y0135246D01*
X0206378Y0135275D01*
X0206189Y0135301D01*
X0206000Y0135321D01*
X0205810Y0135337D01*
X0205620Y0135349D01*
X0205430Y0135356D01*
X0205240Y0135358D01*
X0024138Y0135358D01*
X0023948Y0135356D01*
X0023758Y0135349D01*
X0023568Y0135337D01*
X0023378Y0135321D01*
X0023189Y0135301D01*
X0023000Y0135275D01*
X0022812Y0135246D01*
X0022625Y0135211D01*
X0022439Y0135172D01*
X0022254Y0135129D01*
X0022069Y0135081D01*
X0021886Y0135029D01*
X0021705Y0134973D01*
X0021525Y0134912D01*
X0021346Y0134846D01*
X0021169Y0134777D01*
X0020993Y0134703D01*
X0020820Y0134625D01*
X0020648Y0134542D01*
X0020479Y0134456D01*
X0020311Y0134366D01*
X0020146Y0134271D01*
X0019983Y0134173D01*
X0019823Y0134070D01*
X0019665Y0133964D01*
X0019510Y0133854D01*
X0019357Y0133741D01*
X0019207Y0133623D01*
X0019061Y0133502D01*
X0018917Y0133378D01*
X0018776Y0133250D01*
X0018638Y0133119D01*
X0018503Y0132984D01*
X0018372Y0132846D01*
X0018244Y0132705D01*
X0018120Y0132561D01*
X0017999Y0132415D01*
X0017881Y0132265D01*
X0017768Y0132112D01*
X0017658Y0131957D01*
X0017552Y0131799D01*
X0017449Y0131639D01*
X0017351Y0131476D01*
X0017256Y0131311D01*
X0017166Y0131143D01*
X0017080Y0130974D01*
X0016997Y0130802D01*
X0016919Y0130629D01*
X0016845Y0130453D01*
X0016776Y0130276D01*
X0016710Y0130097D01*
X0016649Y0129917D01*
X0016593Y0129736D01*
X0016541Y0129553D01*
X0016493Y0129368D01*
X0016450Y0129183D01*
X0016411Y0128997D01*
X0016376Y0128810D01*
X0016347Y0128622D01*
X0016321Y0128433D01*
X0016301Y0128244D01*
X0016285Y0128054D01*
X0016273Y0127864D01*
X0016266Y0127674D01*
X0016264Y0127484D01*
X0016264Y0025122D01*
X0016266Y0024932D01*
X0016273Y0024742D01*
X0016285Y0024552D01*
X0016301Y0024362D01*
X0016321Y0024173D01*
X0016347Y0023984D01*
X0016376Y0023796D01*
X0016411Y0023609D01*
X0016450Y0023423D01*
X0016493Y0023238D01*
X0016541Y0023053D01*
X0016593Y0022870D01*
X0016649Y0022689D01*
X0016710Y0022509D01*
X0016776Y0022330D01*
X0016845Y0022153D01*
X0016919Y0021977D01*
X0016997Y0021804D01*
X0017080Y0021632D01*
X0017166Y0021463D01*
X0017256Y0021295D01*
X0017351Y0021130D01*
X0017449Y0020967D01*
X0017552Y0020807D01*
X0017658Y0020649D01*
X0017768Y0020494D01*
X0017881Y0020341D01*
X0017999Y0020191D01*
X0018120Y0020045D01*
X0018244Y0019901D01*
X0018372Y0019760D01*
X0018503Y0019622D01*
X0018638Y0019487D01*
X0018776Y0019356D01*
X0018917Y0019228D01*
X0019061Y0019104D01*
X0019207Y0018983D01*
X0019357Y0018865D01*
X0019510Y0018752D01*
X0019665Y0018642D01*
X0019823Y0018536D01*
X0019983Y0018433D01*
X0020146Y0018335D01*
X0020311Y0018240D01*
X0020479Y0018150D01*
X0020648Y0018064D01*
X0020820Y0017981D01*
X0020993Y0017903D01*
X0021169Y0017829D01*
X0021346Y0017760D01*
X0021525Y0017694D01*
X0021705Y0017633D01*
X0021886Y0017577D01*
X0022069Y0017525D01*
X0022254Y0017477D01*
X0022439Y0017434D01*
X0022625Y0017395D01*
X0022812Y0017360D01*
X0023000Y0017331D01*
X0023189Y0017305D01*
X0023378Y0017285D01*
X0023568Y0017269D01*
X0023758Y0017257D01*
X0023948Y0017250D01*
X0024138Y0017248D01*
D11*
X0198685Y0049492D03*
X0203685Y0049492D03*
X0203685Y0054492D03*
X0198685Y0054492D03*
X0198685Y0059492D03*
X0203685Y0059492D03*
X0203685Y0064492D03*
X0198685Y0064492D03*
X0198685Y0069492D03*
X0203685Y0069492D03*
D12*
X0195634Y0027091D03*
X0185634Y0027091D03*
X0175634Y0027091D03*
X0165634Y0027091D03*
X0026106Y0035870D03*
X0026106Y0045870D03*
X0025122Y0099846D03*
X0025122Y0109846D03*
X0054689Y0127484D03*
X0064689Y0127484D03*
X0074689Y0127484D03*
X0084689Y0127484D03*
X0094689Y0127484D03*
X0104689Y0127484D03*
X0114689Y0127484D03*
X0124689Y0127484D03*
X0134689Y0127484D03*
X0144689Y0127484D03*
X0154689Y0127484D03*
X0164689Y0127484D03*
X0174689Y0127484D03*
M02*
