G75*
%MOIN*%
%OFA0B0*%
%FSLAX25Y25*%
%IPPOS*%
%LPD*%
%AMOC8*
5,1,8,0,0,1.08239X$1,22.5*
%
%ADD10C,0.00000*%
%ADD11R,0.04331X0.03937*%
%ADD12C,0.00266*%
%ADD13R,0.12598X0.12598*%
%ADD14R,0.07087X0.03937*%
%ADD15R,0.05000X0.02500*%
%ADD16R,0.05906X0.09055*%
%ADD17C,0.04000*%
%ADD18C,0.06600*%
%ADD19C,0.01250*%
%ADD20R,0.09055X0.03346*%
%ADD21R,0.05906X0.05118*%
%ADD22R,0.05315X0.03150*%
%ADD23R,0.03100X0.03500*%
%ADD24R,0.05118X0.05906*%
%ADD25C,0.01000*%
%ADD26C,0.02578*%
D10*
X0024138Y0017248D02*
X0205240Y0017248D01*
X0205430Y0017250D01*
X0205620Y0017257D01*
X0205810Y0017269D01*
X0206000Y0017285D01*
X0206189Y0017305D01*
X0206378Y0017331D01*
X0206566Y0017360D01*
X0206753Y0017395D01*
X0206939Y0017434D01*
X0207124Y0017477D01*
X0207309Y0017525D01*
X0207492Y0017577D01*
X0207673Y0017633D01*
X0207853Y0017694D01*
X0208032Y0017760D01*
X0208209Y0017829D01*
X0208385Y0017903D01*
X0208558Y0017981D01*
X0208730Y0018064D01*
X0208899Y0018150D01*
X0209067Y0018240D01*
X0209232Y0018335D01*
X0209395Y0018433D01*
X0209555Y0018536D01*
X0209713Y0018642D01*
X0209868Y0018752D01*
X0210021Y0018865D01*
X0210171Y0018983D01*
X0210317Y0019104D01*
X0210461Y0019228D01*
X0210602Y0019356D01*
X0210740Y0019487D01*
X0210875Y0019622D01*
X0211006Y0019760D01*
X0211134Y0019901D01*
X0211258Y0020045D01*
X0211379Y0020191D01*
X0211497Y0020341D01*
X0211610Y0020494D01*
X0211720Y0020649D01*
X0211826Y0020807D01*
X0211929Y0020967D01*
X0212027Y0021130D01*
X0212122Y0021295D01*
X0212212Y0021463D01*
X0212298Y0021632D01*
X0212381Y0021804D01*
X0212459Y0021977D01*
X0212533Y0022153D01*
X0212602Y0022330D01*
X0212668Y0022509D01*
X0212729Y0022689D01*
X0212785Y0022870D01*
X0212837Y0023053D01*
X0212885Y0023238D01*
X0212928Y0023423D01*
X0212967Y0023609D01*
X0213002Y0023796D01*
X0213031Y0023984D01*
X0213057Y0024173D01*
X0213077Y0024362D01*
X0213093Y0024552D01*
X0213105Y0024742D01*
X0213112Y0024932D01*
X0213114Y0025122D01*
X0213114Y0127484D01*
X0213112Y0127674D01*
X0213105Y0127864D01*
X0213093Y0128054D01*
X0213077Y0128244D01*
X0213057Y0128433D01*
X0213031Y0128622D01*
X0213002Y0128810D01*
X0212967Y0128997D01*
X0212928Y0129183D01*
X0212885Y0129368D01*
X0212837Y0129553D01*
X0212785Y0129736D01*
X0212729Y0129917D01*
X0212668Y0130097D01*
X0212602Y0130276D01*
X0212533Y0130453D01*
X0212459Y0130629D01*
X0212381Y0130802D01*
X0212298Y0130974D01*
X0212212Y0131143D01*
X0212122Y0131311D01*
X0212027Y0131476D01*
X0211929Y0131639D01*
X0211826Y0131799D01*
X0211720Y0131957D01*
X0211610Y0132112D01*
X0211497Y0132265D01*
X0211379Y0132415D01*
X0211258Y0132561D01*
X0211134Y0132705D01*
X0211006Y0132846D01*
X0210875Y0132984D01*
X0210740Y0133119D01*
X0210602Y0133250D01*
X0210461Y0133378D01*
X0210317Y0133502D01*
X0210171Y0133623D01*
X0210021Y0133741D01*
X0209868Y0133854D01*
X0209713Y0133964D01*
X0209555Y0134070D01*
X0209395Y0134173D01*
X0209232Y0134271D01*
X0209067Y0134366D01*
X0208899Y0134456D01*
X0208730Y0134542D01*
X0208558Y0134625D01*
X0208385Y0134703D01*
X0208209Y0134777D01*
X0208032Y0134846D01*
X0207853Y0134912D01*
X0207673Y0134973D01*
X0207492Y0135029D01*
X0207309Y0135081D01*
X0207124Y0135129D01*
X0206939Y0135172D01*
X0206753Y0135211D01*
X0206566Y0135246D01*
X0206378Y0135275D01*
X0206189Y0135301D01*
X0206000Y0135321D01*
X0205810Y0135337D01*
X0205620Y0135349D01*
X0205430Y0135356D01*
X0205240Y0135358D01*
X0024138Y0135358D01*
X0023948Y0135356D01*
X0023758Y0135349D01*
X0023568Y0135337D01*
X0023378Y0135321D01*
X0023189Y0135301D01*
X0023000Y0135275D01*
X0022812Y0135246D01*
X0022625Y0135211D01*
X0022439Y0135172D01*
X0022254Y0135129D01*
X0022069Y0135081D01*
X0021886Y0135029D01*
X0021705Y0134973D01*
X0021525Y0134912D01*
X0021346Y0134846D01*
X0021169Y0134777D01*
X0020993Y0134703D01*
X0020820Y0134625D01*
X0020648Y0134542D01*
X0020479Y0134456D01*
X0020311Y0134366D01*
X0020146Y0134271D01*
X0019983Y0134173D01*
X0019823Y0134070D01*
X0019665Y0133964D01*
X0019510Y0133854D01*
X0019357Y0133741D01*
X0019207Y0133623D01*
X0019061Y0133502D01*
X0018917Y0133378D01*
X0018776Y0133250D01*
X0018638Y0133119D01*
X0018503Y0132984D01*
X0018372Y0132846D01*
X0018244Y0132705D01*
X0018120Y0132561D01*
X0017999Y0132415D01*
X0017881Y0132265D01*
X0017768Y0132112D01*
X0017658Y0131957D01*
X0017552Y0131799D01*
X0017449Y0131639D01*
X0017351Y0131476D01*
X0017256Y0131311D01*
X0017166Y0131143D01*
X0017080Y0130974D01*
X0016997Y0130802D01*
X0016919Y0130629D01*
X0016845Y0130453D01*
X0016776Y0130276D01*
X0016710Y0130097D01*
X0016649Y0129917D01*
X0016593Y0129736D01*
X0016541Y0129553D01*
X0016493Y0129368D01*
X0016450Y0129183D01*
X0016411Y0128997D01*
X0016376Y0128810D01*
X0016347Y0128622D01*
X0016321Y0128433D01*
X0016301Y0128244D01*
X0016285Y0128054D01*
X0016273Y0127864D01*
X0016266Y0127674D01*
X0016264Y0127484D01*
X0016264Y0025122D01*
X0016266Y0024932D01*
X0016273Y0024742D01*
X0016285Y0024552D01*
X0016301Y0024362D01*
X0016321Y0024173D01*
X0016347Y0023984D01*
X0016376Y0023796D01*
X0016411Y0023609D01*
X0016450Y0023423D01*
X0016493Y0023238D01*
X0016541Y0023053D01*
X0016593Y0022870D01*
X0016649Y0022689D01*
X0016710Y0022509D01*
X0016776Y0022330D01*
X0016845Y0022153D01*
X0016919Y0021977D01*
X0016997Y0021804D01*
X0017080Y0021632D01*
X0017166Y0021463D01*
X0017256Y0021295D01*
X0017351Y0021130D01*
X0017449Y0020967D01*
X0017552Y0020807D01*
X0017658Y0020649D01*
X0017768Y0020494D01*
X0017881Y0020341D01*
X0017999Y0020191D01*
X0018120Y0020045D01*
X0018244Y0019901D01*
X0018372Y0019760D01*
X0018503Y0019622D01*
X0018638Y0019487D01*
X0018776Y0019356D01*
X0018917Y0019228D01*
X0019061Y0019104D01*
X0019207Y0018983D01*
X0019357Y0018865D01*
X0019510Y0018752D01*
X0019665Y0018642D01*
X0019823Y0018536D01*
X0019983Y0018433D01*
X0020146Y0018335D01*
X0020311Y0018240D01*
X0020479Y0018150D01*
X0020648Y0018064D01*
X0020820Y0017981D01*
X0020993Y0017903D01*
X0021169Y0017829D01*
X0021346Y0017760D01*
X0021525Y0017694D01*
X0021705Y0017633D01*
X0021886Y0017577D01*
X0022069Y0017525D01*
X0022254Y0017477D01*
X0022439Y0017434D01*
X0022625Y0017395D01*
X0022812Y0017360D01*
X0023000Y0017331D01*
X0023189Y0017305D01*
X0023378Y0017285D01*
X0023568Y0017269D01*
X0023758Y0017257D01*
X0023948Y0017250D01*
X0024138Y0017248D01*
D11*
X0025713Y0057602D03*
X0032406Y0057602D03*
X0043429Y0066461D03*
X0050122Y0066461D03*
X0114295Y0072366D03*
X0120988Y0072366D03*
X0120988Y0080240D03*
X0114295Y0080240D03*
X0114295Y0088114D03*
X0120988Y0088114D03*
X0120988Y0095988D03*
X0114295Y0095988D03*
X0114295Y0103862D03*
X0120988Y0103862D03*
X0175319Y0092051D03*
X0182012Y0092051D03*
X0182051Y0084059D03*
X0175358Y0084059D03*
X0175319Y0075319D03*
X0182012Y0075319D03*
D12*
X0162213Y0074921D02*
X0159291Y0074921D01*
X0159291Y0075717D01*
X0162213Y0075717D01*
X0162213Y0074921D01*
X0162213Y0075174D02*
X0159291Y0075174D01*
X0159291Y0075427D02*
X0162213Y0075427D01*
X0162213Y0075680D02*
X0159291Y0075680D01*
X0159291Y0076889D02*
X0162213Y0076889D01*
X0159291Y0076889D02*
X0159291Y0077685D01*
X0162213Y0077685D01*
X0162213Y0076889D01*
X0162213Y0077142D02*
X0159291Y0077142D01*
X0159291Y0077395D02*
X0162213Y0077395D01*
X0162213Y0077648D02*
X0159291Y0077648D01*
X0159291Y0078858D02*
X0162213Y0078858D01*
X0159291Y0078858D02*
X0159291Y0079654D01*
X0162213Y0079654D01*
X0162213Y0078858D01*
X0162213Y0079111D02*
X0159291Y0079111D01*
X0159291Y0079364D02*
X0162213Y0079364D01*
X0162213Y0079617D02*
X0159291Y0079617D01*
X0159291Y0080826D02*
X0162213Y0080826D01*
X0159291Y0080826D02*
X0159291Y0081622D01*
X0162213Y0081622D01*
X0162213Y0080826D01*
X0162213Y0081079D02*
X0159291Y0081079D01*
X0159291Y0081332D02*
X0162213Y0081332D01*
X0162213Y0081585D02*
X0159291Y0081585D01*
X0159291Y0082795D02*
X0162213Y0082795D01*
X0159291Y0082795D02*
X0159291Y0083591D01*
X0162213Y0083591D01*
X0162213Y0082795D01*
X0162213Y0083048D02*
X0159291Y0083048D01*
X0159291Y0083301D02*
X0162213Y0083301D01*
X0162213Y0083554D02*
X0159291Y0083554D01*
X0159291Y0084763D02*
X0162213Y0084763D01*
X0159291Y0084763D02*
X0159291Y0085559D01*
X0162213Y0085559D01*
X0162213Y0084763D01*
X0162213Y0085016D02*
X0159291Y0085016D01*
X0159291Y0085269D02*
X0162213Y0085269D01*
X0162213Y0085522D02*
X0159291Y0085522D01*
X0159291Y0086732D02*
X0162213Y0086732D01*
X0159291Y0086732D02*
X0159291Y0087528D01*
X0162213Y0087528D01*
X0162213Y0086732D01*
X0162213Y0086985D02*
X0159291Y0086985D01*
X0159291Y0087238D02*
X0162213Y0087238D01*
X0162213Y0087491D02*
X0159291Y0087491D01*
X0159291Y0088700D02*
X0162213Y0088700D01*
X0159291Y0088700D02*
X0159291Y0089496D01*
X0162213Y0089496D01*
X0162213Y0088700D01*
X0162213Y0088953D02*
X0159291Y0088953D01*
X0159291Y0089206D02*
X0162213Y0089206D01*
X0162213Y0089459D02*
X0159291Y0089459D01*
X0158394Y0090393D02*
X0157598Y0090393D01*
X0157598Y0093315D01*
X0158394Y0093315D01*
X0158394Y0090393D01*
X0158394Y0090646D02*
X0157598Y0090646D01*
X0157598Y0090899D02*
X0158394Y0090899D01*
X0158394Y0091152D02*
X0157598Y0091152D01*
X0157598Y0091405D02*
X0158394Y0091405D01*
X0158394Y0091658D02*
X0157598Y0091658D01*
X0157598Y0091911D02*
X0158394Y0091911D01*
X0158394Y0092164D02*
X0157598Y0092164D01*
X0157598Y0092417D02*
X0158394Y0092417D01*
X0158394Y0092670D02*
X0157598Y0092670D01*
X0157598Y0092923D02*
X0158394Y0092923D01*
X0158394Y0093176D02*
X0157598Y0093176D01*
X0156426Y0090393D02*
X0155630Y0090393D01*
X0155630Y0093315D01*
X0156426Y0093315D01*
X0156426Y0090393D01*
X0156426Y0090646D02*
X0155630Y0090646D01*
X0155630Y0090899D02*
X0156426Y0090899D01*
X0156426Y0091152D02*
X0155630Y0091152D01*
X0155630Y0091405D02*
X0156426Y0091405D01*
X0156426Y0091658D02*
X0155630Y0091658D01*
X0155630Y0091911D02*
X0156426Y0091911D01*
X0156426Y0092164D02*
X0155630Y0092164D01*
X0155630Y0092417D02*
X0156426Y0092417D01*
X0156426Y0092670D02*
X0155630Y0092670D01*
X0155630Y0092923D02*
X0156426Y0092923D01*
X0156426Y0093176D02*
X0155630Y0093176D01*
X0154457Y0090393D02*
X0153661Y0090393D01*
X0153661Y0093315D01*
X0154457Y0093315D01*
X0154457Y0090393D01*
X0154457Y0090646D02*
X0153661Y0090646D01*
X0153661Y0090899D02*
X0154457Y0090899D01*
X0154457Y0091152D02*
X0153661Y0091152D01*
X0153661Y0091405D02*
X0154457Y0091405D01*
X0154457Y0091658D02*
X0153661Y0091658D01*
X0153661Y0091911D02*
X0154457Y0091911D01*
X0154457Y0092164D02*
X0153661Y0092164D01*
X0153661Y0092417D02*
X0154457Y0092417D01*
X0154457Y0092670D02*
X0153661Y0092670D01*
X0153661Y0092923D02*
X0154457Y0092923D01*
X0154457Y0093176D02*
X0153661Y0093176D01*
X0152489Y0090393D02*
X0151693Y0090393D01*
X0151693Y0093315D01*
X0152489Y0093315D01*
X0152489Y0090393D01*
X0152489Y0090646D02*
X0151693Y0090646D01*
X0151693Y0090899D02*
X0152489Y0090899D01*
X0152489Y0091152D02*
X0151693Y0091152D01*
X0151693Y0091405D02*
X0152489Y0091405D01*
X0152489Y0091658D02*
X0151693Y0091658D01*
X0151693Y0091911D02*
X0152489Y0091911D01*
X0152489Y0092164D02*
X0151693Y0092164D01*
X0151693Y0092417D02*
X0152489Y0092417D01*
X0152489Y0092670D02*
X0151693Y0092670D01*
X0151693Y0092923D02*
X0152489Y0092923D01*
X0152489Y0093176D02*
X0151693Y0093176D01*
X0150520Y0090393D02*
X0149724Y0090393D01*
X0149724Y0093315D01*
X0150520Y0093315D01*
X0150520Y0090393D01*
X0150520Y0090646D02*
X0149724Y0090646D01*
X0149724Y0090899D02*
X0150520Y0090899D01*
X0150520Y0091152D02*
X0149724Y0091152D01*
X0149724Y0091405D02*
X0150520Y0091405D01*
X0150520Y0091658D02*
X0149724Y0091658D01*
X0149724Y0091911D02*
X0150520Y0091911D01*
X0150520Y0092164D02*
X0149724Y0092164D01*
X0149724Y0092417D02*
X0150520Y0092417D01*
X0150520Y0092670D02*
X0149724Y0092670D01*
X0149724Y0092923D02*
X0150520Y0092923D01*
X0150520Y0093176D02*
X0149724Y0093176D01*
X0148552Y0090393D02*
X0147756Y0090393D01*
X0147756Y0093315D01*
X0148552Y0093315D01*
X0148552Y0090393D01*
X0148552Y0090646D02*
X0147756Y0090646D01*
X0147756Y0090899D02*
X0148552Y0090899D01*
X0148552Y0091152D02*
X0147756Y0091152D01*
X0147756Y0091405D02*
X0148552Y0091405D01*
X0148552Y0091658D02*
X0147756Y0091658D01*
X0147756Y0091911D02*
X0148552Y0091911D01*
X0148552Y0092164D02*
X0147756Y0092164D01*
X0147756Y0092417D02*
X0148552Y0092417D01*
X0148552Y0092670D02*
X0147756Y0092670D01*
X0147756Y0092923D02*
X0148552Y0092923D01*
X0148552Y0093176D02*
X0147756Y0093176D01*
X0146583Y0090393D02*
X0145787Y0090393D01*
X0145787Y0093315D01*
X0146583Y0093315D01*
X0146583Y0090393D01*
X0146583Y0090646D02*
X0145787Y0090646D01*
X0145787Y0090899D02*
X0146583Y0090899D01*
X0146583Y0091152D02*
X0145787Y0091152D01*
X0145787Y0091405D02*
X0146583Y0091405D01*
X0146583Y0091658D02*
X0145787Y0091658D01*
X0145787Y0091911D02*
X0146583Y0091911D01*
X0146583Y0092164D02*
X0145787Y0092164D01*
X0145787Y0092417D02*
X0146583Y0092417D01*
X0146583Y0092670D02*
X0145787Y0092670D01*
X0145787Y0092923D02*
X0146583Y0092923D01*
X0146583Y0093176D02*
X0145787Y0093176D01*
X0144615Y0090393D02*
X0143819Y0090393D01*
X0143819Y0093315D01*
X0144615Y0093315D01*
X0144615Y0090393D01*
X0144615Y0090646D02*
X0143819Y0090646D01*
X0143819Y0090899D02*
X0144615Y0090899D01*
X0144615Y0091152D02*
X0143819Y0091152D01*
X0143819Y0091405D02*
X0144615Y0091405D01*
X0144615Y0091658D02*
X0143819Y0091658D01*
X0143819Y0091911D02*
X0144615Y0091911D01*
X0144615Y0092164D02*
X0143819Y0092164D01*
X0143819Y0092417D02*
X0144615Y0092417D01*
X0144615Y0092670D02*
X0143819Y0092670D01*
X0143819Y0092923D02*
X0144615Y0092923D01*
X0144615Y0093176D02*
X0143819Y0093176D01*
X0142922Y0088700D02*
X0140000Y0088700D01*
X0140000Y0089496D01*
X0142922Y0089496D01*
X0142922Y0088700D01*
X0142922Y0088953D02*
X0140000Y0088953D01*
X0140000Y0089206D02*
X0142922Y0089206D01*
X0142922Y0089459D02*
X0140000Y0089459D01*
X0140000Y0086732D02*
X0142922Y0086732D01*
X0140000Y0086732D02*
X0140000Y0087528D01*
X0142922Y0087528D01*
X0142922Y0086732D01*
X0142922Y0086985D02*
X0140000Y0086985D01*
X0140000Y0087238D02*
X0142922Y0087238D01*
X0142922Y0087491D02*
X0140000Y0087491D01*
X0140000Y0084763D02*
X0142922Y0084763D01*
X0140000Y0084763D02*
X0140000Y0085559D01*
X0142922Y0085559D01*
X0142922Y0084763D01*
X0142922Y0085016D02*
X0140000Y0085016D01*
X0140000Y0085269D02*
X0142922Y0085269D01*
X0142922Y0085522D02*
X0140000Y0085522D01*
X0140000Y0082795D02*
X0142922Y0082795D01*
X0140000Y0082795D02*
X0140000Y0083591D01*
X0142922Y0083591D01*
X0142922Y0082795D01*
X0142922Y0083048D02*
X0140000Y0083048D01*
X0140000Y0083301D02*
X0142922Y0083301D01*
X0142922Y0083554D02*
X0140000Y0083554D01*
X0140000Y0080826D02*
X0142922Y0080826D01*
X0140000Y0080826D02*
X0140000Y0081622D01*
X0142922Y0081622D01*
X0142922Y0080826D01*
X0142922Y0081079D02*
X0140000Y0081079D01*
X0140000Y0081332D02*
X0142922Y0081332D01*
X0142922Y0081585D02*
X0140000Y0081585D01*
X0140000Y0078858D02*
X0142922Y0078858D01*
X0140000Y0078858D02*
X0140000Y0079654D01*
X0142922Y0079654D01*
X0142922Y0078858D01*
X0142922Y0079111D02*
X0140000Y0079111D01*
X0140000Y0079364D02*
X0142922Y0079364D01*
X0142922Y0079617D02*
X0140000Y0079617D01*
X0140000Y0076889D02*
X0142922Y0076889D01*
X0140000Y0076889D02*
X0140000Y0077685D01*
X0142922Y0077685D01*
X0142922Y0076889D01*
X0142922Y0077142D02*
X0140000Y0077142D01*
X0140000Y0077395D02*
X0142922Y0077395D01*
X0142922Y0077648D02*
X0140000Y0077648D01*
X0140000Y0074921D02*
X0142922Y0074921D01*
X0140000Y0074921D02*
X0140000Y0075717D01*
X0142922Y0075717D01*
X0142922Y0074921D01*
X0142922Y0075174D02*
X0140000Y0075174D01*
X0140000Y0075427D02*
X0142922Y0075427D01*
X0142922Y0075680D02*
X0140000Y0075680D01*
X0143819Y0071102D02*
X0144615Y0071102D01*
X0143819Y0071102D02*
X0143819Y0074024D01*
X0144615Y0074024D01*
X0144615Y0071102D01*
X0144615Y0071355D02*
X0143819Y0071355D01*
X0143819Y0071608D02*
X0144615Y0071608D01*
X0144615Y0071861D02*
X0143819Y0071861D01*
X0143819Y0072114D02*
X0144615Y0072114D01*
X0144615Y0072367D02*
X0143819Y0072367D01*
X0143819Y0072620D02*
X0144615Y0072620D01*
X0144615Y0072873D02*
X0143819Y0072873D01*
X0143819Y0073126D02*
X0144615Y0073126D01*
X0144615Y0073379D02*
X0143819Y0073379D01*
X0143819Y0073632D02*
X0144615Y0073632D01*
X0144615Y0073885D02*
X0143819Y0073885D01*
X0145787Y0071102D02*
X0146583Y0071102D01*
X0145787Y0071102D02*
X0145787Y0074024D01*
X0146583Y0074024D01*
X0146583Y0071102D01*
X0146583Y0071355D02*
X0145787Y0071355D01*
X0145787Y0071608D02*
X0146583Y0071608D01*
X0146583Y0071861D02*
X0145787Y0071861D01*
X0145787Y0072114D02*
X0146583Y0072114D01*
X0146583Y0072367D02*
X0145787Y0072367D01*
X0145787Y0072620D02*
X0146583Y0072620D01*
X0146583Y0072873D02*
X0145787Y0072873D01*
X0145787Y0073126D02*
X0146583Y0073126D01*
X0146583Y0073379D02*
X0145787Y0073379D01*
X0145787Y0073632D02*
X0146583Y0073632D01*
X0146583Y0073885D02*
X0145787Y0073885D01*
X0147756Y0071102D02*
X0148552Y0071102D01*
X0147756Y0071102D02*
X0147756Y0074024D01*
X0148552Y0074024D01*
X0148552Y0071102D01*
X0148552Y0071355D02*
X0147756Y0071355D01*
X0147756Y0071608D02*
X0148552Y0071608D01*
X0148552Y0071861D02*
X0147756Y0071861D01*
X0147756Y0072114D02*
X0148552Y0072114D01*
X0148552Y0072367D02*
X0147756Y0072367D01*
X0147756Y0072620D02*
X0148552Y0072620D01*
X0148552Y0072873D02*
X0147756Y0072873D01*
X0147756Y0073126D02*
X0148552Y0073126D01*
X0148552Y0073379D02*
X0147756Y0073379D01*
X0147756Y0073632D02*
X0148552Y0073632D01*
X0148552Y0073885D02*
X0147756Y0073885D01*
X0149724Y0071102D02*
X0150520Y0071102D01*
X0149724Y0071102D02*
X0149724Y0074024D01*
X0150520Y0074024D01*
X0150520Y0071102D01*
X0150520Y0071355D02*
X0149724Y0071355D01*
X0149724Y0071608D02*
X0150520Y0071608D01*
X0150520Y0071861D02*
X0149724Y0071861D01*
X0149724Y0072114D02*
X0150520Y0072114D01*
X0150520Y0072367D02*
X0149724Y0072367D01*
X0149724Y0072620D02*
X0150520Y0072620D01*
X0150520Y0072873D02*
X0149724Y0072873D01*
X0149724Y0073126D02*
X0150520Y0073126D01*
X0150520Y0073379D02*
X0149724Y0073379D01*
X0149724Y0073632D02*
X0150520Y0073632D01*
X0150520Y0073885D02*
X0149724Y0073885D01*
X0151693Y0071102D02*
X0152489Y0071102D01*
X0151693Y0071102D02*
X0151693Y0074024D01*
X0152489Y0074024D01*
X0152489Y0071102D01*
X0152489Y0071355D02*
X0151693Y0071355D01*
X0151693Y0071608D02*
X0152489Y0071608D01*
X0152489Y0071861D02*
X0151693Y0071861D01*
X0151693Y0072114D02*
X0152489Y0072114D01*
X0152489Y0072367D02*
X0151693Y0072367D01*
X0151693Y0072620D02*
X0152489Y0072620D01*
X0152489Y0072873D02*
X0151693Y0072873D01*
X0151693Y0073126D02*
X0152489Y0073126D01*
X0152489Y0073379D02*
X0151693Y0073379D01*
X0151693Y0073632D02*
X0152489Y0073632D01*
X0152489Y0073885D02*
X0151693Y0073885D01*
X0153661Y0071102D02*
X0154457Y0071102D01*
X0153661Y0071102D02*
X0153661Y0074024D01*
X0154457Y0074024D01*
X0154457Y0071102D01*
X0154457Y0071355D02*
X0153661Y0071355D01*
X0153661Y0071608D02*
X0154457Y0071608D01*
X0154457Y0071861D02*
X0153661Y0071861D01*
X0153661Y0072114D02*
X0154457Y0072114D01*
X0154457Y0072367D02*
X0153661Y0072367D01*
X0153661Y0072620D02*
X0154457Y0072620D01*
X0154457Y0072873D02*
X0153661Y0072873D01*
X0153661Y0073126D02*
X0154457Y0073126D01*
X0154457Y0073379D02*
X0153661Y0073379D01*
X0153661Y0073632D02*
X0154457Y0073632D01*
X0154457Y0073885D02*
X0153661Y0073885D01*
X0155630Y0071102D02*
X0156426Y0071102D01*
X0155630Y0071102D02*
X0155630Y0074024D01*
X0156426Y0074024D01*
X0156426Y0071102D01*
X0156426Y0071355D02*
X0155630Y0071355D01*
X0155630Y0071608D02*
X0156426Y0071608D01*
X0156426Y0071861D02*
X0155630Y0071861D01*
X0155630Y0072114D02*
X0156426Y0072114D01*
X0156426Y0072367D02*
X0155630Y0072367D01*
X0155630Y0072620D02*
X0156426Y0072620D01*
X0156426Y0072873D02*
X0155630Y0072873D01*
X0155630Y0073126D02*
X0156426Y0073126D01*
X0156426Y0073379D02*
X0155630Y0073379D01*
X0155630Y0073632D02*
X0156426Y0073632D01*
X0156426Y0073885D02*
X0155630Y0073885D01*
X0157598Y0071102D02*
X0158394Y0071102D01*
X0157598Y0071102D02*
X0157598Y0074024D01*
X0158394Y0074024D01*
X0158394Y0071102D01*
X0158394Y0071355D02*
X0157598Y0071355D01*
X0157598Y0071608D02*
X0158394Y0071608D01*
X0158394Y0071861D02*
X0157598Y0071861D01*
X0157598Y0072114D02*
X0158394Y0072114D01*
X0158394Y0072367D02*
X0157598Y0072367D01*
X0157598Y0072620D02*
X0158394Y0072620D01*
X0158394Y0072873D02*
X0157598Y0072873D01*
X0157598Y0073126D02*
X0158394Y0073126D01*
X0158394Y0073379D02*
X0157598Y0073379D01*
X0157598Y0073632D02*
X0158394Y0073632D01*
X0158394Y0073885D02*
X0157598Y0073885D01*
D13*
X0151106Y0082209D03*
D14*
X0128469Y0079256D03*
X0128469Y0089098D03*
D15*
X0144217Y0050516D03*
X0144217Y0046972D03*
X0157996Y0046972D03*
X0157996Y0050516D03*
D16*
X0199650Y0097563D03*
X0199650Y0123941D03*
D17*
X0198685Y0069492D03*
X0203685Y0069492D03*
X0203685Y0064492D03*
X0198685Y0064492D03*
X0198685Y0059492D03*
X0203685Y0059492D03*
X0203685Y0054492D03*
X0198685Y0054492D03*
X0198685Y0049492D03*
X0203685Y0049492D03*
D18*
X0195634Y0027091D03*
X0185634Y0027091D03*
X0175634Y0027091D03*
X0165634Y0027091D03*
X0026106Y0035870D03*
X0026106Y0045870D03*
X0025122Y0099846D03*
X0025122Y0109846D03*
X0054689Y0127484D03*
X0064689Y0127484D03*
X0074689Y0127484D03*
X0084689Y0127484D03*
X0094689Y0127484D03*
X0104689Y0127484D03*
X0114689Y0127484D03*
X0124689Y0127484D03*
X0134689Y0127484D03*
X0144689Y0127484D03*
X0154689Y0127484D03*
X0164689Y0127484D03*
X0174689Y0127484D03*
D19*
X0090009Y0046219D02*
X0086259Y0046219D01*
X0090009Y0046219D02*
X0090009Y0044969D01*
X0086259Y0044969D01*
X0086259Y0046219D01*
X0086259Y0046156D02*
X0090009Y0046156D01*
X0090009Y0038739D02*
X0086259Y0038739D01*
X0090009Y0038739D02*
X0090009Y0037489D01*
X0086259Y0037489D01*
X0086259Y0038739D01*
X0086259Y0038676D02*
X0090009Y0038676D01*
X0080127Y0037489D02*
X0076377Y0037489D01*
X0076377Y0038739D01*
X0080127Y0038739D01*
X0080127Y0037489D01*
X0080127Y0038676D02*
X0076377Y0038676D01*
X0076377Y0041229D02*
X0080127Y0041229D01*
X0076377Y0041229D02*
X0076377Y0042479D01*
X0080127Y0042479D01*
X0080127Y0041229D01*
X0080127Y0042416D02*
X0076377Y0042416D01*
X0076377Y0044969D02*
X0080127Y0044969D01*
X0076377Y0044969D02*
X0076377Y0046219D01*
X0080127Y0046219D01*
X0080127Y0044969D01*
X0080127Y0046156D02*
X0076377Y0046156D01*
D20*
X0065476Y0046717D03*
X0065476Y0039039D03*
D21*
X0097957Y0039098D03*
X0105831Y0039098D03*
X0113705Y0039098D03*
X0113705Y0046579D03*
X0105831Y0046579D03*
X0097957Y0046579D03*
D22*
X0077366Y0065476D03*
X0067366Y0065476D03*
X0067366Y0077287D03*
X0077366Y0077287D03*
D23*
X0050676Y0059634D03*
X0043076Y0059634D03*
X0046876Y0051634D03*
X0050676Y0044870D03*
X0043076Y0044870D03*
X0046876Y0036870D03*
D24*
X0069728Y0028980D03*
X0077209Y0028980D03*
D25*
X0077709Y0029230D02*
X0122098Y0029230D01*
X0123096Y0028232D02*
X0081268Y0028232D01*
X0081268Y0028480D02*
X0077709Y0028480D01*
X0077709Y0029480D01*
X0081268Y0029480D01*
X0081268Y0032131D01*
X0081165Y0032512D01*
X0080968Y0032854D01*
X0080689Y0033133D01*
X0080347Y0033331D01*
X0079965Y0033433D01*
X0077709Y0033433D01*
X0077709Y0029480D01*
X0076709Y0029480D01*
X0076709Y0033433D01*
X0074452Y0033433D01*
X0074071Y0033331D01*
X0073966Y0033270D01*
X0073966Y0042517D01*
X0073276Y0043207D01*
X0074372Y0043207D01*
X0074252Y0042759D01*
X0074252Y0041979D01*
X0078127Y0041979D01*
X0078127Y0041729D01*
X0078127Y0040464D01*
X0078377Y0040464D01*
X0078377Y0041729D01*
X0078127Y0041729D01*
X0074252Y0041729D01*
X0074252Y0040950D01*
X0074397Y0040409D01*
X0074677Y0039925D01*
X0074900Y0039701D01*
X0074652Y0039454D01*
X0074652Y0036775D01*
X0075662Y0035764D01*
X0080841Y0035764D01*
X0081852Y0036775D01*
X0081852Y0039454D01*
X0081604Y0039701D01*
X0081827Y0039925D01*
X0082107Y0040409D01*
X0082252Y0040950D01*
X0082252Y0041729D01*
X0078377Y0041729D01*
X0078377Y0041979D01*
X0082252Y0041979D01*
X0082252Y0042759D01*
X0082132Y0043207D01*
X0083267Y0043207D01*
X0082577Y0042517D01*
X0082577Y0033318D01*
X0083514Y0032380D01*
X0118947Y0032380D01*
X0125837Y0025491D01*
X0161534Y0025491D01*
X0161904Y0024598D01*
X0163141Y0023360D01*
X0164759Y0022691D01*
X0166509Y0022691D01*
X0168126Y0023360D01*
X0169364Y0024598D01*
X0170034Y0026215D01*
X0170034Y0027966D01*
X0169364Y0029583D01*
X0168126Y0030821D01*
X0166509Y0031491D01*
X0164759Y0031491D01*
X0163141Y0030821D01*
X0161904Y0029583D01*
X0161534Y0028691D01*
X0127163Y0028691D01*
X0121210Y0034643D01*
X0121210Y0042517D01*
X0120273Y0043454D01*
X0118059Y0043454D01*
X0118157Y0043822D01*
X0118157Y0046079D01*
X0114205Y0046079D01*
X0114205Y0047079D01*
X0113205Y0047079D01*
X0113205Y0050638D01*
X0110554Y0050638D01*
X0110173Y0050536D01*
X0109831Y0050338D01*
X0109768Y0050275D01*
X0109704Y0050338D01*
X0109362Y0050536D01*
X0108981Y0050638D01*
X0106331Y0050638D01*
X0106331Y0047079D01*
X0113205Y0047079D01*
X0113205Y0046079D01*
X0109252Y0046079D01*
X0106331Y0046079D01*
X0106331Y0047079D01*
X0105331Y0047079D01*
X0105331Y0050638D01*
X0102680Y0050638D01*
X0102299Y0050536D01*
X0101957Y0050338D01*
X0101894Y0050275D01*
X0101830Y0050338D01*
X0101488Y0050536D01*
X0101107Y0050638D01*
X0098457Y0050638D01*
X0098457Y0047079D01*
X0105331Y0047079D01*
X0105331Y0046079D01*
X0101378Y0046079D01*
X0098457Y0046079D01*
X0098457Y0047079D01*
X0097457Y0047079D01*
X0097457Y0050638D01*
X0094806Y0050638D01*
X0094425Y0050536D01*
X0094083Y0050338D01*
X0093804Y0050059D01*
X0093606Y0049717D01*
X0093504Y0049335D01*
X0093504Y0047079D01*
X0097457Y0047079D01*
X0097457Y0046079D01*
X0093504Y0046079D01*
X0093504Y0043822D01*
X0093603Y0043454D01*
X0090933Y0043454D01*
X0091734Y0044255D01*
X0091734Y0046934D01*
X0090723Y0047944D01*
X0085544Y0047944D01*
X0084793Y0047193D01*
X0084793Y0051375D01*
X0083856Y0052313D01*
X0057924Y0052313D01*
X0056987Y0051375D01*
X0056987Y0044144D01*
X0057800Y0043331D01*
X0056987Y0042517D01*
X0056987Y0041486D01*
X0048376Y0041486D01*
X0048376Y0042314D01*
X0048670Y0042020D01*
X0052681Y0042020D01*
X0053326Y0042664D01*
X0053326Y0047076D01*
X0052681Y0047720D01*
X0052276Y0047720D01*
X0052276Y0051412D01*
X0051338Y0052350D01*
X0050391Y0053297D01*
X0049526Y0053297D01*
X0049526Y0053839D01*
X0048881Y0054484D01*
X0044870Y0054484D01*
X0044226Y0053839D01*
X0044226Y0053234D01*
X0035690Y0053234D01*
X0034390Y0054534D01*
X0035027Y0054534D01*
X0035671Y0055178D01*
X0035671Y0060027D01*
X0035027Y0060671D01*
X0029785Y0060671D01*
X0029140Y0060027D01*
X0029140Y0055178D01*
X0029785Y0054534D01*
X0030806Y0054534D01*
X0030806Y0053593D01*
X0032086Y0052313D01*
X0027706Y0052313D01*
X0027706Y0054534D01*
X0028334Y0054534D01*
X0028978Y0055178D01*
X0028978Y0060027D01*
X0028334Y0060671D01*
X0023092Y0060671D01*
X0022447Y0060027D01*
X0022447Y0055178D01*
X0023092Y0054534D01*
X0024506Y0054534D01*
X0024506Y0052313D01*
X0017764Y0052313D01*
X0017764Y0127484D01*
X0017842Y0128481D01*
X0018458Y0130378D01*
X0019631Y0131991D01*
X0021244Y0133164D01*
X0023141Y0133780D01*
X0024138Y0133858D01*
X0205240Y0133858D01*
X0206237Y0133780D01*
X0208134Y0133164D01*
X0209747Y0131991D01*
X0210919Y0130378D01*
X0211536Y0128481D01*
X0211614Y0127484D01*
X0211614Y0025122D01*
X0211536Y0024125D01*
X0210919Y0022228D01*
X0209747Y0020615D01*
X0208134Y0019443D01*
X0206237Y0018826D01*
X0205240Y0018748D01*
X0024138Y0018748D01*
X0023141Y0018826D01*
X0021244Y0019443D01*
X0019631Y0020615D01*
X0018458Y0022228D01*
X0017842Y0024125D01*
X0017764Y0025122D01*
X0017764Y0040254D01*
X0024138Y0040254D01*
X0023591Y0039975D01*
X0022979Y0039531D01*
X0022445Y0038997D01*
X0022001Y0038386D01*
X0021658Y0037713D01*
X0021424Y0036994D01*
X0021323Y0036354D01*
X0025622Y0036354D01*
X0025622Y0035386D01*
X0021323Y0035386D01*
X0021424Y0034746D01*
X0021658Y0034028D01*
X0022001Y0033354D01*
X0022445Y0032743D01*
X0022979Y0032209D01*
X0023591Y0031765D01*
X0024264Y0031422D01*
X0024982Y0031188D01*
X0025622Y0031087D01*
X0025622Y0035386D01*
X0026591Y0035386D01*
X0026591Y0036354D01*
X0030889Y0036354D01*
X0030788Y0036994D01*
X0030555Y0037713D01*
X0030212Y0038386D01*
X0029768Y0038997D01*
X0029233Y0039531D01*
X0028622Y0039975D01*
X0028075Y0040254D01*
X0042223Y0040254D01*
X0042223Y0039223D01*
X0042223Y0032333D01*
X0043160Y0031396D01*
X0060924Y0031396D01*
X0060924Y0023475D01*
X0061861Y0022538D01*
X0073029Y0022538D01*
X0073966Y0023475D01*
X0073966Y0024690D01*
X0074071Y0024630D01*
X0074452Y0024528D01*
X0076709Y0024528D01*
X0076709Y0028480D01*
X0077709Y0028480D01*
X0077709Y0024528D01*
X0079965Y0024528D01*
X0080347Y0024630D01*
X0080689Y0024827D01*
X0080968Y0025107D01*
X0081165Y0025449D01*
X0081268Y0025830D01*
X0081268Y0028480D01*
X0081268Y0027233D02*
X0124095Y0027233D01*
X0125093Y0026235D02*
X0081268Y0026235D01*
X0081043Y0025236D02*
X0161639Y0025236D01*
X0162264Y0024238D02*
X0073966Y0024238D01*
X0073730Y0023239D02*
X0163434Y0023239D01*
X0167833Y0023239D02*
X0173434Y0023239D01*
X0173141Y0023360D02*
X0174759Y0022691D01*
X0176509Y0022691D01*
X0178126Y0023360D01*
X0179364Y0024598D01*
X0180034Y0026215D01*
X0180034Y0027966D01*
X0179364Y0029583D01*
X0178126Y0030821D01*
X0176509Y0031491D01*
X0174759Y0031491D01*
X0173141Y0030821D01*
X0171904Y0029583D01*
X0171234Y0027966D01*
X0171234Y0026215D01*
X0171904Y0024598D01*
X0173141Y0023360D01*
X0172264Y0024238D02*
X0169003Y0024238D01*
X0169628Y0025236D02*
X0171639Y0025236D01*
X0171234Y0026235D02*
X0170034Y0026235D01*
X0170034Y0027233D02*
X0171234Y0027233D01*
X0171344Y0028232D02*
X0169924Y0028232D01*
X0169510Y0029230D02*
X0171758Y0029230D01*
X0172549Y0030229D02*
X0168718Y0030229D01*
X0167145Y0031227D02*
X0174123Y0031227D01*
X0177145Y0031227D02*
X0184034Y0031227D01*
X0184034Y0031190D02*
X0183141Y0030821D01*
X0181904Y0029583D01*
X0181234Y0027966D01*
X0181234Y0026215D01*
X0181904Y0024598D01*
X0183141Y0023360D01*
X0184759Y0022691D01*
X0186509Y0022691D01*
X0188126Y0023360D01*
X0189364Y0024598D01*
X0190034Y0026215D01*
X0190034Y0027966D01*
X0189364Y0029583D01*
X0188126Y0030821D01*
X0187234Y0031190D01*
X0187234Y0051297D01*
X0186297Y0052234D01*
X0183265Y0055265D01*
X0180312Y0055265D01*
X0180297Y0055281D01*
X0178475Y0055281D01*
X0177686Y0056070D01*
X0175707Y0056070D01*
X0174308Y0054671D01*
X0174308Y0052692D01*
X0175707Y0051292D01*
X0177686Y0051292D01*
X0178475Y0052081D01*
X0178971Y0052081D01*
X0178987Y0052065D01*
X0181940Y0052065D01*
X0184034Y0049971D01*
X0184034Y0031190D01*
X0184034Y0032226D02*
X0123628Y0032226D01*
X0124626Y0031227D02*
X0164123Y0031227D01*
X0162549Y0030229D02*
X0125625Y0030229D01*
X0126623Y0029230D02*
X0161758Y0029230D01*
X0165634Y0027091D02*
X0126500Y0027091D01*
X0119610Y0033980D01*
X0084177Y0033980D01*
X0084177Y0037048D01*
X0084279Y0036669D01*
X0084558Y0036184D01*
X0084954Y0035789D01*
X0085439Y0035509D01*
X0085979Y0035364D01*
X0088009Y0035364D01*
X0088009Y0037989D01*
X0088259Y0037989D01*
X0088259Y0038239D01*
X0092134Y0038239D01*
X0092134Y0039019D01*
X0091989Y0039559D01*
X0091709Y0040044D01*
X0091314Y0040440D01*
X0090829Y0040719D01*
X0090289Y0040864D01*
X0088259Y0040864D01*
X0088259Y0038239D01*
X0088009Y0038239D01*
X0088009Y0040864D01*
X0085979Y0040864D01*
X0085439Y0040719D01*
X0084954Y0040440D01*
X0084558Y0040044D01*
X0084279Y0039559D01*
X0084177Y0039180D01*
X0084177Y0041854D01*
X0093504Y0041854D01*
X0093504Y0039598D01*
X0097457Y0039598D01*
X0097457Y0038598D01*
X0098457Y0038598D01*
X0098457Y0035039D01*
X0101107Y0035039D01*
X0101488Y0035142D01*
X0101830Y0035339D01*
X0101894Y0035402D01*
X0101957Y0035339D01*
X0102299Y0035142D01*
X0102680Y0035039D01*
X0105331Y0035039D01*
X0105331Y0038598D01*
X0106331Y0038598D01*
X0106331Y0035039D01*
X0108981Y0035039D01*
X0109362Y0035142D01*
X0109704Y0035339D01*
X0109768Y0035402D01*
X0109831Y0035339D01*
X0110173Y0035142D01*
X0110554Y0035039D01*
X0113205Y0035039D01*
X0113205Y0038598D01*
X0114205Y0038598D01*
X0114205Y0035039D01*
X0116855Y0035039D01*
X0117236Y0035142D01*
X0117578Y0035339D01*
X0117858Y0035618D01*
X0118055Y0035960D01*
X0118157Y0036342D01*
X0118157Y0038598D01*
X0114205Y0038598D01*
X0114205Y0039598D01*
X0118157Y0039598D01*
X0118157Y0041854D01*
X0119610Y0041854D01*
X0119610Y0033980D01*
X0119610Y0034223D02*
X0084177Y0034223D01*
X0084177Y0035221D02*
X0094287Y0035221D01*
X0094425Y0035142D02*
X0094806Y0035039D01*
X0097457Y0035039D01*
X0097457Y0038598D01*
X0093504Y0038598D01*
X0093504Y0036342D01*
X0093606Y0035960D01*
X0093804Y0035618D01*
X0094083Y0035339D01*
X0094425Y0035142D01*
X0093537Y0036220D02*
X0091730Y0036220D01*
X0091709Y0036184D02*
X0091989Y0036669D01*
X0092134Y0037209D01*
X0092134Y0037989D01*
X0088259Y0037989D01*
X0088259Y0035364D01*
X0090289Y0035364D01*
X0090829Y0035509D01*
X0091314Y0035789D01*
X0091709Y0036184D01*
X0092134Y0037218D02*
X0093504Y0037218D01*
X0093504Y0038217D02*
X0088259Y0038217D01*
X0088259Y0039215D02*
X0088009Y0039215D01*
X0088009Y0040214D02*
X0088259Y0040214D01*
X0091539Y0040214D02*
X0093504Y0040214D01*
X0093504Y0041212D02*
X0084177Y0041212D01*
X0084177Y0040214D02*
X0084728Y0040214D01*
X0084186Y0039215D02*
X0084177Y0039215D01*
X0082577Y0039215D02*
X0081852Y0039215D01*
X0081852Y0038217D02*
X0082577Y0038217D01*
X0082577Y0037218D02*
X0081852Y0037218D01*
X0081297Y0036220D02*
X0082577Y0036220D01*
X0082577Y0035221D02*
X0073966Y0035221D01*
X0073966Y0034223D02*
X0082577Y0034223D01*
X0082671Y0033224D02*
X0080531Y0033224D01*
X0081242Y0032226D02*
X0119102Y0032226D01*
X0120101Y0031227D02*
X0081268Y0031227D01*
X0081268Y0030229D02*
X0121099Y0030229D01*
X0122629Y0033224D02*
X0184034Y0033224D01*
X0184034Y0034223D02*
X0121631Y0034223D01*
X0121210Y0035221D02*
X0184034Y0035221D01*
X0184034Y0036220D02*
X0121210Y0036220D01*
X0121210Y0037218D02*
X0184034Y0037218D01*
X0184034Y0038217D02*
X0121210Y0038217D01*
X0121210Y0039215D02*
X0184034Y0039215D01*
X0184034Y0040214D02*
X0121210Y0040214D01*
X0121210Y0041212D02*
X0184034Y0041212D01*
X0184034Y0042211D02*
X0121210Y0042211D01*
X0120518Y0043209D02*
X0184034Y0043209D01*
X0184034Y0044208D02*
X0118157Y0044208D01*
X0118157Y0045206D02*
X0140302Y0045206D01*
X0140319Y0045143D02*
X0140516Y0044801D01*
X0140796Y0044522D01*
X0141138Y0044325D01*
X0141519Y0044222D01*
X0144092Y0044222D01*
X0144092Y0046847D01*
X0144342Y0046847D01*
X0144342Y0047097D01*
X0148217Y0047097D01*
X0148217Y0048420D01*
X0148114Y0048801D01*
X0147917Y0049143D01*
X0147817Y0049244D01*
X0147817Y0052221D01*
X0147172Y0052866D01*
X0142037Y0052866D01*
X0142664Y0053492D01*
X0152753Y0063582D01*
X0152753Y0063582D01*
X0153691Y0064519D01*
X0153691Y0069869D01*
X0154968Y0069869D01*
X0155043Y0069943D01*
X0155118Y0069869D01*
X0156396Y0069869D01*
X0156396Y0052866D01*
X0155040Y0052866D01*
X0154396Y0052221D01*
X0154396Y0049244D01*
X0154296Y0049143D01*
X0154098Y0048801D01*
X0153996Y0048420D01*
X0153996Y0047097D01*
X0157871Y0047097D01*
X0157871Y0046847D01*
X0158121Y0046847D01*
X0158121Y0044222D01*
X0160694Y0044222D01*
X0161075Y0044325D01*
X0161417Y0044522D01*
X0161696Y0044801D01*
X0161894Y0045143D01*
X0161996Y0045525D01*
X0161996Y0046847D01*
X0158121Y0046847D01*
X0158121Y0047097D01*
X0161996Y0047097D01*
X0161996Y0048420D01*
X0161894Y0048801D01*
X0161696Y0049143D01*
X0161596Y0049244D01*
X0161596Y0052221D01*
X0160952Y0052866D01*
X0159596Y0052866D01*
X0159596Y0070559D01*
X0159628Y0070591D01*
X0159628Y0073687D01*
X0162724Y0073687D01*
X0162756Y0073719D01*
X0172054Y0073719D01*
X0172054Y0072895D01*
X0172698Y0072250D01*
X0177940Y0072250D01*
X0178453Y0072764D01*
X0178646Y0072429D01*
X0178925Y0072150D01*
X0179267Y0071953D01*
X0179649Y0071850D01*
X0181528Y0071850D01*
X0181528Y0074835D01*
X0182496Y0074835D01*
X0182496Y0075803D01*
X0185677Y0075803D01*
X0185677Y0077485D01*
X0185575Y0077866D01*
X0185377Y0078208D01*
X0185098Y0078488D01*
X0184756Y0078685D01*
X0184375Y0078787D01*
X0182496Y0078787D01*
X0182496Y0075803D01*
X0181528Y0075803D01*
X0181528Y0078787D01*
X0179649Y0078787D01*
X0179267Y0078685D01*
X0178925Y0078488D01*
X0178646Y0078208D01*
X0178453Y0077874D01*
X0177940Y0078387D01*
X0176958Y0078387D01*
X0176958Y0080991D01*
X0177979Y0080991D01*
X0178624Y0081635D01*
X0178624Y0086483D01*
X0177979Y0087128D01*
X0172737Y0087128D01*
X0172093Y0086483D01*
X0172093Y0081635D01*
X0172737Y0080991D01*
X0173758Y0080991D01*
X0173758Y0078387D01*
X0172698Y0078387D01*
X0172054Y0077743D01*
X0172054Y0076919D01*
X0168059Y0076919D01*
X0171039Y0079899D01*
X0171039Y0119657D01*
X0170090Y0120606D01*
X0170090Y0122430D01*
X0168690Y0123830D01*
X0167257Y0123830D01*
X0168419Y0124992D01*
X0169089Y0126609D01*
X0169089Y0128359D01*
X0168419Y0129977D01*
X0167181Y0131214D01*
X0165564Y0131884D01*
X0163814Y0131884D01*
X0162197Y0131214D01*
X0160959Y0129977D01*
X0160289Y0128359D01*
X0160289Y0126609D01*
X0160959Y0124992D01*
X0162197Y0123754D01*
X0163089Y0123384D01*
X0163089Y0120129D01*
X0166239Y0116979D01*
X0166239Y0096045D01*
X0165875Y0096409D01*
X0164760Y0096409D01*
X0163580Y0097588D01*
X0158318Y0097588D01*
X0157380Y0096651D01*
X0156396Y0095667D01*
X0156396Y0094549D01*
X0155118Y0094549D01*
X0155043Y0094474D01*
X0154968Y0094549D01*
X0153150Y0094549D01*
X0153075Y0094474D01*
X0153000Y0094549D01*
X0151181Y0094549D01*
X0151106Y0094474D01*
X0151031Y0094549D01*
X0149213Y0094549D01*
X0149138Y0094474D01*
X0149063Y0094549D01*
X0147785Y0094549D01*
X0147785Y0098619D01*
X0141880Y0104525D01*
X0140942Y0105462D01*
X0124254Y0105462D01*
X0124254Y0106286D01*
X0123609Y0106931D01*
X0118367Y0106931D01*
X0117854Y0106417D01*
X0117661Y0106752D01*
X0117382Y0107031D01*
X0117040Y0107228D01*
X0116658Y0107331D01*
X0114780Y0107331D01*
X0114780Y0104347D01*
X0113811Y0104347D01*
X0113811Y0107331D01*
X0111932Y0107331D01*
X0111551Y0107228D01*
X0111209Y0107031D01*
X0110930Y0106752D01*
X0110732Y0106410D01*
X0110630Y0106028D01*
X0110630Y0104346D01*
X0113811Y0104346D01*
X0113811Y0103378D01*
X0110630Y0103378D01*
X0110630Y0101696D01*
X0110732Y0101315D01*
X0110930Y0100973D01*
X0111209Y0100693D01*
X0111551Y0100496D01*
X0111932Y0100394D01*
X0113811Y0100394D01*
X0113811Y0103378D01*
X0114780Y0103378D01*
X0114780Y0100394D01*
X0116658Y0100394D01*
X0117040Y0100496D01*
X0117382Y0100693D01*
X0117661Y0100973D01*
X0117854Y0101307D01*
X0118367Y0100794D01*
X0123609Y0100794D01*
X0124254Y0101438D01*
X0124254Y0102262D01*
X0139617Y0102262D01*
X0144585Y0097294D01*
X0144585Y0097030D01*
X0143238Y0098377D01*
X0141258Y0098377D01*
X0139859Y0096978D01*
X0139859Y0094999D01*
X0141258Y0093599D01*
X0142374Y0093599D01*
X0142585Y0093388D01*
X0142585Y0090730D01*
X0139488Y0090730D01*
X0139457Y0090698D01*
X0138974Y0090698D01*
X0133021Y0096651D01*
X0132084Y0097588D01*
X0124254Y0097588D01*
X0124254Y0098412D01*
X0123609Y0099057D01*
X0118367Y0099057D01*
X0117854Y0098543D01*
X0117661Y0098878D01*
X0117382Y0099157D01*
X0117040Y0099354D01*
X0116658Y0099457D01*
X0114780Y0099457D01*
X0114780Y0096473D01*
X0113811Y0096473D01*
X0113811Y0099457D01*
X0111932Y0099457D01*
X0111551Y0099354D01*
X0111209Y0099157D01*
X0110930Y0098878D01*
X0110732Y0098536D01*
X0110630Y0098154D01*
X0110630Y0096472D01*
X0113811Y0096472D01*
X0113811Y0095504D01*
X0110630Y0095504D01*
X0110630Y0093822D01*
X0110732Y0093441D01*
X0110930Y0093099D01*
X0111209Y0092819D01*
X0111551Y0092622D01*
X0111932Y0092520D01*
X0113811Y0092520D01*
X0113811Y0095504D01*
X0114780Y0095504D01*
X0114780Y0092520D01*
X0116658Y0092520D01*
X0117040Y0092622D01*
X0117382Y0092819D01*
X0117661Y0093099D01*
X0117854Y0093433D01*
X0118367Y0092920D01*
X0123609Y0092920D01*
X0124254Y0093564D01*
X0124254Y0094388D01*
X0130759Y0094388D01*
X0134448Y0090698D01*
X0133112Y0090698D01*
X0133112Y0091523D01*
X0132467Y0092167D01*
X0124470Y0092167D01*
X0123825Y0091523D01*
X0123825Y0090967D01*
X0123609Y0091183D01*
X0118367Y0091183D01*
X0117854Y0090669D01*
X0117661Y0091004D01*
X0117382Y0091283D01*
X0117040Y0091480D01*
X0116658Y0091583D01*
X0114780Y0091583D01*
X0114780Y0088598D01*
X0113811Y0088598D01*
X0113811Y0087630D01*
X0110630Y0087630D01*
X0110630Y0085948D01*
X0110732Y0085567D01*
X0110930Y0085225D01*
X0111209Y0084945D01*
X0111551Y0084748D01*
X0111932Y0084646D01*
X0113811Y0084646D01*
X0113811Y0087630D01*
X0114780Y0087630D01*
X0114780Y0084646D01*
X0116658Y0084646D01*
X0117040Y0084748D01*
X0117382Y0084945D01*
X0117661Y0085225D01*
X0117854Y0085559D01*
X0118367Y0085046D01*
X0123609Y0085046D01*
X0124254Y0085690D01*
X0124254Y0086246D01*
X0124470Y0086030D01*
X0128059Y0086030D01*
X0127853Y0085824D01*
X0127806Y0085777D01*
X0126869Y0084840D01*
X0126869Y0082324D01*
X0124470Y0082324D01*
X0124254Y0082108D01*
X0124254Y0082664D01*
X0123609Y0083309D01*
X0118367Y0083309D01*
X0117854Y0082795D01*
X0117661Y0083130D01*
X0117382Y0083409D01*
X0117040Y0083606D01*
X0116658Y0083709D01*
X0114780Y0083709D01*
X0114780Y0080724D01*
X0113811Y0080724D01*
X0113811Y0079756D01*
X0110630Y0079756D01*
X0110630Y0078074D01*
X0110732Y0077693D01*
X0110930Y0077351D01*
X0111209Y0077071D01*
X0111551Y0076874D01*
X0111932Y0076772D01*
X0113811Y0076772D01*
X0113811Y0079756D01*
X0114780Y0079756D01*
X0114780Y0076772D01*
X0116658Y0076772D01*
X0117040Y0076874D01*
X0117382Y0077071D01*
X0117661Y0077351D01*
X0117854Y0077685D01*
X0118367Y0077172D01*
X0123609Y0077172D01*
X0123825Y0077388D01*
X0123825Y0076832D01*
X0124470Y0076187D01*
X0131011Y0076187D01*
X0128790Y0073966D01*
X0124254Y0073966D01*
X0124254Y0074790D01*
X0123609Y0075435D01*
X0118367Y0075435D01*
X0117854Y0074921D01*
X0117661Y0075256D01*
X0117382Y0075535D01*
X0117040Y0075732D01*
X0116658Y0075835D01*
X0114780Y0075835D01*
X0114780Y0072850D01*
X0113811Y0072850D01*
X0113811Y0071882D01*
X0110630Y0071882D01*
X0110630Y0070898D01*
X0106609Y0070898D01*
X0104478Y0073029D01*
X0104478Y0111073D01*
X0106493Y0113089D01*
X0133068Y0113089D01*
X0136289Y0116310D01*
X0136289Y0123384D01*
X0137181Y0123754D01*
X0138419Y0124992D01*
X0139089Y0126609D01*
X0139089Y0128359D01*
X0138419Y0129977D01*
X0137181Y0131214D01*
X0135564Y0131884D01*
X0133814Y0131884D01*
X0132197Y0131214D01*
X0130959Y0129977D01*
X0130289Y0128359D01*
X0130289Y0126609D01*
X0130959Y0124992D01*
X0132197Y0123754D01*
X0133089Y0123384D01*
X0133089Y0117635D01*
X0131743Y0116289D01*
X0125441Y0116289D01*
X0126289Y0117136D01*
X0126289Y0123384D01*
X0127181Y0123754D01*
X0128419Y0124992D01*
X0129089Y0126609D01*
X0129089Y0128359D01*
X0128419Y0129977D01*
X0127181Y0131214D01*
X0125564Y0131884D01*
X0123814Y0131884D01*
X0122197Y0131214D01*
X0120959Y0129977D01*
X0120289Y0128359D01*
X0120289Y0126609D01*
X0120959Y0124992D01*
X0122197Y0123754D01*
X0123089Y0123384D01*
X0123089Y0118462D01*
X0122516Y0117889D01*
X0114983Y0117889D01*
X0115352Y0118257D01*
X0116289Y0119195D01*
X0116289Y0123384D01*
X0117181Y0123754D01*
X0118419Y0124992D01*
X0119089Y0126609D01*
X0119089Y0128359D01*
X0118419Y0129977D01*
X0117181Y0131214D01*
X0115564Y0131884D01*
X0113814Y0131884D01*
X0112197Y0131214D01*
X0110959Y0129977D01*
X0110289Y0128359D01*
X0110289Y0126609D01*
X0110959Y0124992D01*
X0112197Y0123754D01*
X0113089Y0123384D01*
X0113089Y0120520D01*
X0112058Y0119489D01*
X0103842Y0119489D01*
X0102905Y0118552D01*
X0099139Y0114785D01*
X0093698Y0120226D01*
X0087793Y0120226D01*
X0086289Y0121730D01*
X0086289Y0123384D01*
X0087181Y0123754D01*
X0088419Y0124992D01*
X0089089Y0126609D01*
X0089089Y0128359D01*
X0088419Y0129977D01*
X0087181Y0131214D01*
X0085564Y0131884D01*
X0083814Y0131884D01*
X0082197Y0131214D01*
X0080959Y0129977D01*
X0080289Y0128359D01*
X0080289Y0126609D01*
X0080959Y0124992D01*
X0082197Y0123754D01*
X0083089Y0123384D01*
X0083089Y0120404D01*
X0084026Y0119467D01*
X0086467Y0117026D01*
X0092373Y0117026D01*
X0094289Y0115109D01*
X0094014Y0115109D01*
X0092615Y0113710D01*
X0092615Y0111731D01*
X0093173Y0111172D01*
X0092046Y0111172D01*
X0090646Y0109773D01*
X0090646Y0107794D01*
X0092046Y0106394D01*
X0093162Y0106394D01*
X0093278Y0106278D01*
X0093278Y0068390D01*
X0094215Y0067452D01*
X0109112Y0052555D01*
X0133822Y0052555D01*
X0132969Y0051702D01*
X0132969Y0049723D01*
X0134369Y0048324D01*
X0136348Y0048324D01*
X0136940Y0048916D01*
X0140385Y0048916D01*
X0140319Y0048801D01*
X0140217Y0048420D01*
X0140217Y0047097D01*
X0144091Y0047097D01*
X0144091Y0046847D01*
X0140217Y0046847D01*
X0140217Y0045525D01*
X0140319Y0045143D01*
X0140217Y0046205D02*
X0114205Y0046205D01*
X0114205Y0047079D02*
X0118157Y0047079D01*
X0118157Y0049335D01*
X0118055Y0049717D01*
X0117858Y0050059D01*
X0117578Y0050338D01*
X0117236Y0050536D01*
X0116855Y0050638D01*
X0114205Y0050638D01*
X0114205Y0047079D01*
X0114205Y0047203D02*
X0113205Y0047203D01*
X0113205Y0046205D02*
X0106331Y0046205D01*
X0106331Y0047203D02*
X0105331Y0047203D01*
X0105331Y0046205D02*
X0098457Y0046205D01*
X0098457Y0047203D02*
X0097457Y0047203D01*
X0097457Y0046205D02*
X0091734Y0046205D01*
X0091734Y0045206D02*
X0093504Y0045206D01*
X0093504Y0044208D02*
X0091687Y0044208D01*
X0091464Y0047203D02*
X0093504Y0047203D01*
X0093504Y0048202D02*
X0084793Y0048202D01*
X0084793Y0049200D02*
X0093504Y0049200D01*
X0093944Y0050199D02*
X0084793Y0050199D01*
X0084793Y0051197D02*
X0132969Y0051197D01*
X0132969Y0050199D02*
X0117718Y0050199D01*
X0118157Y0049200D02*
X0133492Y0049200D01*
X0135358Y0050713D02*
X0135555Y0050516D01*
X0144217Y0050516D01*
X0142366Y0053194D02*
X0156396Y0053194D01*
X0156396Y0054193D02*
X0143364Y0054193D01*
X0142664Y0053492D02*
X0142664Y0053492D01*
X0141064Y0054155D02*
X0109775Y0054155D01*
X0094878Y0069052D01*
X0094878Y0106941D01*
X0093035Y0108783D01*
X0091326Y0107114D02*
X0075608Y0107114D01*
X0074610Y0108113D02*
X0090646Y0108113D01*
X0090646Y0109111D02*
X0073611Y0109111D01*
X0072613Y0110110D02*
X0090983Y0110110D01*
X0091982Y0111108D02*
X0071614Y0111108D01*
X0070616Y0112107D02*
X0092615Y0112107D01*
X0092615Y0113105D02*
X0069617Y0113105D01*
X0068619Y0114104D02*
X0093009Y0114104D01*
X0094007Y0115102D02*
X0067620Y0115102D01*
X0066622Y0116101D02*
X0093298Y0116101D01*
X0095826Y0118098D02*
X0102451Y0118098D01*
X0102905Y0118552D02*
X0102905Y0118552D01*
X0103450Y0119096D02*
X0094828Y0119096D01*
X0093829Y0120095D02*
X0112663Y0120095D01*
X0113089Y0121093D02*
X0086925Y0121093D01*
X0086289Y0122092D02*
X0113089Y0122092D01*
X0113089Y0123090D02*
X0105579Y0123090D01*
X0105564Y0123084D02*
X0107181Y0123754D01*
X0108419Y0124992D01*
X0109089Y0126609D01*
X0109089Y0128359D01*
X0108419Y0129977D01*
X0107181Y0131214D01*
X0105564Y0131884D01*
X0103814Y0131884D01*
X0102197Y0131214D01*
X0100959Y0129977D01*
X0100289Y0128359D01*
X0100289Y0126609D01*
X0100959Y0124992D01*
X0102197Y0123754D01*
X0103814Y0123084D01*
X0105564Y0123084D01*
X0103799Y0123090D02*
X0095579Y0123090D01*
X0095564Y0123084D02*
X0097181Y0123754D01*
X0098419Y0124992D01*
X0099089Y0126609D01*
X0099089Y0128359D01*
X0098419Y0129977D01*
X0097181Y0131214D01*
X0095564Y0131884D01*
X0093814Y0131884D01*
X0092197Y0131214D01*
X0090959Y0129977D01*
X0090289Y0128359D01*
X0090289Y0126609D01*
X0090959Y0124992D01*
X0092197Y0123754D01*
X0093814Y0123084D01*
X0095564Y0123084D01*
X0093799Y0123090D02*
X0086289Y0123090D01*
X0087516Y0124089D02*
X0091862Y0124089D01*
X0090919Y0125087D02*
X0088459Y0125087D01*
X0088872Y0126086D02*
X0090506Y0126086D01*
X0090289Y0127084D02*
X0089089Y0127084D01*
X0089089Y0128083D02*
X0090289Y0128083D01*
X0090588Y0129081D02*
X0088790Y0129081D01*
X0088316Y0130080D02*
X0091062Y0130080D01*
X0092061Y0131078D02*
X0087317Y0131078D01*
X0084689Y0127484D02*
X0084689Y0121067D01*
X0087130Y0118626D01*
X0093035Y0118626D01*
X0098078Y0113583D01*
X0098078Y0070378D01*
X0111101Y0057355D01*
X0139637Y0057355D01*
X0148154Y0065872D01*
X0148154Y0072563D01*
X0150122Y0072563D02*
X0150122Y0065476D01*
X0140401Y0055755D01*
X0110438Y0055755D01*
X0096478Y0069715D01*
X0096478Y0111246D01*
X0095004Y0112720D01*
X0098822Y0115102D02*
X0099456Y0115102D01*
X0100454Y0116101D02*
X0097823Y0116101D01*
X0096825Y0117099D02*
X0101453Y0117099D01*
X0104505Y0117889D02*
X0112720Y0117889D01*
X0114689Y0119857D01*
X0114689Y0127484D01*
X0110588Y0129081D02*
X0108790Y0129081D01*
X0109089Y0128083D02*
X0110289Y0128083D01*
X0110289Y0127084D02*
X0109089Y0127084D01*
X0108872Y0126086D02*
X0110506Y0126086D01*
X0110919Y0125087D02*
X0108459Y0125087D01*
X0107516Y0124089D02*
X0111862Y0124089D01*
X0116289Y0123090D02*
X0123089Y0123090D01*
X0123089Y0122092D02*
X0116289Y0122092D01*
X0116289Y0121093D02*
X0123089Y0121093D01*
X0123089Y0120095D02*
X0116289Y0120095D01*
X0116190Y0119096D02*
X0123089Y0119096D01*
X0122725Y0118098D02*
X0115192Y0118098D01*
X0123179Y0116289D02*
X0124689Y0117799D01*
X0124689Y0127484D01*
X0128790Y0129081D02*
X0130588Y0129081D01*
X0130289Y0128083D02*
X0129089Y0128083D01*
X0129089Y0127084D02*
X0130289Y0127084D01*
X0130506Y0126086D02*
X0128872Y0126086D01*
X0128459Y0125087D02*
X0130919Y0125087D01*
X0131862Y0124089D02*
X0127516Y0124089D01*
X0126289Y0123090D02*
X0133089Y0123090D01*
X0133089Y0122092D02*
X0126289Y0122092D01*
X0126289Y0121093D02*
X0133089Y0121093D01*
X0133089Y0120095D02*
X0126289Y0120095D01*
X0126289Y0119096D02*
X0133089Y0119096D01*
X0133089Y0118098D02*
X0126289Y0118098D01*
X0126252Y0117099D02*
X0132553Y0117099D01*
X0134689Y0116972D02*
X0132406Y0114689D01*
X0105831Y0114689D01*
X0102878Y0111736D01*
X0102878Y0072366D01*
X0105946Y0069298D01*
X0123609Y0069298D01*
X0125078Y0070766D01*
X0130116Y0070766D01*
X0136637Y0077287D01*
X0141461Y0077287D01*
X0141461Y0075319D02*
X0136931Y0075319D01*
X0129453Y0067841D01*
X0129453Y0063508D01*
X0131163Y0065177D02*
X0133648Y0065177D01*
X0132969Y0064497D02*
X0134369Y0065897D01*
X0136348Y0065897D01*
X0137137Y0065108D01*
X0137648Y0065108D01*
X0139664Y0067123D01*
X0139664Y0067635D01*
X0138875Y0068424D01*
X0138875Y0070403D01*
X0140274Y0071802D01*
X0142253Y0071802D01*
X0142585Y0071471D01*
X0142585Y0073687D01*
X0139488Y0073687D01*
X0139457Y0073719D01*
X0137594Y0073719D01*
X0131053Y0067178D01*
X0131053Y0065286D01*
X0131842Y0064497D01*
X0131842Y0062518D01*
X0131478Y0062155D01*
X0133333Y0062155D01*
X0132969Y0062518D01*
X0132969Y0064497D01*
X0132969Y0064178D02*
X0131842Y0064178D01*
X0131842Y0063180D02*
X0132969Y0063180D01*
X0133307Y0062181D02*
X0131504Y0062181D01*
X0135358Y0063508D02*
X0138311Y0063508D01*
X0141264Y0066461D01*
X0141264Y0069413D01*
X0139640Y0071168D02*
X0135042Y0071168D01*
X0134044Y0070169D02*
X0138875Y0070169D01*
X0138875Y0069171D02*
X0133045Y0069171D01*
X0132047Y0068172D02*
X0139127Y0068172D01*
X0139664Y0067174D02*
X0131053Y0067174D01*
X0131053Y0066175D02*
X0138716Y0066175D01*
X0137717Y0065177D02*
X0137068Y0065177D01*
X0138311Y0060555D02*
X0112426Y0060555D01*
X0101278Y0071703D01*
X0101278Y0112399D01*
X0105168Y0116289D01*
X0123179Y0116289D01*
X0133084Y0113105D02*
X0166239Y0113105D01*
X0166239Y0112107D02*
X0105511Y0112107D01*
X0104513Y0111108D02*
X0166239Y0111108D01*
X0166239Y0110110D02*
X0104478Y0110110D01*
X0104478Y0109111D02*
X0166239Y0109111D01*
X0166239Y0108113D02*
X0104478Y0108113D01*
X0104478Y0107114D02*
X0111353Y0107114D01*
X0110653Y0106116D02*
X0104478Y0106116D01*
X0104478Y0105117D02*
X0110630Y0105117D01*
X0110630Y0103120D02*
X0104478Y0103120D01*
X0104478Y0104119D02*
X0113811Y0104119D01*
X0113811Y0105117D02*
X0114780Y0105117D01*
X0114780Y0106116D02*
X0113811Y0106116D01*
X0113811Y0107114D02*
X0114780Y0107114D01*
X0117238Y0107114D02*
X0166239Y0107114D01*
X0166239Y0106116D02*
X0124254Y0106116D01*
X0120988Y0103862D02*
X0140280Y0103862D01*
X0146185Y0097957D01*
X0146185Y0091854D01*
X0144217Y0091854D02*
X0144217Y0094020D01*
X0142248Y0095988D01*
X0139859Y0096130D02*
X0133542Y0096130D01*
X0133021Y0096651D02*
X0133021Y0096651D01*
X0132543Y0097129D02*
X0140010Y0097129D01*
X0141009Y0098127D02*
X0124254Y0098127D01*
X0121579Y0095988D02*
X0120988Y0095988D01*
X0121579Y0095988D02*
X0131421Y0095988D01*
X0138311Y0089098D01*
X0141461Y0089098D01*
X0142585Y0091138D02*
X0138534Y0091138D01*
X0137536Y0092136D02*
X0142585Y0092136D01*
X0142585Y0093135D02*
X0136537Y0093135D01*
X0135539Y0094133D02*
X0140724Y0094133D01*
X0139859Y0095132D02*
X0134540Y0095132D01*
X0132012Y0093135D02*
X0123824Y0093135D01*
X0124254Y0094133D02*
X0131013Y0094133D01*
X0132498Y0092136D02*
X0133010Y0092136D01*
X0133112Y0091138D02*
X0134009Y0091138D01*
X0135358Y0089098D02*
X0137327Y0087130D01*
X0141461Y0087130D01*
X0141461Y0085161D02*
X0129453Y0085161D01*
X0128469Y0084177D01*
X0128469Y0079256D01*
X0124531Y0079256D01*
X0123547Y0080240D01*
X0120988Y0080240D01*
X0124254Y0082151D02*
X0124296Y0082151D01*
X0123768Y0083150D02*
X0126869Y0083150D01*
X0126869Y0084148D02*
X0104478Y0084148D01*
X0104478Y0083150D02*
X0110950Y0083150D01*
X0110930Y0083130D02*
X0110732Y0082788D01*
X0110630Y0082406D01*
X0110630Y0080724D01*
X0113811Y0080724D01*
X0113811Y0083709D01*
X0111932Y0083709D01*
X0111551Y0083606D01*
X0111209Y0083409D01*
X0110930Y0083130D01*
X0110630Y0082151D02*
X0104478Y0082151D01*
X0104478Y0081153D02*
X0110630Y0081153D01*
X0110630Y0079156D02*
X0104478Y0079156D01*
X0104478Y0080154D02*
X0113811Y0080154D01*
X0113811Y0079156D02*
X0114780Y0079156D01*
X0114780Y0078157D02*
X0113811Y0078157D01*
X0113811Y0077159D02*
X0114780Y0077159D01*
X0113811Y0075835D02*
X0111932Y0075835D01*
X0111551Y0075732D01*
X0111209Y0075535D01*
X0110930Y0075256D01*
X0110732Y0074914D01*
X0110630Y0074532D01*
X0110630Y0072850D01*
X0113811Y0072850D01*
X0113811Y0075835D01*
X0113811Y0075162D02*
X0114780Y0075162D01*
X0114780Y0074163D02*
X0113811Y0074163D01*
X0113811Y0073165D02*
X0114780Y0073165D01*
X0113811Y0072166D02*
X0105341Y0072166D01*
X0104478Y0073165D02*
X0110630Y0073165D01*
X0110630Y0074163D02*
X0104478Y0074163D01*
X0104478Y0075162D02*
X0110875Y0075162D01*
X0111122Y0077159D02*
X0104478Y0077159D01*
X0104478Y0078157D02*
X0110630Y0078157D01*
X0113811Y0081153D02*
X0114780Y0081153D01*
X0114780Y0082151D02*
X0113811Y0082151D01*
X0113811Y0083150D02*
X0114780Y0083150D01*
X0114780Y0085147D02*
X0113811Y0085147D01*
X0113811Y0086145D02*
X0114780Y0086145D01*
X0114780Y0087144D02*
X0113811Y0087144D01*
X0113811Y0088142D02*
X0104478Y0088142D01*
X0104478Y0087144D02*
X0110630Y0087144D01*
X0110630Y0086145D02*
X0104478Y0086145D01*
X0104478Y0085147D02*
X0111007Y0085147D01*
X0110630Y0088598D02*
X0113811Y0088598D01*
X0113811Y0091583D01*
X0111932Y0091583D01*
X0111551Y0091480D01*
X0111209Y0091283D01*
X0110930Y0091004D01*
X0110732Y0090662D01*
X0110630Y0090280D01*
X0110630Y0088598D01*
X0110630Y0089141D02*
X0104478Y0089141D01*
X0104478Y0090139D02*
X0110630Y0090139D01*
X0111064Y0091138D02*
X0104478Y0091138D01*
X0104478Y0092136D02*
X0124439Y0092136D01*
X0123825Y0091138D02*
X0123654Y0091138D01*
X0124531Y0089098D02*
X0128469Y0089098D01*
X0135358Y0089098D01*
X0127175Y0085147D02*
X0123710Y0085147D01*
X0124254Y0086145D02*
X0124354Y0086145D01*
X0123547Y0088114D02*
X0120988Y0088114D01*
X0123547Y0088114D02*
X0124531Y0089098D01*
X0118322Y0091138D02*
X0117527Y0091138D01*
X0117682Y0093135D02*
X0118152Y0093135D01*
X0114780Y0093135D02*
X0113811Y0093135D01*
X0113811Y0094133D02*
X0114780Y0094133D01*
X0114780Y0095132D02*
X0113811Y0095132D01*
X0113811Y0096130D02*
X0104478Y0096130D01*
X0104478Y0095132D02*
X0110630Y0095132D01*
X0110630Y0094133D02*
X0104478Y0094133D01*
X0104478Y0093135D02*
X0110909Y0093135D01*
X0113811Y0091138D02*
X0114780Y0091138D01*
X0114780Y0090139D02*
X0113811Y0090139D01*
X0113811Y0089141D02*
X0114780Y0089141D01*
X0117583Y0085147D02*
X0118266Y0085147D01*
X0118208Y0083150D02*
X0117641Y0083150D01*
X0117469Y0077159D02*
X0123825Y0077159D01*
X0123882Y0075162D02*
X0129986Y0075162D01*
X0130984Y0076160D02*
X0104478Y0076160D01*
X0106339Y0071168D02*
X0110630Y0071168D01*
X0107546Y0067698D02*
X0124272Y0067698D01*
X0125209Y0068635D01*
X0125740Y0069166D01*
X0128516Y0069166D01*
X0127853Y0068503D01*
X0127853Y0065286D01*
X0127064Y0064497D01*
X0127064Y0062518D01*
X0127427Y0062155D01*
X0113089Y0062155D01*
X0107546Y0067698D01*
X0108070Y0067174D02*
X0127853Y0067174D01*
X0127853Y0068172D02*
X0124746Y0068172D01*
X0127853Y0066175D02*
X0109069Y0066175D01*
X0110067Y0065177D02*
X0127743Y0065177D01*
X0127064Y0064178D02*
X0111066Y0064178D01*
X0112065Y0063180D02*
X0127064Y0063180D01*
X0127401Y0062181D02*
X0113063Y0062181D01*
X0111763Y0058955D02*
X0099678Y0071041D01*
X0099678Y0113062D01*
X0104505Y0117889D01*
X0101862Y0124089D02*
X0097516Y0124089D01*
X0098459Y0125087D02*
X0100919Y0125087D01*
X0100506Y0126086D02*
X0098872Y0126086D01*
X0099089Y0127084D02*
X0100289Y0127084D01*
X0100289Y0128083D02*
X0099089Y0128083D01*
X0098790Y0129081D02*
X0100588Y0129081D01*
X0101062Y0130080D02*
X0098316Y0130080D01*
X0097317Y0131078D02*
X0102061Y0131078D01*
X0107317Y0131078D02*
X0112061Y0131078D01*
X0111062Y0130080D02*
X0108316Y0130080D01*
X0117317Y0131078D02*
X0122061Y0131078D01*
X0121062Y0130080D02*
X0118316Y0130080D01*
X0118790Y0129081D02*
X0120588Y0129081D01*
X0120289Y0128083D02*
X0119089Y0128083D01*
X0119089Y0127084D02*
X0120289Y0127084D01*
X0120506Y0126086D02*
X0118872Y0126086D01*
X0118459Y0125087D02*
X0120919Y0125087D01*
X0121862Y0124089D02*
X0117516Y0124089D01*
X0128316Y0130080D02*
X0131062Y0130080D01*
X0132061Y0131078D02*
X0127317Y0131078D01*
X0134689Y0127484D02*
X0134689Y0116972D01*
X0136289Y0117099D02*
X0166118Y0117099D01*
X0166239Y0116101D02*
X0136080Y0116101D01*
X0135081Y0115102D02*
X0166239Y0115102D01*
X0166239Y0114104D02*
X0134083Y0114104D01*
X0136289Y0118098D02*
X0165120Y0118098D01*
X0164121Y0119096D02*
X0136289Y0119096D01*
X0136289Y0120095D02*
X0163123Y0120095D01*
X0163089Y0121093D02*
X0136289Y0121093D01*
X0136289Y0122092D02*
X0163089Y0122092D01*
X0163089Y0123090D02*
X0155579Y0123090D01*
X0155564Y0123084D02*
X0157181Y0123754D01*
X0158419Y0124992D01*
X0159089Y0126609D01*
X0159089Y0128359D01*
X0158419Y0129977D01*
X0157181Y0131214D01*
X0155564Y0131884D01*
X0153814Y0131884D01*
X0152197Y0131214D01*
X0150959Y0129977D01*
X0150289Y0128359D01*
X0150289Y0126609D01*
X0150959Y0124992D01*
X0152197Y0123754D01*
X0153814Y0123084D01*
X0155564Y0123084D01*
X0153799Y0123090D02*
X0145579Y0123090D01*
X0145564Y0123084D02*
X0147181Y0123754D01*
X0148419Y0124992D01*
X0149089Y0126609D01*
X0149089Y0128359D01*
X0148419Y0129977D01*
X0147181Y0131214D01*
X0145564Y0131884D01*
X0143814Y0131884D01*
X0142197Y0131214D01*
X0140959Y0129977D01*
X0140289Y0128359D01*
X0140289Y0126609D01*
X0140959Y0124992D01*
X0142197Y0123754D01*
X0143814Y0123084D01*
X0145564Y0123084D01*
X0143799Y0123090D02*
X0136289Y0123090D01*
X0137516Y0124089D02*
X0141862Y0124089D01*
X0140919Y0125087D02*
X0138459Y0125087D01*
X0138872Y0126086D02*
X0140506Y0126086D01*
X0140289Y0127084D02*
X0139089Y0127084D01*
X0139089Y0128083D02*
X0140289Y0128083D01*
X0140588Y0129081D02*
X0138790Y0129081D01*
X0138316Y0130080D02*
X0141062Y0130080D01*
X0142061Y0131078D02*
X0137317Y0131078D01*
X0147317Y0131078D02*
X0152061Y0131078D01*
X0151062Y0130080D02*
X0148316Y0130080D01*
X0148790Y0129081D02*
X0150588Y0129081D01*
X0150289Y0128083D02*
X0149089Y0128083D01*
X0149089Y0127084D02*
X0150289Y0127084D01*
X0150506Y0126086D02*
X0148872Y0126086D01*
X0148459Y0125087D02*
X0150919Y0125087D01*
X0151862Y0124089D02*
X0147516Y0124089D01*
X0157516Y0124089D02*
X0161862Y0124089D01*
X0160919Y0125087D02*
X0158459Y0125087D01*
X0158872Y0126086D02*
X0160506Y0126086D01*
X0160289Y0127084D02*
X0159089Y0127084D01*
X0159089Y0128083D02*
X0160289Y0128083D01*
X0160588Y0129081D02*
X0158790Y0129081D01*
X0158316Y0130080D02*
X0161062Y0130080D01*
X0162061Y0131078D02*
X0157317Y0131078D01*
X0164689Y0127484D02*
X0164689Y0120791D01*
X0167839Y0117642D01*
X0167839Y0081224D01*
X0165870Y0079256D01*
X0160752Y0079256D01*
X0161089Y0077624D02*
X0166501Y0077624D01*
X0169439Y0080562D01*
X0169439Y0118994D01*
X0167839Y0120594D01*
X0167839Y0121303D01*
X0167701Y0121441D01*
X0169430Y0123090D02*
X0173799Y0123090D01*
X0173814Y0123084D02*
X0175564Y0123084D01*
X0177181Y0123754D01*
X0178419Y0124992D01*
X0179089Y0126609D01*
X0179089Y0128359D01*
X0178419Y0129977D01*
X0177181Y0131214D01*
X0175564Y0131884D01*
X0173814Y0131884D01*
X0172197Y0131214D01*
X0170959Y0129977D01*
X0170289Y0128359D01*
X0170289Y0126609D01*
X0170959Y0124992D01*
X0172197Y0123754D01*
X0173814Y0123084D01*
X0175579Y0123090D02*
X0185788Y0123090D01*
X0184790Y0122092D02*
X0170090Y0122092D01*
X0170090Y0121093D02*
X0183791Y0121093D01*
X0182793Y0120095D02*
X0170601Y0120095D01*
X0171039Y0119096D02*
X0181794Y0119096D01*
X0180796Y0118098D02*
X0171039Y0118098D01*
X0171039Y0117099D02*
X0179797Y0117099D01*
X0179034Y0116336D02*
X0179034Y0102688D01*
X0178245Y0101899D01*
X0178245Y0099920D01*
X0179644Y0098520D01*
X0180412Y0098520D01*
X0180412Y0095120D01*
X0179391Y0095120D01*
X0178878Y0094606D01*
X0178685Y0094941D01*
X0178405Y0095220D01*
X0178063Y0095417D01*
X0177682Y0095520D01*
X0175803Y0095520D01*
X0175803Y0092536D01*
X0174835Y0092536D01*
X0174835Y0095520D01*
X0172956Y0095520D01*
X0172575Y0095417D01*
X0172233Y0095220D01*
X0171953Y0094941D01*
X0171756Y0094599D01*
X0171654Y0094217D01*
X0171654Y0092535D01*
X0174835Y0092535D01*
X0174835Y0091567D01*
X0175803Y0091567D01*
X0175803Y0088583D01*
X0177682Y0088583D01*
X0178063Y0088685D01*
X0178405Y0088882D01*
X0178685Y0089162D01*
X0178878Y0089496D01*
X0179391Y0088983D01*
X0180412Y0088983D01*
X0180412Y0087128D01*
X0179430Y0087128D01*
X0178786Y0086483D01*
X0178786Y0081635D01*
X0179430Y0080991D01*
X0184672Y0080991D01*
X0185317Y0081635D01*
X0185317Y0082459D01*
X0190916Y0082459D01*
X0197085Y0076290D01*
X0197085Y0072185D01*
X0196929Y0072120D01*
X0196057Y0071248D01*
X0195585Y0070109D01*
X0195585Y0068875D01*
X0196057Y0067736D01*
X0196801Y0066992D01*
X0196057Y0066248D01*
X0195585Y0065109D01*
X0195585Y0063875D01*
X0196057Y0062736D01*
X0196801Y0061992D01*
X0196057Y0061248D01*
X0195585Y0060109D01*
X0195585Y0058875D01*
X0196057Y0057736D01*
X0196801Y0056992D01*
X0196057Y0056248D01*
X0195585Y0055109D01*
X0195585Y0053875D01*
X0196057Y0052736D01*
X0196801Y0051992D01*
X0196057Y0051248D01*
X0195585Y0050109D01*
X0195585Y0048875D01*
X0196057Y0047736D01*
X0196929Y0046864D01*
X0198068Y0046392D01*
X0199302Y0046392D01*
X0200441Y0046864D01*
X0201185Y0047608D01*
X0201929Y0046864D01*
X0203068Y0046392D01*
X0204302Y0046392D01*
X0205441Y0046864D01*
X0206313Y0047736D01*
X0206785Y0048875D01*
X0206785Y0050109D01*
X0206313Y0051248D01*
X0205839Y0051722D01*
X0205916Y0051773D01*
X0206404Y0052261D01*
X0206787Y0052834D01*
X0207051Y0053471D01*
X0207185Y0054147D01*
X0207185Y0054492D01*
X0203685Y0054492D01*
X0203685Y0054492D01*
X0207185Y0054492D01*
X0207185Y0054837D01*
X0207051Y0055513D01*
X0206787Y0056150D01*
X0206404Y0056723D01*
X0206135Y0056992D01*
X0206404Y0057261D01*
X0206787Y0057834D01*
X0207051Y0058471D01*
X0207185Y0059147D01*
X0207185Y0059492D01*
X0203685Y0059492D01*
X0203685Y0059492D01*
X0203685Y0057992D01*
X0203685Y0054492D01*
X0203685Y0054492D01*
X0203685Y0059492D01*
X0203685Y0059492D01*
X0207185Y0059492D01*
X0207185Y0059837D01*
X0207051Y0060513D01*
X0206787Y0061150D01*
X0206404Y0061723D01*
X0205916Y0062211D01*
X0205839Y0062262D01*
X0206313Y0062736D01*
X0206785Y0063875D01*
X0206785Y0065109D01*
X0206313Y0066248D01*
X0205839Y0066722D01*
X0205916Y0066773D01*
X0206404Y0067261D01*
X0206787Y0067834D01*
X0207051Y0068471D01*
X0207185Y0069147D01*
X0207185Y0069492D01*
X0203685Y0069492D01*
X0203685Y0069492D01*
X0207185Y0069492D01*
X0207185Y0069837D01*
X0207051Y0070513D01*
X0206787Y0071150D01*
X0206404Y0071723D01*
X0205916Y0072211D01*
X0205343Y0072594D01*
X0204706Y0072858D01*
X0204030Y0072992D01*
X0203685Y0072992D01*
X0203340Y0072992D01*
X0202664Y0072858D01*
X0202027Y0072594D01*
X0201454Y0072211D01*
X0200966Y0071723D01*
X0200915Y0071646D01*
X0200441Y0072120D01*
X0200285Y0072185D01*
X0200285Y0077615D01*
X0192241Y0085659D01*
X0185317Y0085659D01*
X0185317Y0086483D01*
X0184672Y0087128D01*
X0183612Y0087128D01*
X0183612Y0088983D01*
X0184633Y0088983D01*
X0185277Y0089627D01*
X0185277Y0094475D01*
X0184633Y0095120D01*
X0183612Y0095120D01*
X0183612Y0100194D01*
X0183023Y0100783D01*
X0183023Y0101899D01*
X0182234Y0102688D01*
X0182234Y0115010D01*
X0189564Y0122341D01*
X0195597Y0122341D01*
X0195597Y0118958D01*
X0196241Y0118313D01*
X0203058Y0118313D01*
X0203702Y0118958D01*
X0203702Y0128924D01*
X0203058Y0129568D01*
X0196241Y0129568D01*
X0195597Y0128924D01*
X0195597Y0125541D01*
X0188239Y0125541D01*
X0179034Y0116336D01*
X0179034Y0116101D02*
X0171039Y0116101D01*
X0171039Y0115102D02*
X0179034Y0115102D01*
X0179034Y0114104D02*
X0171039Y0114104D01*
X0171039Y0113105D02*
X0179034Y0113105D01*
X0179034Y0112107D02*
X0171039Y0112107D01*
X0171039Y0111108D02*
X0179034Y0111108D01*
X0179034Y0110110D02*
X0171039Y0110110D01*
X0171039Y0109111D02*
X0179034Y0109111D01*
X0179034Y0108113D02*
X0171039Y0108113D01*
X0171039Y0107114D02*
X0179034Y0107114D01*
X0179034Y0106116D02*
X0171039Y0106116D01*
X0171039Y0105117D02*
X0179034Y0105117D01*
X0179034Y0104119D02*
X0171039Y0104119D01*
X0171039Y0103120D02*
X0179034Y0103120D01*
X0178467Y0102121D02*
X0171039Y0102121D01*
X0171039Y0101123D02*
X0178245Y0101123D01*
X0178245Y0100124D02*
X0171039Y0100124D01*
X0171039Y0099126D02*
X0179039Y0099126D01*
X0180412Y0098127D02*
X0171039Y0098127D01*
X0171039Y0097129D02*
X0180412Y0097129D01*
X0180412Y0096130D02*
X0171039Y0096130D01*
X0171039Y0095132D02*
X0172144Y0095132D01*
X0171654Y0094133D02*
X0171039Y0094133D01*
X0171039Y0093135D02*
X0171654Y0093135D01*
X0171039Y0092136D02*
X0174835Y0092136D01*
X0174835Y0091567D02*
X0171654Y0091567D01*
X0171654Y0089885D01*
X0171756Y0089504D01*
X0171953Y0089162D01*
X0172233Y0088882D01*
X0172575Y0088685D01*
X0172956Y0088583D01*
X0174835Y0088583D01*
X0174835Y0091567D01*
X0174835Y0091138D02*
X0175803Y0091138D01*
X0175803Y0090139D02*
X0174835Y0090139D01*
X0174835Y0089141D02*
X0175803Y0089141D01*
X0178664Y0089141D02*
X0179233Y0089141D01*
X0180412Y0088142D02*
X0171039Y0088142D01*
X0171039Y0087144D02*
X0180412Y0087144D01*
X0178786Y0086145D02*
X0178624Y0086145D01*
X0178624Y0085147D02*
X0178786Y0085147D01*
X0178786Y0084148D02*
X0178624Y0084148D01*
X0178624Y0083150D02*
X0178786Y0083150D01*
X0178786Y0082151D02*
X0178624Y0082151D01*
X0178141Y0081153D02*
X0179268Y0081153D01*
X0176958Y0080154D02*
X0193221Y0080154D01*
X0194219Y0079156D02*
X0176958Y0079156D01*
X0178170Y0078157D02*
X0178617Y0078157D01*
X0181528Y0078157D02*
X0182496Y0078157D01*
X0182496Y0077159D02*
X0181528Y0077159D01*
X0181528Y0076160D02*
X0182496Y0076160D01*
X0182496Y0075162D02*
X0197085Y0075162D01*
X0197085Y0076160D02*
X0185677Y0076160D01*
X0185677Y0077159D02*
X0196216Y0077159D01*
X0195218Y0078157D02*
X0185407Y0078157D01*
X0184834Y0081153D02*
X0192222Y0081153D01*
X0191224Y0082151D02*
X0185317Y0082151D01*
X0182051Y0084059D02*
X0191579Y0084059D01*
X0198685Y0076953D01*
X0198685Y0069492D01*
X0195876Y0068172D02*
X0159596Y0068172D01*
X0159596Y0067174D02*
X0196620Y0067174D01*
X0196027Y0066175D02*
X0159596Y0066175D01*
X0159596Y0065177D02*
X0195613Y0065177D01*
X0195585Y0064178D02*
X0159596Y0064178D01*
X0159596Y0063180D02*
X0195873Y0063180D01*
X0196612Y0062181D02*
X0159596Y0062181D01*
X0159596Y0061183D02*
X0196030Y0061183D01*
X0195616Y0060184D02*
X0159596Y0060184D01*
X0159596Y0059186D02*
X0195585Y0059186D01*
X0195870Y0058187D02*
X0159596Y0058187D01*
X0159596Y0057188D02*
X0196605Y0057188D01*
X0196033Y0056190D02*
X0159596Y0056190D01*
X0159596Y0055191D02*
X0174829Y0055191D01*
X0174308Y0054193D02*
X0159596Y0054193D01*
X0159596Y0053194D02*
X0174308Y0053194D01*
X0174803Y0052196D02*
X0161596Y0052196D01*
X0161596Y0051197D02*
X0182808Y0051197D01*
X0183806Y0050199D02*
X0161596Y0050199D01*
X0161639Y0049200D02*
X0184034Y0049200D01*
X0184034Y0048202D02*
X0161996Y0048202D01*
X0161996Y0047203D02*
X0184034Y0047203D01*
X0184034Y0046205D02*
X0161996Y0046205D01*
X0161911Y0045206D02*
X0184034Y0045206D01*
X0187234Y0045206D02*
X0211614Y0045206D01*
X0211614Y0044208D02*
X0187234Y0044208D01*
X0187234Y0043209D02*
X0211614Y0043209D01*
X0211614Y0042211D02*
X0187234Y0042211D01*
X0187234Y0041212D02*
X0211614Y0041212D01*
X0211614Y0040214D02*
X0187234Y0040214D01*
X0187234Y0039215D02*
X0211614Y0039215D01*
X0211614Y0038217D02*
X0187234Y0038217D01*
X0187234Y0037218D02*
X0211614Y0037218D01*
X0211614Y0036220D02*
X0187234Y0036220D01*
X0187234Y0035221D02*
X0211614Y0035221D01*
X0211614Y0034223D02*
X0187234Y0034223D01*
X0187234Y0033224D02*
X0211614Y0033224D01*
X0211614Y0032226D02*
X0187234Y0032226D01*
X0187234Y0031227D02*
X0193180Y0031227D01*
X0193118Y0031196D02*
X0192507Y0030752D01*
X0191973Y0030218D01*
X0191529Y0029606D01*
X0191186Y0028933D01*
X0190952Y0028215D01*
X0190851Y0027575D01*
X0195150Y0027575D01*
X0195150Y0031874D01*
X0194510Y0031772D01*
X0193791Y0031539D01*
X0193118Y0031196D01*
X0191984Y0030229D02*
X0188718Y0030229D01*
X0189510Y0029230D02*
X0191337Y0029230D01*
X0190958Y0028232D02*
X0189924Y0028232D01*
X0190034Y0027233D02*
X0195150Y0027233D01*
X0195150Y0027575D02*
X0195150Y0026606D01*
X0196118Y0026606D01*
X0196118Y0022307D01*
X0196758Y0022409D01*
X0197476Y0022642D01*
X0198150Y0022985D01*
X0198761Y0023429D01*
X0199295Y0023964D01*
X0199739Y0024575D01*
X0200082Y0025248D01*
X0200316Y0025967D01*
X0200417Y0026606D01*
X0196118Y0026606D01*
X0196118Y0027575D01*
X0195150Y0027575D01*
X0195150Y0028232D02*
X0196118Y0028232D01*
X0196118Y0027575D02*
X0196118Y0031874D01*
X0196758Y0031772D01*
X0197476Y0031539D01*
X0198150Y0031196D01*
X0198761Y0030752D01*
X0199295Y0030218D01*
X0199739Y0029606D01*
X0200082Y0028933D01*
X0200316Y0028215D01*
X0200417Y0027575D01*
X0196118Y0027575D01*
X0196118Y0027233D02*
X0211614Y0027233D01*
X0211614Y0026235D02*
X0200358Y0026235D01*
X0200076Y0025236D02*
X0211614Y0025236D01*
X0211545Y0024238D02*
X0199494Y0024238D01*
X0198499Y0023239D02*
X0211248Y0023239D01*
X0210923Y0022241D02*
X0018455Y0022241D01*
X0018130Y0023239D02*
X0061160Y0023239D01*
X0060924Y0024238D02*
X0017833Y0024238D01*
X0017764Y0025236D02*
X0060924Y0025236D01*
X0060924Y0026235D02*
X0017764Y0026235D01*
X0017764Y0027233D02*
X0060924Y0027233D01*
X0060924Y0028232D02*
X0017764Y0028232D01*
X0017764Y0029230D02*
X0060924Y0029230D01*
X0060924Y0030229D02*
X0017764Y0030229D01*
X0017764Y0031227D02*
X0024862Y0031227D01*
X0025622Y0031227D02*
X0026591Y0031227D01*
X0026591Y0031087D02*
X0027230Y0031188D01*
X0027949Y0031422D01*
X0028622Y0031765D01*
X0029233Y0032209D01*
X0029768Y0032743D01*
X0030212Y0033354D01*
X0030555Y0034028D01*
X0030788Y0034746D01*
X0030889Y0035386D01*
X0026591Y0035386D01*
X0026591Y0031087D01*
X0027350Y0031227D02*
X0060924Y0031227D01*
X0062524Y0031227D02*
X0065669Y0031227D01*
X0065669Y0032131D02*
X0065772Y0032512D01*
X0065969Y0032854D01*
X0066248Y0033133D01*
X0066590Y0033331D01*
X0066972Y0033433D01*
X0069228Y0033433D01*
X0069228Y0029480D01*
X0069228Y0028480D01*
X0070228Y0028480D01*
X0070228Y0024528D01*
X0072366Y0024528D01*
X0072366Y0024138D01*
X0062524Y0024138D01*
X0062524Y0032996D01*
X0043823Y0032996D01*
X0043823Y0039886D01*
X0044518Y0039886D01*
X0044405Y0039820D01*
X0044125Y0039541D01*
X0043928Y0039199D01*
X0043826Y0038818D01*
X0043826Y0037145D01*
X0046601Y0037145D01*
X0046601Y0036595D01*
X0047151Y0036595D01*
X0047151Y0037145D01*
X0049926Y0037145D01*
X0049926Y0038818D01*
X0049823Y0039199D01*
X0049626Y0039541D01*
X0049347Y0039820D01*
X0049233Y0039886D01*
X0058587Y0039886D01*
X0058587Y0041854D01*
X0059969Y0041854D01*
X0059749Y0041634D01*
X0059551Y0041292D01*
X0059449Y0040910D01*
X0059449Y0039376D01*
X0065140Y0039376D01*
X0065140Y0038703D01*
X0065813Y0038703D01*
X0065813Y0039376D01*
X0071504Y0039376D01*
X0071504Y0040910D01*
X0071402Y0041292D01*
X0071204Y0041634D01*
X0070984Y0041854D01*
X0072366Y0041854D01*
X0072366Y0033433D01*
X0070228Y0033433D01*
X0070228Y0029480D01*
X0069228Y0029480D01*
X0065669Y0029480D01*
X0065669Y0032131D01*
X0065695Y0032226D02*
X0062524Y0032226D01*
X0062524Y0030229D02*
X0065669Y0030229D01*
X0065669Y0028480D02*
X0065669Y0025830D01*
X0065772Y0025449D01*
X0065969Y0025107D01*
X0066248Y0024827D01*
X0066590Y0024630D01*
X0066972Y0024528D01*
X0069228Y0024528D01*
X0069228Y0028480D01*
X0065669Y0028480D01*
X0065669Y0028232D02*
X0062524Y0028232D01*
X0062524Y0029230D02*
X0069228Y0029230D01*
X0069228Y0028232D02*
X0070228Y0028232D01*
X0070228Y0027233D02*
X0069228Y0027233D01*
X0069228Y0026235D02*
X0070228Y0026235D01*
X0070228Y0025236D02*
X0069228Y0025236D01*
X0072366Y0024238D02*
X0062524Y0024238D01*
X0062524Y0025236D02*
X0065894Y0025236D01*
X0065669Y0026235D02*
X0062524Y0026235D01*
X0062524Y0027233D02*
X0065669Y0027233D01*
X0069228Y0030229D02*
X0070228Y0030229D01*
X0070228Y0031227D02*
X0069228Y0031227D01*
X0069228Y0032226D02*
X0070228Y0032226D01*
X0070228Y0033224D02*
X0069228Y0033224D01*
X0072366Y0034223D02*
X0049640Y0034223D01*
X0049626Y0034199D02*
X0049823Y0034541D01*
X0049926Y0034923D01*
X0049926Y0036595D01*
X0047151Y0036595D01*
X0047151Y0033620D01*
X0048623Y0033620D01*
X0049005Y0033722D01*
X0049347Y0033920D01*
X0049626Y0034199D01*
X0049926Y0035221D02*
X0072366Y0035221D01*
X0072366Y0036220D02*
X0070979Y0036220D01*
X0070925Y0036166D02*
X0071204Y0036445D01*
X0071402Y0036787D01*
X0071504Y0037169D01*
X0071504Y0038703D01*
X0065813Y0038703D01*
X0065813Y0035866D01*
X0070201Y0035866D01*
X0070583Y0035968D01*
X0070925Y0036166D01*
X0071504Y0037218D02*
X0072366Y0037218D01*
X0072366Y0038217D02*
X0071504Y0038217D01*
X0072366Y0039215D02*
X0065813Y0039215D01*
X0065140Y0039215D02*
X0049814Y0039215D01*
X0049926Y0038217D02*
X0059449Y0038217D01*
X0059449Y0038703D02*
X0059449Y0037169D01*
X0059551Y0036787D01*
X0059749Y0036445D01*
X0060028Y0036166D01*
X0060370Y0035968D01*
X0060751Y0035866D01*
X0065140Y0035866D01*
X0065140Y0038703D01*
X0059449Y0038703D01*
X0059449Y0037218D02*
X0049926Y0037218D01*
X0049926Y0036220D02*
X0059974Y0036220D01*
X0065140Y0036220D02*
X0065813Y0036220D01*
X0065813Y0037218D02*
X0065140Y0037218D01*
X0065140Y0038217D02*
X0065813Y0038217D01*
X0066406Y0033224D02*
X0043823Y0033224D01*
X0044405Y0033920D02*
X0044747Y0033722D01*
X0045128Y0033620D01*
X0046601Y0033620D01*
X0046601Y0036595D01*
X0043826Y0036595D01*
X0043826Y0034923D01*
X0043928Y0034541D01*
X0044125Y0034199D01*
X0044405Y0033920D01*
X0044112Y0034223D02*
X0043823Y0034223D01*
X0043823Y0035221D02*
X0043826Y0035221D01*
X0043823Y0036220D02*
X0043826Y0036220D01*
X0043823Y0037218D02*
X0043826Y0037218D01*
X0043823Y0038217D02*
X0043826Y0038217D01*
X0043823Y0039215D02*
X0043937Y0039215D01*
X0042223Y0039215D02*
X0029549Y0039215D01*
X0030298Y0038217D02*
X0042223Y0038217D01*
X0042223Y0037218D02*
X0030715Y0037218D01*
X0030863Y0035221D02*
X0042223Y0035221D01*
X0042223Y0034223D02*
X0030618Y0034223D01*
X0030117Y0033224D02*
X0042223Y0033224D01*
X0042330Y0032226D02*
X0029250Y0032226D01*
X0026591Y0032226D02*
X0025622Y0032226D01*
X0025622Y0033224D02*
X0026591Y0033224D01*
X0026591Y0034223D02*
X0025622Y0034223D01*
X0025622Y0035221D02*
X0026591Y0035221D01*
X0026591Y0036220D02*
X0042223Y0036220D01*
X0046601Y0036220D02*
X0047151Y0036220D01*
X0047151Y0035221D02*
X0046601Y0035221D01*
X0046601Y0034223D02*
X0047151Y0034223D01*
X0042223Y0040214D02*
X0028154Y0040214D01*
X0028745Y0041854D02*
X0029233Y0042209D01*
X0029768Y0042743D01*
X0030212Y0043354D01*
X0030555Y0044028D01*
X0030788Y0044746D01*
X0030889Y0045386D01*
X0026591Y0045386D01*
X0026591Y0046354D01*
X0030889Y0046354D01*
X0030788Y0046994D01*
X0030555Y0047713D01*
X0030212Y0048386D01*
X0029768Y0048997D01*
X0029233Y0049531D01*
X0028622Y0049975D01*
X0027949Y0050318D01*
X0027230Y0050552D01*
X0026591Y0050653D01*
X0026591Y0046354D01*
X0025622Y0046354D01*
X0025622Y0045386D01*
X0021323Y0045386D01*
X0021424Y0044746D01*
X0021658Y0044028D01*
X0022001Y0043354D01*
X0022445Y0042743D01*
X0022979Y0042209D01*
X0023467Y0041854D01*
X0017764Y0041854D01*
X0017764Y0050713D01*
X0032012Y0050713D01*
X0033980Y0048744D01*
X0046776Y0048744D01*
X0046776Y0041854D01*
X0045433Y0041854D01*
X0045547Y0041920D01*
X0045826Y0042199D01*
X0046023Y0042541D01*
X0046126Y0042923D01*
X0046126Y0044595D01*
X0043351Y0044595D01*
X0043351Y0045145D01*
X0046126Y0045145D01*
X0046126Y0046818D01*
X0046023Y0047199D01*
X0045826Y0047541D01*
X0045547Y0047820D01*
X0045205Y0048018D01*
X0044823Y0048120D01*
X0043351Y0048120D01*
X0043351Y0045145D01*
X0042801Y0045145D01*
X0042801Y0048120D01*
X0041328Y0048120D01*
X0040947Y0048018D01*
X0040605Y0047820D01*
X0040325Y0047541D01*
X0040128Y0047199D01*
X0040026Y0046818D01*
X0040026Y0045145D01*
X0042801Y0045145D01*
X0042801Y0044595D01*
X0040026Y0044595D01*
X0040026Y0042923D01*
X0040128Y0042541D01*
X0040325Y0042199D01*
X0040605Y0041920D01*
X0040718Y0041854D01*
X0028745Y0041854D01*
X0029235Y0042211D02*
X0040319Y0042211D01*
X0040026Y0043209D02*
X0030106Y0043209D01*
X0030613Y0044208D02*
X0040026Y0044208D01*
X0040026Y0045206D02*
X0030861Y0045206D01*
X0030720Y0047203D02*
X0040130Y0047203D01*
X0040026Y0046205D02*
X0026591Y0046205D01*
X0026106Y0045870D02*
X0026106Y0057209D01*
X0025713Y0057602D01*
X0028978Y0057188D02*
X0029140Y0057188D01*
X0029140Y0056190D02*
X0028978Y0056190D01*
X0028978Y0055191D02*
X0029140Y0055191D01*
X0027706Y0054193D02*
X0030806Y0054193D01*
X0031204Y0053194D02*
X0027706Y0053194D01*
X0028183Y0050199D02*
X0032526Y0050199D01*
X0033524Y0049200D02*
X0029564Y0049200D01*
X0030305Y0048202D02*
X0046776Y0048202D01*
X0046776Y0047203D02*
X0046021Y0047203D01*
X0046126Y0046205D02*
X0046776Y0046205D01*
X0046776Y0045206D02*
X0046126Y0045206D01*
X0046126Y0044208D02*
X0046776Y0044208D01*
X0046776Y0043209D02*
X0046126Y0043209D01*
X0045833Y0042211D02*
X0046776Y0042211D01*
X0048376Y0042211D02*
X0048479Y0042211D01*
X0052872Y0042211D02*
X0056987Y0042211D01*
X0057679Y0043209D02*
X0053326Y0043209D01*
X0053326Y0044208D02*
X0056987Y0044208D01*
X0056987Y0045206D02*
X0053326Y0045206D01*
X0053326Y0046205D02*
X0056987Y0046205D01*
X0056987Y0047203D02*
X0053198Y0047203D01*
X0052276Y0048202D02*
X0056987Y0048202D01*
X0056987Y0049200D02*
X0052276Y0049200D01*
X0052276Y0050199D02*
X0056987Y0050199D01*
X0056987Y0051197D02*
X0052276Y0051197D01*
X0051492Y0052196D02*
X0057807Y0052196D01*
X0058587Y0050713D02*
X0083193Y0050713D01*
X0083193Y0044807D01*
X0082252Y0044807D01*
X0082252Y0045469D01*
X0078377Y0045469D01*
X0078377Y0045719D01*
X0082252Y0045719D01*
X0082252Y0046499D01*
X0082107Y0047040D01*
X0081827Y0047524D01*
X0081432Y0047920D01*
X0080947Y0048200D01*
X0080407Y0048344D01*
X0078377Y0048344D01*
X0078377Y0045720D01*
X0078127Y0045720D01*
X0078127Y0048344D01*
X0076097Y0048344D01*
X0075557Y0048200D01*
X0075072Y0047920D01*
X0074677Y0047524D01*
X0074397Y0047040D01*
X0074252Y0046499D01*
X0074252Y0045719D01*
X0078127Y0045719D01*
X0078127Y0045469D01*
X0074252Y0045469D01*
X0074252Y0044807D01*
X0071494Y0044807D01*
X0071504Y0044846D01*
X0071504Y0046380D01*
X0065813Y0046380D01*
X0065813Y0047053D01*
X0071504Y0047053D01*
X0071504Y0048587D01*
X0071402Y0048969D01*
X0071204Y0049311D01*
X0070925Y0049590D01*
X0070583Y0049788D01*
X0070201Y0049890D01*
X0065813Y0049890D01*
X0065813Y0047053D01*
X0065140Y0047053D01*
X0065140Y0049890D01*
X0060751Y0049890D01*
X0060370Y0049788D01*
X0060028Y0049590D01*
X0059749Y0049311D01*
X0059551Y0048969D01*
X0059449Y0048587D01*
X0059449Y0047053D01*
X0065140Y0047053D01*
X0065140Y0046380D01*
X0059449Y0046380D01*
X0059449Y0044846D01*
X0059459Y0044807D01*
X0058587Y0044807D01*
X0058587Y0050713D01*
X0058587Y0050199D02*
X0083193Y0050199D01*
X0083193Y0049200D02*
X0071268Y0049200D01*
X0071504Y0048202D02*
X0075565Y0048202D01*
X0074491Y0047203D02*
X0071504Y0047203D01*
X0071504Y0046205D02*
X0074252Y0046205D01*
X0074252Y0045206D02*
X0071504Y0045206D01*
X0073966Y0042211D02*
X0074252Y0042211D01*
X0074252Y0041212D02*
X0073966Y0041212D01*
X0073966Y0040214D02*
X0074510Y0040214D01*
X0074652Y0039215D02*
X0073966Y0039215D01*
X0073966Y0038217D02*
X0074652Y0038217D01*
X0074652Y0037218D02*
X0073966Y0037218D01*
X0073966Y0036220D02*
X0075207Y0036220D01*
X0076709Y0033224D02*
X0077709Y0033224D01*
X0077709Y0032226D02*
X0076709Y0032226D01*
X0076709Y0031227D02*
X0077709Y0031227D01*
X0077709Y0030229D02*
X0076709Y0030229D01*
X0076709Y0028232D02*
X0077709Y0028232D01*
X0077709Y0027233D02*
X0076709Y0027233D01*
X0076709Y0026235D02*
X0077709Y0026235D01*
X0077709Y0025236D02*
X0076709Y0025236D01*
X0084177Y0036220D02*
X0084538Y0036220D01*
X0088009Y0036220D02*
X0088259Y0036220D01*
X0088259Y0037218D02*
X0088009Y0037218D01*
X0092081Y0039215D02*
X0097457Y0039215D01*
X0097457Y0038217D02*
X0098457Y0038217D01*
X0098457Y0038598D02*
X0098457Y0039598D01*
X0105331Y0039598D01*
X0105331Y0038598D01*
X0101378Y0038598D01*
X0098457Y0038598D01*
X0098457Y0039215D02*
X0105331Y0039215D01*
X0105331Y0038217D02*
X0106331Y0038217D01*
X0106331Y0038598D02*
X0106331Y0039598D01*
X0113205Y0039598D01*
X0113205Y0038598D01*
X0109252Y0038598D01*
X0106331Y0038598D01*
X0106331Y0039215D02*
X0113205Y0039215D01*
X0113205Y0038217D02*
X0114205Y0038217D01*
X0114205Y0039215D02*
X0119610Y0039215D01*
X0119610Y0038217D02*
X0118157Y0038217D01*
X0118157Y0037218D02*
X0119610Y0037218D01*
X0119610Y0036220D02*
X0118125Y0036220D01*
X0117374Y0035221D02*
X0119610Y0035221D01*
X0114205Y0035221D02*
X0113205Y0035221D01*
X0113205Y0036220D02*
X0114205Y0036220D01*
X0114205Y0037218D02*
X0113205Y0037218D01*
X0110035Y0035221D02*
X0109500Y0035221D01*
X0106331Y0035221D02*
X0105331Y0035221D01*
X0105331Y0036220D02*
X0106331Y0036220D01*
X0106331Y0037218D02*
X0105331Y0037218D01*
X0102161Y0035221D02*
X0101626Y0035221D01*
X0098457Y0035221D02*
X0097457Y0035221D01*
X0097457Y0036220D02*
X0098457Y0036220D01*
X0098457Y0037218D02*
X0097457Y0037218D01*
X0084803Y0047203D02*
X0084793Y0047203D01*
X0083193Y0047203D02*
X0082013Y0047203D01*
X0082252Y0046205D02*
X0083193Y0046205D01*
X0083193Y0045206D02*
X0082252Y0045206D01*
X0078377Y0046205D02*
X0078127Y0046205D01*
X0078127Y0047203D02*
X0078377Y0047203D01*
X0078377Y0048202D02*
X0078127Y0048202D01*
X0080939Y0048202D02*
X0083193Y0048202D01*
X0083972Y0052196D02*
X0133463Y0052196D01*
X0140217Y0048202D02*
X0118157Y0048202D01*
X0118157Y0047203D02*
X0140217Y0047203D01*
X0144092Y0046205D02*
X0144342Y0046205D01*
X0144342Y0046847D02*
X0144342Y0044222D01*
X0146914Y0044222D01*
X0147296Y0044325D01*
X0147638Y0044522D01*
X0147917Y0044801D01*
X0148114Y0045143D01*
X0148217Y0045525D01*
X0148217Y0046847D01*
X0144342Y0046847D01*
X0144342Y0045206D02*
X0144092Y0045206D01*
X0148131Y0045206D02*
X0154081Y0045206D01*
X0154098Y0045143D02*
X0154296Y0044801D01*
X0154575Y0044522D01*
X0154917Y0044325D01*
X0155299Y0044222D01*
X0157871Y0044222D01*
X0157871Y0046847D01*
X0153996Y0046847D01*
X0153996Y0045525D01*
X0154098Y0045143D01*
X0153996Y0046205D02*
X0148217Y0046205D01*
X0148217Y0047203D02*
X0153996Y0047203D01*
X0153996Y0048202D02*
X0148217Y0048202D01*
X0147860Y0049200D02*
X0154353Y0049200D01*
X0154396Y0050199D02*
X0147817Y0050199D01*
X0147817Y0051197D02*
X0154396Y0051197D01*
X0154396Y0052196D02*
X0147817Y0052196D01*
X0144363Y0055191D02*
X0156396Y0055191D01*
X0156396Y0056190D02*
X0145361Y0056190D01*
X0146360Y0057188D02*
X0156396Y0057188D01*
X0156396Y0058187D02*
X0147358Y0058187D01*
X0148357Y0059186D02*
X0156396Y0059186D01*
X0156396Y0060184D02*
X0149355Y0060184D01*
X0150354Y0061183D02*
X0156396Y0061183D01*
X0156396Y0062181D02*
X0151352Y0062181D01*
X0152351Y0063180D02*
X0156396Y0063180D01*
X0156396Y0064178D02*
X0153349Y0064178D01*
X0153691Y0065177D02*
X0156396Y0065177D01*
X0156396Y0066175D02*
X0153691Y0066175D01*
X0153691Y0067174D02*
X0156396Y0067174D01*
X0156396Y0068172D02*
X0153691Y0068172D01*
X0153691Y0069171D02*
X0156396Y0069171D01*
X0159596Y0069171D02*
X0195585Y0069171D01*
X0195610Y0070169D02*
X0159596Y0070169D01*
X0159628Y0071168D02*
X0196024Y0071168D01*
X0197040Y0072166D02*
X0185114Y0072166D01*
X0185098Y0072150D02*
X0185377Y0072429D01*
X0185575Y0072771D01*
X0185677Y0073153D01*
X0185677Y0074835D01*
X0182496Y0074835D01*
X0182496Y0071850D01*
X0184375Y0071850D01*
X0184756Y0071953D01*
X0185098Y0072150D01*
X0185677Y0073165D02*
X0197085Y0073165D01*
X0197085Y0074163D02*
X0185677Y0074163D01*
X0182496Y0074163D02*
X0181528Y0074163D01*
X0181528Y0073165D02*
X0182496Y0073165D01*
X0182496Y0072166D02*
X0181528Y0072166D01*
X0178909Y0072166D02*
X0159628Y0072166D01*
X0159628Y0073165D02*
X0172054Y0073165D01*
X0174925Y0075713D02*
X0175358Y0076146D01*
X0175358Y0084059D01*
X0175476Y0084177D01*
X0175713Y0084177D01*
X0172093Y0084148D02*
X0171039Y0084148D01*
X0171039Y0083150D02*
X0172093Y0083150D01*
X0172093Y0082151D02*
X0171039Y0082151D01*
X0171039Y0081153D02*
X0172575Y0081153D01*
X0173758Y0080154D02*
X0171039Y0080154D01*
X0170295Y0079156D02*
X0173758Y0079156D01*
X0172468Y0078157D02*
X0169297Y0078157D01*
X0168298Y0077159D02*
X0172054Y0077159D01*
X0174925Y0075713D02*
X0175319Y0075319D01*
X0160752Y0075319D01*
X0160752Y0077287D02*
X0161089Y0077624D01*
X0158057Y0081709D02*
X0151606Y0081709D01*
X0151606Y0075257D01*
X0151181Y0075257D01*
X0151106Y0075183D01*
X0151031Y0075257D01*
X0150606Y0075257D01*
X0150606Y0081709D01*
X0144155Y0081709D01*
X0144155Y0082134D01*
X0144080Y0082209D01*
X0144155Y0082284D01*
X0144155Y0082709D01*
X0150606Y0082709D01*
X0150606Y0089160D01*
X0151031Y0089160D01*
X0151106Y0089235D01*
X0151181Y0089160D01*
X0151606Y0089160D01*
X0151606Y0082709D01*
X0150606Y0082709D01*
X0150606Y0081709D01*
X0151606Y0081709D01*
X0151606Y0082709D01*
X0158057Y0082709D01*
X0158057Y0082284D01*
X0158132Y0082209D01*
X0158057Y0082134D01*
X0158057Y0081709D01*
X0158075Y0082151D02*
X0151606Y0082151D01*
X0151606Y0081153D02*
X0150606Y0081153D01*
X0150606Y0082151D02*
X0144138Y0082151D01*
X0141461Y0081224D02*
X0138311Y0081224D01*
X0129453Y0072366D01*
X0121579Y0072366D01*
X0120988Y0072366D01*
X0124254Y0074163D02*
X0128987Y0074163D01*
X0136041Y0072166D02*
X0142585Y0072166D01*
X0142585Y0073165D02*
X0137040Y0073165D01*
X0144217Y0072563D02*
X0144217Y0066461D01*
X0138311Y0060555D01*
X0138974Y0058955D02*
X0146185Y0066166D01*
X0146185Y0072563D01*
X0150606Y0076160D02*
X0151606Y0076160D01*
X0151606Y0077159D02*
X0150606Y0077159D01*
X0150606Y0078157D02*
X0151606Y0078157D01*
X0151606Y0079156D02*
X0150606Y0079156D01*
X0150606Y0080154D02*
X0151606Y0080154D01*
X0151606Y0083150D02*
X0150606Y0083150D01*
X0150606Y0084148D02*
X0151606Y0084148D01*
X0151606Y0085147D02*
X0150606Y0085147D01*
X0150606Y0086145D02*
X0151606Y0086145D01*
X0151606Y0087144D02*
X0150606Y0087144D01*
X0150606Y0088142D02*
X0151606Y0088142D01*
X0151606Y0089141D02*
X0150606Y0089141D01*
X0147785Y0095132D02*
X0156396Y0095132D01*
X0156860Y0096130D02*
X0147785Y0096130D01*
X0147785Y0097129D02*
X0157858Y0097129D01*
X0158980Y0095988D02*
X0162917Y0095988D01*
X0164886Y0094020D01*
X0166154Y0096130D02*
X0166239Y0096130D01*
X0166239Y0097129D02*
X0164039Y0097129D01*
X0166239Y0098127D02*
X0147785Y0098127D01*
X0147278Y0099126D02*
X0166239Y0099126D01*
X0166239Y0100124D02*
X0146280Y0100124D01*
X0145281Y0101123D02*
X0166239Y0101123D01*
X0166239Y0102121D02*
X0144283Y0102121D01*
X0143284Y0103120D02*
X0166239Y0103120D01*
X0166239Y0104119D02*
X0142286Y0104119D01*
X0141287Y0105117D02*
X0166239Y0105117D01*
X0158980Y0095988D02*
X0157996Y0095004D01*
X0157996Y0091854D01*
X0160752Y0089098D02*
X0163902Y0089098D01*
X0164886Y0090083D01*
X0163902Y0087130D02*
X0160752Y0087130D01*
X0163902Y0087130D02*
X0164886Y0086146D01*
X0163902Y0083193D02*
X0160752Y0083193D01*
X0163902Y0083193D02*
X0164886Y0082209D01*
X0171039Y0085147D02*
X0172093Y0085147D01*
X0172093Y0086145D02*
X0171039Y0086145D01*
X0171039Y0089141D02*
X0171974Y0089141D01*
X0171654Y0090139D02*
X0171039Y0090139D01*
X0171039Y0091138D02*
X0171654Y0091138D01*
X0174835Y0093135D02*
X0175803Y0093135D01*
X0175803Y0094133D02*
X0174835Y0094133D01*
X0174835Y0095132D02*
X0175803Y0095132D01*
X0178493Y0095132D02*
X0180412Y0095132D01*
X0183612Y0095132D02*
X0195197Y0095132D01*
X0195197Y0096130D02*
X0183612Y0096130D01*
X0183612Y0097129D02*
X0199150Y0097129D01*
X0199150Y0097063D02*
X0195197Y0097063D01*
X0195197Y0092838D01*
X0195299Y0092456D01*
X0195497Y0092114D01*
X0195776Y0091835D01*
X0196118Y0091638D01*
X0196499Y0091535D01*
X0199150Y0091535D01*
X0199150Y0097063D01*
X0200150Y0097063D01*
X0200150Y0098063D01*
X0204102Y0098063D01*
X0204102Y0102288D01*
X0204000Y0102670D01*
X0203803Y0103012D01*
X0203523Y0103291D01*
X0203181Y0103488D01*
X0202800Y0103591D01*
X0200150Y0103591D01*
X0200150Y0098063D01*
X0199150Y0098063D01*
X0199150Y0103591D01*
X0196499Y0103591D01*
X0196118Y0103488D01*
X0195776Y0103291D01*
X0195497Y0103012D01*
X0195299Y0102670D01*
X0195197Y0102288D01*
X0195197Y0098063D01*
X0199150Y0098063D01*
X0199150Y0097063D01*
X0199150Y0096130D02*
X0200150Y0096130D01*
X0200150Y0097063D02*
X0200150Y0091535D01*
X0202800Y0091535D01*
X0203181Y0091638D01*
X0203523Y0091835D01*
X0203803Y0092114D01*
X0204000Y0092456D01*
X0204102Y0092838D01*
X0204102Y0097063D01*
X0200150Y0097063D01*
X0200150Y0097129D02*
X0211614Y0097129D01*
X0211614Y0098127D02*
X0204102Y0098127D01*
X0204102Y0099126D02*
X0211614Y0099126D01*
X0211614Y0100124D02*
X0204102Y0100124D01*
X0204102Y0101123D02*
X0211614Y0101123D01*
X0211614Y0102121D02*
X0204102Y0102121D01*
X0203694Y0103120D02*
X0211614Y0103120D01*
X0211614Y0104119D02*
X0182234Y0104119D01*
X0182234Y0105117D02*
X0211614Y0105117D01*
X0211614Y0106116D02*
X0182234Y0106116D01*
X0182234Y0107114D02*
X0211614Y0107114D01*
X0211614Y0108113D02*
X0182234Y0108113D01*
X0182234Y0109111D02*
X0211614Y0109111D01*
X0211614Y0110110D02*
X0182234Y0110110D01*
X0182234Y0111108D02*
X0211614Y0111108D01*
X0211614Y0112107D02*
X0182234Y0112107D01*
X0182234Y0113105D02*
X0211614Y0113105D01*
X0211614Y0114104D02*
X0182234Y0114104D01*
X0182326Y0115102D02*
X0211614Y0115102D01*
X0211614Y0116101D02*
X0183324Y0116101D01*
X0184323Y0117099D02*
X0211614Y0117099D01*
X0211614Y0118098D02*
X0185321Y0118098D01*
X0186320Y0119096D02*
X0195597Y0119096D01*
X0195597Y0120095D02*
X0187318Y0120095D01*
X0188317Y0121093D02*
X0195597Y0121093D01*
X0195597Y0122092D02*
X0189315Y0122092D01*
X0188902Y0123941D02*
X0180634Y0115673D01*
X0180634Y0100909D01*
X0182012Y0099531D01*
X0182012Y0092051D01*
X0182012Y0084098D01*
X0182051Y0084059D01*
X0183612Y0087144D02*
X0211614Y0087144D01*
X0211614Y0088142D02*
X0183612Y0088142D01*
X0184791Y0089141D02*
X0211614Y0089141D01*
X0211614Y0090139D02*
X0185277Y0090139D01*
X0185277Y0091138D02*
X0211614Y0091138D01*
X0211614Y0092136D02*
X0203815Y0092136D01*
X0204102Y0093135D02*
X0211614Y0093135D01*
X0211614Y0094133D02*
X0204102Y0094133D01*
X0204102Y0095132D02*
X0211614Y0095132D01*
X0211614Y0096130D02*
X0204102Y0096130D01*
X0200150Y0095132D02*
X0199150Y0095132D01*
X0199150Y0094133D02*
X0200150Y0094133D01*
X0200150Y0093135D02*
X0199150Y0093135D01*
X0199150Y0092136D02*
X0200150Y0092136D01*
X0195484Y0092136D02*
X0185277Y0092136D01*
X0185277Y0093135D02*
X0195197Y0093135D01*
X0195197Y0094133D02*
X0185277Y0094133D01*
X0183612Y0098127D02*
X0195197Y0098127D01*
X0195197Y0099126D02*
X0183612Y0099126D01*
X0183612Y0100124D02*
X0195197Y0100124D01*
X0195197Y0101123D02*
X0183023Y0101123D01*
X0182800Y0102121D02*
X0195197Y0102121D01*
X0195605Y0103120D02*
X0182234Y0103120D01*
X0199150Y0103120D02*
X0200150Y0103120D01*
X0200150Y0102121D02*
X0199150Y0102121D01*
X0199150Y0101123D02*
X0200150Y0101123D01*
X0200150Y0100124D02*
X0199150Y0100124D01*
X0199150Y0099126D02*
X0200150Y0099126D01*
X0200150Y0098127D02*
X0199150Y0098127D01*
X0211614Y0086145D02*
X0185317Y0086145D01*
X0192754Y0085147D02*
X0211614Y0085147D01*
X0211614Y0084148D02*
X0193752Y0084148D01*
X0194751Y0083150D02*
X0211614Y0083150D01*
X0211614Y0082151D02*
X0195749Y0082151D01*
X0196748Y0081153D02*
X0211614Y0081153D01*
X0211614Y0080154D02*
X0197746Y0080154D01*
X0198745Y0079156D02*
X0211614Y0079156D01*
X0211614Y0078157D02*
X0199743Y0078157D01*
X0200285Y0077159D02*
X0211614Y0077159D01*
X0211614Y0076160D02*
X0200285Y0076160D01*
X0200285Y0075162D02*
X0211614Y0075162D01*
X0211614Y0074163D02*
X0200285Y0074163D01*
X0200285Y0073165D02*
X0211614Y0073165D01*
X0211614Y0072166D02*
X0205961Y0072166D01*
X0206775Y0071168D02*
X0211614Y0071168D01*
X0211614Y0070169D02*
X0207119Y0070169D01*
X0207185Y0069171D02*
X0211614Y0069171D01*
X0211614Y0068172D02*
X0206927Y0068172D01*
X0206316Y0067174D02*
X0211614Y0067174D01*
X0211614Y0066175D02*
X0206343Y0066175D01*
X0206757Y0065177D02*
X0211614Y0065177D01*
X0211614Y0064178D02*
X0206785Y0064178D01*
X0206497Y0063180D02*
X0211614Y0063180D01*
X0211614Y0062181D02*
X0205946Y0062181D01*
X0206765Y0061183D02*
X0211614Y0061183D01*
X0211614Y0060184D02*
X0207116Y0060184D01*
X0207185Y0059186D02*
X0211614Y0059186D01*
X0211614Y0058187D02*
X0206933Y0058187D01*
X0206331Y0057188D02*
X0211614Y0057188D01*
X0211614Y0056190D02*
X0206760Y0056190D01*
X0207114Y0055191D02*
X0211614Y0055191D01*
X0211614Y0054193D02*
X0207185Y0054193D01*
X0206936Y0053194D02*
X0211614Y0053194D01*
X0211614Y0052196D02*
X0206339Y0052196D01*
X0206334Y0051197D02*
X0211614Y0051197D01*
X0211614Y0050199D02*
X0206748Y0050199D01*
X0206785Y0049200D02*
X0211614Y0049200D01*
X0211614Y0048202D02*
X0206506Y0048202D01*
X0205780Y0047203D02*
X0211614Y0047203D01*
X0211614Y0046205D02*
X0187234Y0046205D01*
X0187234Y0047203D02*
X0196590Y0047203D01*
X0195864Y0048202D02*
X0187234Y0048202D01*
X0187234Y0049200D02*
X0195585Y0049200D01*
X0195622Y0050199D02*
X0187234Y0050199D01*
X0187234Y0051197D02*
X0196036Y0051197D01*
X0196597Y0052196D02*
X0186335Y0052196D01*
X0185336Y0053194D02*
X0195867Y0053194D01*
X0195585Y0054193D02*
X0184337Y0054193D01*
X0183339Y0055191D02*
X0195619Y0055191D01*
X0203685Y0055191D02*
X0203685Y0055191D01*
X0203685Y0056190D02*
X0203685Y0056190D01*
X0203685Y0057188D02*
X0203685Y0057188D01*
X0203685Y0058187D02*
X0203685Y0058187D01*
X0203685Y0059186D02*
X0203685Y0059186D01*
X0203685Y0069492D02*
X0203685Y0072992D01*
X0203685Y0069492D01*
X0203685Y0069492D01*
X0203685Y0070169D02*
X0203685Y0070169D01*
X0203685Y0071168D02*
X0203685Y0071168D01*
X0203685Y0072166D02*
X0203685Y0072166D01*
X0201409Y0072166D02*
X0200330Y0072166D01*
X0182602Y0053665D02*
X0179650Y0053665D01*
X0179634Y0053681D01*
X0176697Y0053681D01*
X0182602Y0053665D02*
X0185634Y0050634D01*
X0185634Y0027091D01*
X0182549Y0030229D02*
X0178718Y0030229D01*
X0179510Y0029230D02*
X0181758Y0029230D01*
X0181344Y0028232D02*
X0179924Y0028232D01*
X0180034Y0027233D02*
X0181234Y0027233D01*
X0181234Y0026235D02*
X0180034Y0026235D01*
X0179628Y0025236D02*
X0181639Y0025236D01*
X0182264Y0024238D02*
X0179003Y0024238D01*
X0177833Y0023239D02*
X0183434Y0023239D01*
X0187833Y0023239D02*
X0192769Y0023239D01*
X0192507Y0023429D02*
X0193118Y0022985D01*
X0193791Y0022642D01*
X0194510Y0022409D01*
X0195150Y0022307D01*
X0195150Y0026606D01*
X0190851Y0026606D01*
X0190952Y0025967D01*
X0191186Y0025248D01*
X0191529Y0024575D01*
X0191973Y0023964D01*
X0192507Y0023429D01*
X0191774Y0024238D02*
X0189003Y0024238D01*
X0189628Y0025236D02*
X0191192Y0025236D01*
X0190910Y0026235D02*
X0190034Y0026235D01*
X0195150Y0026235D02*
X0196118Y0026235D01*
X0196118Y0025236D02*
X0195150Y0025236D01*
X0195150Y0024238D02*
X0196118Y0024238D01*
X0196118Y0023239D02*
X0195150Y0023239D01*
X0200310Y0028232D02*
X0211614Y0028232D01*
X0211614Y0029230D02*
X0199931Y0029230D01*
X0199284Y0030229D02*
X0211614Y0030229D01*
X0211614Y0031227D02*
X0198088Y0031227D01*
X0196118Y0031227D02*
X0195150Y0031227D01*
X0195150Y0030229D02*
X0196118Y0030229D01*
X0196118Y0029230D02*
X0195150Y0029230D01*
X0209236Y0020244D02*
X0020142Y0020244D01*
X0019175Y0021242D02*
X0210203Y0021242D01*
X0207525Y0019245D02*
X0021852Y0019245D01*
X0022962Y0032226D02*
X0017764Y0032226D01*
X0017764Y0033224D02*
X0022095Y0033224D01*
X0021595Y0034223D02*
X0017764Y0034223D01*
X0017764Y0035221D02*
X0021349Y0035221D01*
X0021497Y0037218D02*
X0017764Y0037218D01*
X0017764Y0036220D02*
X0025622Y0036220D01*
X0022663Y0039215D02*
X0017764Y0039215D01*
X0017764Y0038217D02*
X0021915Y0038217D01*
X0024058Y0040214D02*
X0017764Y0040214D01*
X0017764Y0042211D02*
X0022977Y0042211D01*
X0022106Y0043209D02*
X0017764Y0043209D01*
X0017764Y0044208D02*
X0021599Y0044208D01*
X0021352Y0045206D02*
X0017764Y0045206D01*
X0017764Y0046205D02*
X0025622Y0046205D01*
X0025622Y0046354D02*
X0021323Y0046354D01*
X0021424Y0046994D01*
X0021658Y0047713D01*
X0022001Y0048386D01*
X0022445Y0048997D01*
X0022979Y0049531D01*
X0023591Y0049975D01*
X0024264Y0050318D01*
X0024982Y0050552D01*
X0025622Y0050653D01*
X0025622Y0046354D01*
X0025622Y0047203D02*
X0026591Y0047203D01*
X0026591Y0048202D02*
X0025622Y0048202D01*
X0025622Y0049200D02*
X0026591Y0049200D01*
X0026591Y0050199D02*
X0025622Y0050199D01*
X0024029Y0050199D02*
X0017764Y0050199D01*
X0017764Y0049200D02*
X0022648Y0049200D01*
X0021907Y0048202D02*
X0017764Y0048202D01*
X0017764Y0047203D02*
X0021493Y0047203D01*
X0024506Y0053194D02*
X0017764Y0053194D01*
X0017764Y0054193D02*
X0024506Y0054193D01*
X0022447Y0055191D02*
X0017764Y0055191D01*
X0017764Y0056190D02*
X0022447Y0056190D01*
X0022447Y0057188D02*
X0017764Y0057188D01*
X0017764Y0058187D02*
X0022447Y0058187D01*
X0022447Y0059186D02*
X0017764Y0059186D01*
X0017764Y0060184D02*
X0022605Y0060184D01*
X0017764Y0061183D02*
X0040026Y0061183D01*
X0040026Y0061581D02*
X0040026Y0059909D01*
X0042801Y0059909D01*
X0042801Y0062884D01*
X0041328Y0062884D01*
X0040947Y0062782D01*
X0040605Y0062584D01*
X0040325Y0062305D01*
X0040128Y0061963D01*
X0040026Y0061581D01*
X0040254Y0062181D02*
X0017764Y0062181D01*
X0017764Y0063180D02*
X0040537Y0063180D01*
X0040685Y0063094D02*
X0041066Y0062992D01*
X0042945Y0062992D01*
X0042945Y0065976D01*
X0043913Y0065976D01*
X0043913Y0062992D01*
X0045792Y0062992D01*
X0046173Y0063094D01*
X0046516Y0063292D01*
X0046795Y0063571D01*
X0046988Y0063905D01*
X0047501Y0063392D01*
X0049113Y0063392D01*
X0049113Y0063186D01*
X0049076Y0063149D01*
X0049076Y0062484D01*
X0048670Y0062484D01*
X0048026Y0061839D01*
X0048026Y0057428D01*
X0048670Y0056784D01*
X0052681Y0056784D01*
X0053326Y0057428D01*
X0053326Y0061839D01*
X0052681Y0062484D01*
X0052313Y0062484D01*
X0052313Y0063392D01*
X0052743Y0063392D01*
X0053387Y0064036D01*
X0053387Y0064861D01*
X0055955Y0064861D01*
X0056940Y0063876D01*
X0063609Y0063876D01*
X0063609Y0063446D01*
X0064253Y0062802D01*
X0070479Y0062802D01*
X0071124Y0063446D01*
X0071124Y0067507D01*
X0070479Y0068151D01*
X0068966Y0068151D01*
X0068966Y0074613D01*
X0070479Y0074613D01*
X0071124Y0075257D01*
X0071124Y0079318D01*
X0070479Y0079962D01*
X0064253Y0079962D01*
X0063609Y0079318D01*
X0063609Y0075257D01*
X0064253Y0074613D01*
X0065766Y0074613D01*
X0065766Y0068151D01*
X0064253Y0068151D01*
X0063609Y0067507D01*
X0063609Y0067076D01*
X0058265Y0067076D01*
X0058218Y0067123D01*
X0058218Y0067123D01*
X0057281Y0068061D01*
X0053387Y0068061D01*
X0053387Y0068885D01*
X0052743Y0069529D01*
X0047501Y0069529D01*
X0046988Y0069016D01*
X0046795Y0069350D01*
X0046516Y0069629D01*
X0046173Y0069827D01*
X0045792Y0069929D01*
X0043913Y0069929D01*
X0043913Y0066945D01*
X0042945Y0066945D01*
X0042945Y0069929D01*
X0041066Y0069929D01*
X0040685Y0069827D01*
X0040343Y0069629D01*
X0040063Y0069350D01*
X0039866Y0069008D01*
X0039764Y0068627D01*
X0039764Y0066945D01*
X0042945Y0066945D01*
X0042945Y0065976D01*
X0039764Y0065976D01*
X0039764Y0064295D01*
X0039866Y0063913D01*
X0040063Y0063571D01*
X0040343Y0063292D01*
X0040685Y0063094D01*
X0039795Y0064178D02*
X0017764Y0064178D01*
X0017764Y0065177D02*
X0039764Y0065177D01*
X0039764Y0067174D02*
X0017764Y0067174D01*
X0017764Y0068172D02*
X0039764Y0068172D01*
X0039960Y0069171D02*
X0017764Y0069171D01*
X0017764Y0070169D02*
X0065766Y0070169D01*
X0065766Y0069171D02*
X0053102Y0069171D01*
X0053387Y0068172D02*
X0065766Y0068172D01*
X0063609Y0067174D02*
X0058168Y0067174D01*
X0056618Y0066461D02*
X0057602Y0065476D01*
X0067366Y0065476D01*
X0067366Y0077287D01*
X0071124Y0077159D02*
X0073609Y0077159D01*
X0073609Y0078157D02*
X0071124Y0078157D01*
X0071124Y0079156D02*
X0073609Y0079156D01*
X0073609Y0079318D02*
X0073609Y0075257D01*
X0074253Y0074613D01*
X0080479Y0074613D01*
X0080609Y0074742D01*
X0080609Y0072176D01*
X0079820Y0071387D01*
X0079820Y0069408D01*
X0081219Y0068009D01*
X0083198Y0068009D01*
X0084598Y0069408D01*
X0084598Y0071387D01*
X0083809Y0072176D01*
X0083809Y0079919D01*
X0082871Y0080856D01*
X0080566Y0083161D01*
X0080566Y0102156D01*
X0079629Y0103093D01*
X0066289Y0116433D01*
X0066289Y0123384D01*
X0067181Y0123754D01*
X0068419Y0124992D01*
X0069089Y0126609D01*
X0069089Y0128359D01*
X0068419Y0129977D01*
X0067181Y0131214D01*
X0065564Y0131884D01*
X0063814Y0131884D01*
X0062197Y0131214D01*
X0060959Y0129977D01*
X0060289Y0128359D01*
X0060289Y0126609D01*
X0060959Y0124992D01*
X0062197Y0123754D01*
X0063089Y0123384D01*
X0063089Y0115108D01*
X0066750Y0111446D01*
X0029222Y0111446D01*
X0028852Y0112339D01*
X0027614Y0113577D01*
X0025997Y0114246D01*
X0024247Y0114246D01*
X0022630Y0113577D01*
X0021392Y0112339D01*
X0020722Y0110722D01*
X0020722Y0108971D01*
X0021392Y0107354D01*
X0022630Y0106116D01*
X0024247Y0105446D01*
X0025997Y0105446D01*
X0027614Y0106116D01*
X0028852Y0107354D01*
X0029222Y0108246D01*
X0067688Y0108246D01*
X0075766Y0100168D01*
X0075766Y0079962D01*
X0074253Y0079962D01*
X0073609Y0079318D01*
X0075766Y0080154D02*
X0017764Y0080154D01*
X0017764Y0079156D02*
X0063609Y0079156D01*
X0063609Y0078157D02*
X0017764Y0078157D01*
X0017764Y0077159D02*
X0063609Y0077159D01*
X0063609Y0076160D02*
X0017764Y0076160D01*
X0017764Y0075162D02*
X0063704Y0075162D01*
X0065766Y0074163D02*
X0017764Y0074163D01*
X0017764Y0073165D02*
X0065766Y0073165D01*
X0065766Y0072166D02*
X0017764Y0072166D01*
X0017764Y0071168D02*
X0065766Y0071168D01*
X0068966Y0071168D02*
X0079820Y0071168D01*
X0079820Y0070169D02*
X0068966Y0070169D01*
X0068966Y0069171D02*
X0080057Y0069171D01*
X0080479Y0068151D02*
X0074253Y0068151D01*
X0073609Y0067507D01*
X0073609Y0063446D01*
X0074253Y0062802D01*
X0080479Y0062802D01*
X0081124Y0063446D01*
X0081124Y0063876D01*
X0081414Y0063876D01*
X0082203Y0063087D01*
X0084182Y0063087D01*
X0085582Y0064487D01*
X0085582Y0066466D01*
X0084182Y0067865D01*
X0082203Y0067865D01*
X0081414Y0067076D01*
X0081124Y0067076D01*
X0081124Y0067507D01*
X0080479Y0068151D01*
X0081056Y0068172D02*
X0068966Y0068172D01*
X0071124Y0067174D02*
X0073609Y0067174D01*
X0073609Y0066175D02*
X0071124Y0066175D01*
X0071124Y0065177D02*
X0073609Y0065177D01*
X0073609Y0064178D02*
X0071124Y0064178D01*
X0070857Y0063180D02*
X0073875Y0063180D01*
X0077366Y0065476D02*
X0083193Y0065476D01*
X0084874Y0067174D02*
X0094494Y0067174D01*
X0093496Y0068172D02*
X0083362Y0068172D01*
X0084360Y0069171D02*
X0093278Y0069171D01*
X0093278Y0070169D02*
X0084598Y0070169D01*
X0084598Y0071168D02*
X0093278Y0071168D01*
X0093278Y0072166D02*
X0083819Y0072166D01*
X0083809Y0073165D02*
X0093278Y0073165D01*
X0093278Y0074163D02*
X0083809Y0074163D01*
X0083809Y0075162D02*
X0093278Y0075162D01*
X0093278Y0076160D02*
X0083809Y0076160D01*
X0083809Y0077159D02*
X0093278Y0077159D01*
X0093278Y0078157D02*
X0083809Y0078157D01*
X0083809Y0079156D02*
X0093278Y0079156D01*
X0093278Y0080154D02*
X0083573Y0080154D01*
X0082575Y0081153D02*
X0093278Y0081153D01*
X0093278Y0082151D02*
X0081576Y0082151D01*
X0080578Y0083150D02*
X0093278Y0083150D01*
X0093278Y0084148D02*
X0080566Y0084148D01*
X0080566Y0085147D02*
X0093278Y0085147D01*
X0093278Y0086145D02*
X0080566Y0086145D01*
X0080566Y0087144D02*
X0093278Y0087144D01*
X0093278Y0088142D02*
X0080566Y0088142D01*
X0080566Y0089141D02*
X0093278Y0089141D01*
X0093278Y0090139D02*
X0080566Y0090139D01*
X0080566Y0091138D02*
X0093278Y0091138D01*
X0093278Y0092136D02*
X0080566Y0092136D01*
X0080566Y0093135D02*
X0093278Y0093135D01*
X0093278Y0094133D02*
X0080566Y0094133D01*
X0080566Y0095132D02*
X0093278Y0095132D01*
X0093278Y0096130D02*
X0080566Y0096130D01*
X0080566Y0097129D02*
X0093278Y0097129D01*
X0093278Y0098127D02*
X0080566Y0098127D01*
X0080566Y0099126D02*
X0093278Y0099126D01*
X0093278Y0100124D02*
X0080566Y0100124D01*
X0080566Y0101123D02*
X0093278Y0101123D01*
X0093278Y0102121D02*
X0080566Y0102121D01*
X0079602Y0103120D02*
X0093278Y0103120D01*
X0093278Y0104119D02*
X0078604Y0104119D01*
X0077605Y0105117D02*
X0093278Y0105117D01*
X0093278Y0106116D02*
X0076607Y0106116D01*
X0072814Y0103120D02*
X0028637Y0103120D01*
X0028783Y0102973D02*
X0028249Y0103508D01*
X0027638Y0103952D01*
X0026965Y0104295D01*
X0026246Y0104528D01*
X0025606Y0104630D01*
X0025606Y0100331D01*
X0024638Y0100331D01*
X0024638Y0104630D01*
X0023998Y0104528D01*
X0023279Y0104295D01*
X0022606Y0103952D01*
X0021995Y0103508D01*
X0021461Y0102973D01*
X0021017Y0102362D01*
X0020674Y0101689D01*
X0020440Y0100970D01*
X0020339Y0100331D01*
X0024638Y0100331D01*
X0024638Y0099362D01*
X0025606Y0099362D01*
X0025606Y0095063D01*
X0026246Y0095165D01*
X0026965Y0095398D01*
X0027638Y0095741D01*
X0028249Y0096185D01*
X0028783Y0096719D01*
X0029227Y0097331D01*
X0029570Y0098004D01*
X0029804Y0098722D01*
X0029905Y0099362D01*
X0025606Y0099362D01*
X0025606Y0100331D01*
X0029905Y0100331D01*
X0029804Y0100970D01*
X0029570Y0101689D01*
X0029227Y0102362D01*
X0028783Y0102973D01*
X0029350Y0102121D02*
X0073813Y0102121D01*
X0074811Y0101123D02*
X0029754Y0101123D01*
X0029868Y0099126D02*
X0075766Y0099126D01*
X0075766Y0100124D02*
X0025606Y0100124D01*
X0024638Y0100124D02*
X0017764Y0100124D01*
X0017764Y0099126D02*
X0020376Y0099126D01*
X0020339Y0099362D02*
X0020440Y0098722D01*
X0020674Y0098004D01*
X0021017Y0097331D01*
X0021461Y0096719D01*
X0021995Y0096185D01*
X0022606Y0095741D01*
X0023279Y0095398D01*
X0023998Y0095165D01*
X0024638Y0095063D01*
X0024638Y0099362D01*
X0020339Y0099362D01*
X0020634Y0098127D02*
X0017764Y0098127D01*
X0017764Y0097129D02*
X0021163Y0097129D01*
X0022070Y0096130D02*
X0017764Y0096130D01*
X0017764Y0095132D02*
X0024205Y0095132D01*
X0024638Y0095132D02*
X0025606Y0095132D01*
X0026039Y0095132D02*
X0075766Y0095132D01*
X0075766Y0096130D02*
X0028174Y0096130D01*
X0029081Y0097129D02*
X0075766Y0097129D01*
X0075766Y0098127D02*
X0029611Y0098127D01*
X0025606Y0098127D02*
X0024638Y0098127D01*
X0024638Y0097129D02*
X0025606Y0097129D01*
X0025606Y0096130D02*
X0024638Y0096130D01*
X0024638Y0099126D02*
X0025606Y0099126D01*
X0025606Y0101123D02*
X0024638Y0101123D01*
X0024638Y0102121D02*
X0025606Y0102121D01*
X0025606Y0103120D02*
X0024638Y0103120D01*
X0024638Y0104119D02*
X0025606Y0104119D01*
X0027311Y0104119D02*
X0071816Y0104119D01*
X0070817Y0105117D02*
X0017764Y0105117D01*
X0017764Y0104119D02*
X0022934Y0104119D01*
X0021607Y0103120D02*
X0017764Y0103120D01*
X0017764Y0102121D02*
X0020894Y0102121D01*
X0020490Y0101123D02*
X0017764Y0101123D01*
X0017764Y0106116D02*
X0022632Y0106116D01*
X0021632Y0107114D02*
X0017764Y0107114D01*
X0017764Y0108113D02*
X0021078Y0108113D01*
X0020722Y0109111D02*
X0017764Y0109111D01*
X0017764Y0110110D02*
X0020722Y0110110D01*
X0020882Y0111108D02*
X0017764Y0111108D01*
X0017764Y0112107D02*
X0021296Y0112107D01*
X0022158Y0113105D02*
X0017764Y0113105D01*
X0017764Y0114104D02*
X0023902Y0114104D01*
X0026342Y0114104D02*
X0064093Y0114104D01*
X0063095Y0115102D02*
X0017764Y0115102D01*
X0017764Y0116101D02*
X0063089Y0116101D01*
X0063089Y0117099D02*
X0017764Y0117099D01*
X0017764Y0118098D02*
X0063089Y0118098D01*
X0063089Y0119096D02*
X0017764Y0119096D01*
X0017764Y0120095D02*
X0063089Y0120095D01*
X0063089Y0121093D02*
X0017764Y0121093D01*
X0017764Y0122092D02*
X0063089Y0122092D01*
X0063089Y0123090D02*
X0055579Y0123090D01*
X0055564Y0123084D02*
X0057181Y0123754D01*
X0058419Y0124992D01*
X0059089Y0126609D01*
X0059089Y0128359D01*
X0058419Y0129977D01*
X0057181Y0131214D01*
X0055564Y0131884D01*
X0053814Y0131884D01*
X0052197Y0131214D01*
X0050959Y0129977D01*
X0050289Y0128359D01*
X0050289Y0126609D01*
X0050959Y0124992D01*
X0052197Y0123754D01*
X0053814Y0123084D01*
X0055564Y0123084D01*
X0053799Y0123090D02*
X0017764Y0123090D01*
X0017764Y0124089D02*
X0051862Y0124089D01*
X0050919Y0125087D02*
X0017764Y0125087D01*
X0017764Y0126086D02*
X0050506Y0126086D01*
X0050289Y0127084D02*
X0017764Y0127084D01*
X0017811Y0128083D02*
X0050289Y0128083D01*
X0050588Y0129081D02*
X0018037Y0129081D01*
X0018362Y0130080D02*
X0051062Y0130080D01*
X0052061Y0131078D02*
X0018967Y0131078D01*
X0019748Y0132077D02*
X0073290Y0132077D01*
X0073565Y0132166D02*
X0072846Y0131933D01*
X0072173Y0131590D01*
X0071562Y0131145D01*
X0071028Y0130611D01*
X0070584Y0130000D01*
X0070241Y0129327D01*
X0070007Y0128608D01*
X0069906Y0127969D01*
X0074205Y0127969D01*
X0074205Y0132267D01*
X0073565Y0132166D01*
X0074205Y0132077D02*
X0075173Y0132077D01*
X0075173Y0132267D02*
X0075173Y0127969D01*
X0074205Y0127969D01*
X0074205Y0127000D01*
X0075173Y0127000D01*
X0075173Y0122701D01*
X0075813Y0122802D01*
X0076532Y0123036D01*
X0077205Y0123379D01*
X0077816Y0123823D01*
X0078350Y0124357D01*
X0078794Y0124969D01*
X0079137Y0125642D01*
X0079371Y0126360D01*
X0079472Y0127000D01*
X0075173Y0127000D01*
X0075173Y0127969D01*
X0079472Y0127969D01*
X0079371Y0128608D01*
X0079137Y0129327D01*
X0078794Y0130000D01*
X0078350Y0130611D01*
X0077816Y0131145D01*
X0077205Y0131590D01*
X0076532Y0131933D01*
X0075813Y0132166D01*
X0075173Y0132267D01*
X0076088Y0132077D02*
X0209630Y0132077D01*
X0210411Y0131078D02*
X0177317Y0131078D01*
X0178316Y0130080D02*
X0211016Y0130080D01*
X0211341Y0129081D02*
X0203545Y0129081D01*
X0203702Y0128083D02*
X0211567Y0128083D01*
X0211614Y0127084D02*
X0203702Y0127084D01*
X0203702Y0126086D02*
X0211614Y0126086D01*
X0211614Y0125087D02*
X0203702Y0125087D01*
X0203702Y0124089D02*
X0211614Y0124089D01*
X0211614Y0123090D02*
X0203702Y0123090D01*
X0203702Y0122092D02*
X0211614Y0122092D01*
X0211614Y0121093D02*
X0203702Y0121093D01*
X0203702Y0120095D02*
X0211614Y0120095D01*
X0211614Y0119096D02*
X0203702Y0119096D01*
X0199650Y0123941D02*
X0188902Y0123941D01*
X0187785Y0125087D02*
X0178459Y0125087D01*
X0178872Y0126086D02*
X0195597Y0126086D01*
X0195597Y0127084D02*
X0179089Y0127084D01*
X0179089Y0128083D02*
X0195597Y0128083D01*
X0195754Y0129081D02*
X0178790Y0129081D01*
X0172061Y0131078D02*
X0167317Y0131078D01*
X0168316Y0130080D02*
X0171062Y0130080D01*
X0170588Y0129081D02*
X0168790Y0129081D01*
X0169089Y0128083D02*
X0170289Y0128083D01*
X0170289Y0127084D02*
X0169089Y0127084D01*
X0168872Y0126086D02*
X0170506Y0126086D01*
X0170919Y0125087D02*
X0168459Y0125087D01*
X0167516Y0124089D02*
X0171862Y0124089D01*
X0177516Y0124089D02*
X0186787Y0124089D01*
X0208255Y0133075D02*
X0021123Y0133075D01*
X0028086Y0113105D02*
X0065092Y0113105D01*
X0066090Y0112107D02*
X0028948Y0112107D01*
X0029166Y0108113D02*
X0067822Y0108113D01*
X0068820Y0107114D02*
X0028612Y0107114D01*
X0027613Y0106116D02*
X0069819Y0106116D01*
X0068350Y0109846D02*
X0077366Y0100831D01*
X0077366Y0077287D01*
X0073609Y0076160D02*
X0071124Y0076160D01*
X0071028Y0075162D02*
X0073704Y0075162D01*
X0068966Y0074163D02*
X0080609Y0074163D01*
X0080609Y0073165D02*
X0068966Y0073165D01*
X0068966Y0072166D02*
X0080599Y0072166D01*
X0082209Y0070398D02*
X0082209Y0079256D01*
X0078966Y0082498D01*
X0078966Y0101493D01*
X0064689Y0115771D01*
X0064689Y0127484D01*
X0068790Y0129081D02*
X0070161Y0129081D01*
X0069924Y0128083D02*
X0069089Y0128083D01*
X0069089Y0127084D02*
X0074205Y0127084D01*
X0074205Y0127000D02*
X0069906Y0127000D01*
X0070007Y0126360D01*
X0070241Y0125642D01*
X0070584Y0124969D01*
X0071028Y0124357D01*
X0071562Y0123823D01*
X0072173Y0123379D01*
X0072846Y0123036D01*
X0073565Y0122802D01*
X0074205Y0122701D01*
X0074205Y0127000D01*
X0074205Y0126086D02*
X0075173Y0126086D01*
X0075173Y0127084D02*
X0080289Y0127084D01*
X0080289Y0128083D02*
X0079454Y0128083D01*
X0079217Y0129081D02*
X0080588Y0129081D01*
X0081062Y0130080D02*
X0078736Y0130080D01*
X0077883Y0131078D02*
X0082061Y0131078D01*
X0080506Y0126086D02*
X0079282Y0126086D01*
X0078855Y0125087D02*
X0080919Y0125087D01*
X0081862Y0124089D02*
X0078082Y0124089D01*
X0076638Y0123090D02*
X0083089Y0123090D01*
X0083089Y0122092D02*
X0066289Y0122092D01*
X0066289Y0123090D02*
X0072740Y0123090D01*
X0074205Y0123090D02*
X0075173Y0123090D01*
X0075173Y0124089D02*
X0074205Y0124089D01*
X0074205Y0125087D02*
X0075173Y0125087D01*
X0075173Y0128083D02*
X0074205Y0128083D01*
X0074205Y0129081D02*
X0075173Y0129081D01*
X0075173Y0130080D02*
X0074205Y0130080D01*
X0074205Y0131078D02*
X0075173Y0131078D01*
X0071495Y0131078D02*
X0067317Y0131078D01*
X0068316Y0130080D02*
X0070642Y0130080D01*
X0070096Y0126086D02*
X0068872Y0126086D01*
X0068459Y0125087D02*
X0070523Y0125087D01*
X0071296Y0124089D02*
X0067516Y0124089D01*
X0066289Y0121093D02*
X0083089Y0121093D01*
X0083398Y0120095D02*
X0066289Y0120095D01*
X0066289Y0119096D02*
X0084397Y0119096D01*
X0085395Y0118098D02*
X0066289Y0118098D01*
X0066289Y0117099D02*
X0086394Y0117099D01*
X0068350Y0109846D02*
X0025122Y0109846D01*
X0017764Y0094133D02*
X0075766Y0094133D01*
X0075766Y0093135D02*
X0017764Y0093135D01*
X0017764Y0092136D02*
X0075766Y0092136D01*
X0075766Y0091138D02*
X0017764Y0091138D01*
X0017764Y0090139D02*
X0075766Y0090139D01*
X0075766Y0089141D02*
X0017764Y0089141D01*
X0017764Y0088142D02*
X0075766Y0088142D01*
X0075766Y0087144D02*
X0017764Y0087144D01*
X0017764Y0086145D02*
X0075766Y0086145D01*
X0075766Y0085147D02*
X0017764Y0085147D01*
X0017764Y0084148D02*
X0075766Y0084148D01*
X0075766Y0083150D02*
X0017764Y0083150D01*
X0017764Y0082151D02*
X0075766Y0082151D01*
X0075766Y0081153D02*
X0017764Y0081153D01*
X0017764Y0066175D02*
X0042945Y0066175D01*
X0042945Y0065177D02*
X0043913Y0065177D01*
X0043913Y0064178D02*
X0042945Y0064178D01*
X0042945Y0063180D02*
X0043913Y0063180D01*
X0043351Y0062884D02*
X0044823Y0062884D01*
X0045205Y0062782D01*
X0045547Y0062584D01*
X0045826Y0062305D01*
X0046023Y0061963D01*
X0046126Y0061581D01*
X0046126Y0059909D01*
X0043351Y0059909D01*
X0043351Y0059359D01*
X0046126Y0059359D01*
X0046126Y0057686D01*
X0046023Y0057305D01*
X0045826Y0056963D01*
X0045547Y0056684D01*
X0045205Y0056486D01*
X0044823Y0056384D01*
X0043351Y0056384D01*
X0043351Y0059359D01*
X0042801Y0059359D01*
X0042801Y0056384D01*
X0041328Y0056384D01*
X0040947Y0056486D01*
X0040605Y0056684D01*
X0040325Y0056963D01*
X0040128Y0057305D01*
X0040026Y0057686D01*
X0040026Y0059359D01*
X0042801Y0059359D01*
X0042801Y0059909D01*
X0043351Y0059909D01*
X0043351Y0062884D01*
X0043351Y0062181D02*
X0042801Y0062181D01*
X0042801Y0061183D02*
X0043351Y0061183D01*
X0043351Y0060184D02*
X0042801Y0060184D01*
X0042801Y0059186D02*
X0043351Y0059186D01*
X0043351Y0058187D02*
X0042801Y0058187D01*
X0042801Y0057188D02*
X0043351Y0057188D01*
X0045956Y0057188D02*
X0048265Y0057188D01*
X0048026Y0058187D02*
X0046126Y0058187D01*
X0046126Y0059186D02*
X0048026Y0059186D01*
X0048026Y0060184D02*
X0046126Y0060184D01*
X0046126Y0061183D02*
X0048026Y0061183D01*
X0048367Y0062181D02*
X0045897Y0062181D01*
X0046321Y0063180D02*
X0049106Y0063180D01*
X0050676Y0062487D02*
X0050713Y0062524D01*
X0050713Y0065870D01*
X0050122Y0066461D01*
X0056618Y0066461D01*
X0056638Y0064178D02*
X0053387Y0064178D01*
X0052313Y0063180D02*
X0063875Y0063180D01*
X0053326Y0061183D02*
X0100485Y0061183D01*
X0099487Y0062181D02*
X0052984Y0062181D01*
X0053326Y0060184D02*
X0101484Y0060184D01*
X0102482Y0059186D02*
X0053326Y0059186D01*
X0053326Y0058187D02*
X0103481Y0058187D01*
X0104479Y0057188D02*
X0053086Y0057188D01*
X0050676Y0059634D02*
X0050676Y0062487D01*
X0043913Y0067174D02*
X0042945Y0067174D01*
X0042945Y0068172D02*
X0043913Y0068172D01*
X0043913Y0069171D02*
X0042945Y0069171D01*
X0046898Y0069171D02*
X0047143Y0069171D01*
X0040026Y0060184D02*
X0035513Y0060184D01*
X0035671Y0059186D02*
X0040026Y0059186D01*
X0040026Y0058187D02*
X0035671Y0058187D01*
X0035671Y0057188D02*
X0040195Y0057188D01*
X0035671Y0056190D02*
X0105478Y0056190D01*
X0106476Y0055191D02*
X0035671Y0055191D01*
X0034731Y0054193D02*
X0044579Y0054193D01*
X0046939Y0051697D02*
X0049728Y0051697D01*
X0050676Y0050750D01*
X0050676Y0044870D01*
X0043351Y0045206D02*
X0042801Y0045206D01*
X0042801Y0046205D02*
X0043351Y0046205D01*
X0043351Y0047203D02*
X0042801Y0047203D01*
X0046876Y0051634D02*
X0035028Y0051634D01*
X0032406Y0054256D01*
X0032406Y0057602D01*
X0029140Y0058187D02*
X0028978Y0058187D01*
X0028978Y0059186D02*
X0029140Y0059186D01*
X0029298Y0060184D02*
X0028820Y0060184D01*
X0046876Y0051634D02*
X0046939Y0051697D01*
X0050493Y0053194D02*
X0108473Y0053194D01*
X0107475Y0054193D02*
X0049172Y0054193D01*
X0058587Y0049200D02*
X0059685Y0049200D01*
X0059449Y0048202D02*
X0058587Y0048202D01*
X0058587Y0047203D02*
X0059449Y0047203D01*
X0059449Y0046205D02*
X0058587Y0046205D01*
X0058587Y0045206D02*
X0059449Y0045206D01*
X0059530Y0041212D02*
X0058587Y0041212D01*
X0058587Y0040214D02*
X0059449Y0040214D01*
X0065140Y0047203D02*
X0065813Y0047203D01*
X0065813Y0048202D02*
X0065140Y0048202D01*
X0065140Y0049200D02*
X0065813Y0049200D01*
X0078127Y0043207D02*
X0078127Y0041979D01*
X0078377Y0041979D01*
X0078377Y0043207D01*
X0078127Y0043207D01*
X0078127Y0042211D02*
X0078377Y0042211D01*
X0078377Y0041212D02*
X0078127Y0041212D01*
X0081994Y0040214D02*
X0082577Y0040214D01*
X0082577Y0041212D02*
X0082252Y0041212D01*
X0082252Y0042211D02*
X0082577Y0042211D01*
X0072366Y0041212D02*
X0071423Y0041212D01*
X0071504Y0040214D02*
X0072366Y0040214D01*
X0097457Y0048202D02*
X0098457Y0048202D01*
X0098457Y0049200D02*
X0097457Y0049200D01*
X0097457Y0050199D02*
X0098457Y0050199D01*
X0105331Y0050199D02*
X0106331Y0050199D01*
X0106331Y0049200D02*
X0105331Y0049200D01*
X0105331Y0048202D02*
X0106331Y0048202D01*
X0113205Y0048202D02*
X0114205Y0048202D01*
X0114205Y0049200D02*
X0113205Y0049200D01*
X0113205Y0050199D02*
X0114205Y0050199D01*
X0111763Y0058955D02*
X0138974Y0058955D01*
X0141064Y0054155D02*
X0152091Y0065182D01*
X0152091Y0072563D01*
X0157996Y0072563D02*
X0157996Y0050516D01*
X0157871Y0046205D02*
X0158121Y0046205D01*
X0158121Y0045206D02*
X0157871Y0045206D01*
X0119610Y0041212D02*
X0118157Y0041212D01*
X0118157Y0040214D02*
X0119610Y0040214D01*
X0098488Y0063180D02*
X0084275Y0063180D01*
X0085273Y0064178D02*
X0097490Y0064178D01*
X0096491Y0065177D02*
X0085582Y0065177D01*
X0085582Y0066175D02*
X0095493Y0066175D01*
X0082111Y0063180D02*
X0080857Y0063180D01*
X0081124Y0067174D02*
X0081512Y0067174D01*
X0117715Y0075162D02*
X0118094Y0075162D01*
X0135358Y0082209D02*
X0136343Y0083193D01*
X0141461Y0083193D01*
X0144486Y0097129D02*
X0144585Y0097129D01*
X0143752Y0098127D02*
X0143487Y0098127D01*
X0142753Y0099126D02*
X0117413Y0099126D01*
X0117748Y0101123D02*
X0118038Y0101123D01*
X0114780Y0101123D02*
X0113811Y0101123D01*
X0113811Y0102121D02*
X0114780Y0102121D01*
X0114780Y0103120D02*
X0113811Y0103120D01*
X0110630Y0102121D02*
X0104478Y0102121D01*
X0104478Y0101123D02*
X0110843Y0101123D01*
X0111178Y0099126D02*
X0104478Y0099126D01*
X0104478Y0100124D02*
X0141755Y0100124D01*
X0140756Y0101123D02*
X0123938Y0101123D01*
X0124254Y0102121D02*
X0139757Y0102121D01*
X0114780Y0099126D02*
X0113811Y0099126D01*
X0113811Y0098127D02*
X0114780Y0098127D01*
X0114780Y0097129D02*
X0113811Y0097129D01*
X0110630Y0097129D02*
X0104478Y0097129D01*
X0104478Y0098127D02*
X0110630Y0098127D01*
X0061862Y0124089D02*
X0057516Y0124089D01*
X0058459Y0125087D02*
X0060919Y0125087D01*
X0060506Y0126086D02*
X0058872Y0126086D01*
X0059089Y0127084D02*
X0060289Y0127084D01*
X0060289Y0128083D02*
X0059089Y0128083D01*
X0058790Y0129081D02*
X0060588Y0129081D01*
X0061062Y0130080D02*
X0058316Y0130080D01*
X0057317Y0131078D02*
X0062061Y0131078D01*
X0200780Y0047203D02*
X0201590Y0047203D01*
D26*
X0204256Y0034965D03*
X0176697Y0053681D03*
X0183587Y0063508D03*
X0164886Y0082209D03*
X0164886Y0086146D03*
X0164886Y0090083D03*
X0164886Y0094020D03*
X0153075Y0096972D03*
X0153075Y0105831D03*
X0142248Y0095988D03*
X0147169Y0086146D03*
X0151106Y0086146D03*
X0155043Y0086146D03*
X0155043Y0082209D03*
X0151106Y0082209D03*
X0147169Y0082209D03*
X0147169Y0078272D03*
X0151106Y0078272D03*
X0155043Y0078272D03*
X0141264Y0069413D03*
X0136343Y0069413D03*
X0135358Y0063508D03*
X0129453Y0063508D03*
X0121579Y0063508D03*
X0121579Y0072366D03*
X0135358Y0082209D03*
X0121579Y0095988D03*
X0128469Y0107799D03*
X0129453Y0119610D03*
X0140280Y0118626D03*
X0119610Y0119610D03*
X0110752Y0121579D03*
X0099925Y0124531D03*
X0095004Y0112720D03*
X0093035Y0108783D03*
X0087130Y0092051D03*
X0082209Y0070398D03*
X0083193Y0065476D03*
X0077287Y0053665D03*
X0069413Y0053665D03*
X0061539Y0053665D03*
X0075319Y0041854D03*
X0078272Y0041854D03*
X0079256Y0034965D03*
X0075319Y0034965D03*
X0091067Y0031028D03*
X0093035Y0038902D03*
X0102878Y0031028D03*
X0115673Y0031028D03*
X0122563Y0045791D03*
X0135358Y0050713D03*
X0101894Y0052681D03*
X0087130Y0052681D03*
X0047760Y0028075D03*
X0034965Y0024138D03*
X0033980Y0077287D03*
X0048744Y0087130D03*
X0042839Y0100909D03*
X0138311Y0024138D03*
X0168823Y0040870D03*
X0175713Y0084177D03*
X0180634Y0100909D03*
X0207209Y0083193D03*
X0167701Y0121441D03*
M02*
